<?xml version="1.0" encoding="UTF-8" standalone="no"?>
<!-- Created with Inkscape (http://www.inkscape.org/) -->

<svg
   width="40.456081mm"
   height="32.343285mm"
   viewBox="0 0 40.456081 32.343285"
   version="1.1"
   id="svg1"
   xmlns="http://www.w3.org/2000/svg"
   xmlns:svg="http://www.w3.org/2000/svg">
  <defs
     id="defs1" />
  <g
     id="analytics"
     transform="translate(-61.823197,-70.481817)">
    <g
       id="g10"
       class="visible-shapes">
      <path
         id="eye"
         style="fill:#0e1d2c;fill-opacity:1;stroke-width:0.926605;stroke-linejoin:round"
         d="m 82.12957,77.404061 c -5.191191,-0.161809 -10.288399,2.827114 -15.942742,9.086267 -0.278352,0.307859 -0.297759,0.817008 -0.04393,1.152384 9.606567,12.729348 25.326338,10.534762 32.207605,0.163815 0.232216,-0.349735 0.188746,-0.849993 -0.09894,-1.138432 C 92.448369,80.843294 87.320762,77.56587 82.12957,77.404061 Z m -6.419597,4.409295 c -1.351668,1.665775 -1.274103,6.219442 0.02023,8.2628 2.845899,4.492822 9.098309,5.548807 12.80362,0.747241 2.376501,-3.079613 2.377093,-5.474045 1.936789,-7.838664 2.031549,1.533665 2.658452,2.478193 5.167379,4.935695 C 89.243124,96.690262 78.56168,98.478054 69.698844,87.500891 72.3434,84.663917 73.333473,83.13847 75.709976,81.813356 Z M 88.03511,81.388831 c 0.434947,0.5087 0.834753,1.040138 0.92643,1.770951 l -3.353302,1.328084 C 85.420472,83.768368 85.002859,83.209491 84.544439,82.67913 Z m -5.831887,1.245402 c 1.423469,-5.5e-5 2.577427,1.294513 2.577407,2.891296 2e-5,1.59678 -1.153938,2.890835 -2.577407,2.89078 -1.423398,-5.8e-5 -2.576984,-1.29408 -2.576963,-2.89078 -2.1e-5,-1.596703 1.153565,-2.891239 2.576963,-2.891296 z m -3.370518,3.57879 c 0.108842,0.428428 0.222393,0.855485 0.545513,1.221522 l -2.775919,2.176821 c -0.516435,-0.544267 -0.799478,-1.039543 -0.871655,-1.691151 z m 1.01021,2.061611 c 0.253426,0.323345 0.598686,0.557559 1.016365,0.721484 l -1.293362,3.247864 c -0.738478,-0.42958 -1.43715,-0.895218 -1.931836,-1.545642 z"
         class="visible-shape" />
    </g>
    <g
       id="g9"
       class="hidden-shapes">
      <g
         id="pie"
         transform="matrix(0.63916677,0,0,0.63916677,27.17933,27.634594)"
         class="hidden-shape">
        <path
           style="fill:#000000;fill-opacity:1;stroke-width:1.94263;stroke-linecap:round;stroke-linejoin:round;stroke-miterlimit:9"
           d="m 63.341826,78.435734 -6.422457,4.975525 c -0.346548,0.268473 -0.41208,0.769663 -0.116403,1.093149 2.410759,2.637494 6.085011,3.737987 9.548711,2.859984 0.424854,-0.107695 1.09869,-0.338198 1.500461,-0.513264 3.275592,-1.427297 5.505974,-4.547348 5.796448,-8.108568 0.03563,-0.43684 -0.323119,-0.79294 -0.761495,-0.79294 l -8.124034,0 a 2.3206529,2.3206529 161.1174 0 0 -1.421231,0.486114 z"
           id="pie1" />
        <path
           style="fill:#000000;fill-opacity:1;stroke-width:1.94263;stroke-linecap:round;stroke-linejoin:round;stroke-miterlimit:9"
           d="m 60.336969,68.269417 c -2.274968,0.755425 -4.159422,2.434789 -5.218919,4.651774 -0.188968,0.395413 -0.440269,1.061875 -0.559736,1.483522 -0.674274,2.379792 -0.384707,4.943759 0.801531,7.098389 0.211363,0.383911 0.701163,0.471047 1.057523,0.215741 l 5.974423,-4.280234 a 1.2077718,1.2077718 111.0682 0 0 0.476901,-1.237964 l -1.599621,-7.370639 c -0.09297,-0.428403 -0.516211,-0.69869 -0.932102,-0.560589 z"
           id="pie2" />
        <path
           style="fill:#000000;fill-opacity:1;stroke-width:1.94263;stroke-linecap:round;stroke-linejoin:round;stroke-miterlimit:9"
           d="m 67.489092,68.653162 -2.674782,7.6707 a 0.55180351,0.55180351 54.030187 0 0 0.532238,0.733376 l 8.122783,-0.16495 c 0.438285,-0.0089 0.78972,-0.372181 0.745205,-0.80817 -0.353693,-3.464103 -2.542052,-6.479108 -5.725981,-7.888961 -0.400754,-0.177455 -0.855125,0.04407 -0.999463,0.458005 z"
           id="pie4" />
        <path
           style="fill:#000000;fill-opacity:1;stroke-width:1.94263;stroke-linecap:round;stroke-linejoin:round;stroke-miterlimit:9"
           d="m 62.939688,67.064937 c -0.003,2.36e-4 -0.0061,4.73e-4 -0.0091,7.12e-4 -0.436914,0.03423 -0.731258,0.445079 -0.661372,0.877849 l 1.295182,8.020506 a 0.19983966,0.19983966 4.9583056 0 0 0.386134,0.0335 l 2.656993,-7.677369 c 0.14337,-0.414269 -0.0758,-0.869729 -0.500273,-0.978768 -0.518926,-0.133301 -1.048,-0.223433 -1.581792,-0.269469 -0.436633,-0.03766 -0.792719,-0.03582 -0.792719,-0.03582 z"
           id="pie3" />
      </g>
      <path
         id="bars"
         style="fill:#000000;fill-opacity:1;stroke:none;stroke-width:1.465;stroke-linecap:round;stroke-linejoin:round;stroke-miterlimit:9;stroke-dasharray:none;stroke-opacity:1"
         d="m 89.142789,89.668787 c -0.46688,0 -0.842326,0.375963 -0.842326,0.842842 v 11.470621 c 0,0.46688 0.375446,0.84285 0.842326,0.84285 h 0.946195 c 0.46688,0 0.842323,-0.37597 0.842323,-0.84285 V 90.511629 c 0,-0.466879 -0.375443,-0.842842 -0.842323,-0.842842 z m 3.827317,1.531172 c -0.466879,0 -0.842319,0.375447 -0.842319,0.842326 v 9.939965 c 0,0.46688 0.37544,0.84285 0.842319,0.84285 h 0.9462 c 0.46688,0 0.84232,-0.37597 0.84232,-0.84285 v -9.939965 c 0,-0.466879 -0.37544,-0.842326 -0.84232,-0.842326 z m -15.643949,1.291394 c -0.466879,0 -0.842843,0.375964 -0.842843,0.842843 v 8.648054 c 0,0.46688 0.375964,0.84285 0.842843,0.84285 h 0.945679 c 0.466879,0 0.842842,-0.37597 0.842842,-0.84285 v -8.648054 c 0,-0.466879 -0.375963,-0.842843 -0.842842,-0.842843 z m 7.869926,0 c -0.466879,0 -0.842842,0.375964 -0.842842,0.842843 v 8.648054 c 0,0.46688 0.375963,0.84285 0.842842,0.84285 h 0.945679 c 0.466879,0 0.842843,-0.37597 0.842843,-0.84285 v -8.648054 c 0,-0.466879 -0.375964,-0.842843 -0.842843,-0.842843 z m -3.92322,2.296501 c -0.46688,0 -0.842326,0.375963 -0.842326,0.84284 v 6.351556 c 0,0.46688 0.375446,0.84285 0.842326,0.84285 h 0.946195 c 0.466879,0 0.842326,-0.37597 0.842326,-0.84285 v -6.351556 c 0,-0.466877 -0.375447,-0.84284 -0.842326,-0.84284 z m -11.641579,0.901578 c -0.466879,0 -0.842843,0.375964 -0.842843,0.842843 v 5.332805 c 0,0.46688 0.375964,0.84285 0.842843,0.84285 h 0.945679 c 0.466879,0 0.842842,-0.37597 0.842842,-0.84285 v -5.332805 c 0,-0.466879 -0.375963,-0.842843 -0.842842,-0.842843 z m 3.946706,-1.018745 c -0.46688,0 -0.842326,0.375963 -0.842326,0.84284 v 6.351553 c 0,0.46688 0.375446,0.84285 0.842326,0.84285 h 0.946195 c 0.466879,0 0.842326,-0.37597 0.842326,-0.84285 v -6.351553 c 0,-0.466877 -0.375447,-0.84284 -0.842326,-0.84284 z"
         class="hidden-shape" />
      <g
         id="g8"
         transform="translate(0,2.5710075)"
         class="hidden-shape">
        <path
           style="stroke-linecap:round;stroke-linejoin:round"
           d="m 87.978516,68.292969 a 0.73250002,0.73250002 0 0 0 -0.732422,0.732422 v 11.003906 a 0.73257327,0.73257327 0 0 0 0.732422,0.732422 h 13.568364 a 0.73250002,0.73250002 0 0 0 0.73242,-0.732422 0.73250002,0.73250002 0 0 0 -0.73242,-0.732422 H 88.710937 V 69.025391 a 0.73250002,0.73250002 0 0 0 -0.732421,-0.732422 z"
           id="path1" />
        <path
           style="stroke-linecap:round"
           d="m 91.263672,74.734375 -3.34375,1.347656 a 0.2825,0.2825 0 0 0 -0.15625,0.369141 0.2825,0.2825 0 0 0 0.367187,0.15625 l 3.066407,-1.236328 3.1875,2.140625 3.925781,-1.052735 3.291013,2.132813 a 0.2825,0.2825 0 0 0 0.39063,-0.08398 0.2825,0.2825 0 0 0 -0.082,-0.390625 l -3.501957,-2.269531 -3.921875,1.052735 z"
           id="path2" />
        <path
           style="stroke-linecap:round"
           d="m 87.935547,74.355469 a 0.2825,0.2825 0 0 0 -0.164063,0.142578 0.2825,0.2825 0 0 0 0.128907,0.376953 l 3.296875,1.625 3.521484,-0.832031 3.798828,-0.277344 3.074222,2.189453 a 0.2825,0.2825 0 0 0 0.39453,-0.06641 0.2825,0.2825 0 0 0 -0.0664,-0.394531 l -3.240233,-2.306641 -4.046875,0.294922 -3.367187,0.794922 -3.115234,-1.533203 a 0.2825,0.2825 0 0 0 -0.214844,-0.01367 z"
           id="path4" />
        <path
           style="stroke-linecap:round"
           d="m 98.609375,70.636719 -4.009766,1.322265 -3.333984,0.78711 -3.115234,-1.535157 a 0.2825,0.2825 0 0 0 -0.378907,0.128907 0.2825,0.2825 0 0 0 0.128907,0.378906 l 3.296875,1.623047 3.554687,-0.839844 3.835938,-1.261719 3.060549,1.251953 a 0.2825,0.2825 0 0 0 0.36914,-0.154296 0.2825,0.2825 0 0 0 -0.1543,-0.369141 z"
           id="path5" />
        <path
           style="stroke-linecap:round"
           d="m 90.896484,68.65625 a 0.0825,0.0825 0 0 0 -0.08203,0.08203 v 11.195313 a 0.0825,0.0825 0 0 0 0.08203,0.08203 0.0825,0.0825 0 0 0 0.08203,-0.08203 V 68.738281 a 0.0825,0.0825 0 0 0 -0.08203,-0.08203 z m 1.851563,0 a 0.0825,0.0825 0 0 0 -0.08203,0.08203 v 11.195313 a 0.0825,0.0825 0 0 0 0.08203,0.08203 0.0825,0.0825 0 0 0 0.08203,-0.08203 V 68.738281 a 0.0825,0.0825 0 0 0 -0.08203,-0.08203 z m 1.851562,0 a 0.0825,0.0825 0 0 0 -0.08203,0.08203 v 11.195313 a 0.0825,0.0825 0 0 0 0.08203,0.08203 0.0825,0.0825 0 0 0 0.08398,-0.08203 V 68.738281 a 0.0825,0.0825 0 0 0 -0.08398,-0.08203 z m 1.853516,0 a 0.0825,0.0825 0 0 0 -0.08398,0.08203 v 11.195313 a 0.0825,0.0825 0 0 0 0.08398,0.08203 0.0825,0.0825 0 0 0 0.08203,-0.08203 V 68.738281 a 0.0825,0.0825 0 0 0 -0.08203,-0.08203 z m 1.851562,0 a 0.0825,0.0825 0 0 0 -0.08203,0.08203 v 11.195313 a 0.0825,0.0825 0 0 0 0.08203,0.08203 0.0825,0.0825 0 0 0 0.08203,-0.08203 V 68.738281 a 0.0825,0.0825 0 0 0 -0.08203,-0.08203 z m 1.851563,0 a 0.0825,0.0825 0 0 0 -0.082,0.08203 v 11.195313 a 0.0825,0.0825 0 0 0 0.082,0.08203 0.0825,0.0825 0 0 0 0.082,-0.08203 V 68.738281 a 0.0825,0.0825 0 0 0 -0.082,-0.08203 z m 1.85156,0 a 0.0825,0.0825 0 0 0 -0.082,0.08203 v 11.195313 a 0.0825,0.0825 0 0 0 0.082,0.08203 0.0825,0.0825 0 0 0 0.084,-0.08203 V 68.738281 a 0.0825,0.0825 0 0 0 -0.084,-0.08203 z"
           id="path6"
           transform="translate(-0.60212284)" />
        <path
           style="stroke-linecap:round"
           d="m 90.896484,68.65625 a 0.0825,0.0825 0 0 0 -0.08203,0.08203 v 13.240235 a 0.0825,0.0825 0 0 0 0.08203,0.08203 0.0825,0.0825 0 0 0 0.08203,-0.08203 V 68.738281 a 0.0825,0.0825 0 0 0 -0.08203,-0.08203 z m 1.851563,0 a 0.0825,0.0825 0 0 0 -0.08203,0.08203 v 13.240235 a 0.0825,0.0825 0 0 0 0.08203,0.08203 0.0825,0.0825 0 0 0 0.08203,-0.08203 V 68.738281 a 0.0825,0.0825 0 0 0 -0.08203,-0.08203 z m 1.851562,0 a 0.0825,0.0825 0 0 0 -0.08203,0.08203 v 13.240235 a 0.0825,0.0825 0 0 0 0.08203,0.08203 0.0825,0.0825 0 0 0 0.08398,-0.08203 V 68.738281 a 0.0825,0.0825 0 0 0 -0.08398,-0.08203 z m 1.853516,0 a 0.0825,0.0825 0 0 0 -0.08398,0.08203 v 13.240235 a 0.0825,0.0825 0 0 0 0.08398,0.08203 0.0825,0.0825 0 0 0 0.08203,-0.08203 V 68.738281 a 0.0825,0.0825 0 0 0 -0.08203,-0.08203 z m 1.851562,0 a 0.0825,0.0825 0 0 0 -0.08203,0.08203 v 13.240235 a 0.0825,0.0825 0 0 0 0.08203,0.08203 0.0825,0.0825 0 0 0 0.08203,-0.08203 V 68.738281 a 0.0825,0.0825 0 0 0 -0.08203,-0.08203 z m 1.851563,0 a 0.0825,0.0825 0 0 0 -0.082,0.08203 v 13.240235 a 0.0825,0.0825 0 0 0 0.082,0.08203 0.0825,0.0825 0 0 0 0.082,-0.08203 V 68.738281 a 0.0825,0.0825 0 0 0 -0.082,-0.08203 z m 1.85156,0 a 0.0825,0.0825 0 0 0 -0.082,0.08203 v 13.240235 a 0.0825,0.0825 0 0 0 0.082,0.08203 0.0825,0.0825 0 0 0 0.084,-0.08203 V 68.738281 a 0.0825,0.0825 0 0 0 -0.084,-0.08203 z"
           id="path7"
           transform="rotate(90,96.189158,73.928636)" />
      </g>
    </g>
  </g>
</svg>
