<?xml version="1.0" encoding="UTF-8" standalone="no"?>
<!-- Created with Inkscape (http://www.inkscape.org/) -->

<svg
   width="40.456081mm"
   height="32.343285mm"
   viewBox="0 0 40.456081 32.343285"
   version="1.1"
   id="svg1"
   xmlns="http://www.w3.org/2000/svg"
   xmlns:svg="http://www.w3.org/2000/svg">
  <defs
     id="defs1" />
  <g
     id="g80"
     transform="matrix(0.79783138,0,0,0.79783138,-83.642806,-85.588357)">
    <g
       id="g17"
       style="display:inline"
       class="visible-shapes">
      <path
         id="rect55"
         style="stroke:none;stroke-width:1.44712;stroke-linecap:round;stroke-linejoin:round;stroke-miterlimit:9"
         d="m 136.36906,115.12949 a 1.0053734,1.0053734 0 0 0 -0.90882,0.86401 1.0053734,1.0053734 0 0 0 0.34954,0.90679 l -2.50857,3.12689 c 0.11085,0.87008 1.57257,1.36376 2.06334,1.13755 l 0.96243,-4.03775 a 1.0053734,1.0053734 0 0 0 1.12532,-0.85859 1.0053734,1.0053734 0 0 0 -0.85858,-1.13348 1.0053734,1.0053734 0 0 0 -0.22466,-0.005 z m -5.5805,1.00179 c -1.70661,-0.0218 -2.98152,0.49868 -3.37599,1.62623 -0.73981,2.1147 0.53543,6.51039 5.15494,8.13591 4.61951,1.62554 8.45462,-0.97899 8.97684,-2.63822 0.40472,-1.28595 -1.30641,-3.79026 -4.91806,-5.55537 l -0.23415,1.17758 a 5.7504292,1.8900961 24.701109 0 1 3.49747,3.65427 5.7504292,1.8900961 24.701109 0 1 -6.0142,-0.68619 5.7504292,1.8900961 24.701109 0 1 -4.43412,-4.11988 5.7504292,1.8900961 24.701109 0 1 2.3511,-0.47578 5.7504292,1.8900961 24.701109 0 1 2.48822,0.67805 l 0.84027,-0.87557 c -1.07482,-0.40513 -2.12406,-0.68312 -3.08686,-0.82057 h -6.7e-4 c -0.43433,-0.062 -0.85096,-0.0954 -1.24479,-0.10046 z m -15.61411,2.52963 -1.47556,3.32507 3.51105,1.55769 1.47556,-3.3244 z m 4.02892,1.78776 -1.47556,3.32508 3.51107,1.55768 1.47554,-3.32441 z m 4.02892,1.78777 -1.47555,3.32508 3.51106,1.55836 1.47554,-3.32509 z m -9.7567,0.25316 -1.47555,3.3244 3.51105,1.55837 1.47556,-3.32508 z m 14.51051,1.22714 -3.85245,9.36712 c -1.35542,3.29524 7.33521,6.25431 8.4739,3.48594 l 3.85314,-9.36712 c -0.70615,0.14671 -2.24261,0.72219 -5.11421,-0.52465 -2.71199,-1.17753 -3.36038,-2.96129 -3.36038,-2.96129 z m -10.48158,0.56063 -1.47556,3.3244 3.51105,1.55836 1.47556,-3.3244 z m 4.02892,1.78777 -1.47555,3.32509 3.51105,1.55767 1.47555,-3.3244 z m 16.32475,2.77532 -1.47556,3.3244 3.51105,1.55836 1.47556,-3.32509 z m 4.02892,1.78775 -1.47556,3.32509 3.51107,1.55769 1.47554,-3.32442 z m 4.02892,1.78778 -1.47555,3.32508 3.51106,1.55767 1.47555,-3.3244 z m -9.7567,0.25316 -1.47555,3.32441 3.51105,1.55836 1.47556,-3.32509 z m 4.02893,1.78777 -1.47556,3.3244 3.51106,1.55836 1.47555,-3.32508 z m 4.02892,1.78777 -1.47555,3.3244 3.51105,1.55836 1.47555,-3.32441 z" />
    </g>
    <g
       id="g18"
       class="hidden-shapes">
      <path
         id="path61"
         style="stroke-width:1.92416;stroke-linecap:round;stroke-linejoin:round;stroke-miterlimit:9"
         d="m 126.09138,139.35797 a 2.0107468,2.0107468 0 0 1 -2.01075,2.01075 2.0107468,2.0107468 0 0 1 -2.01075,-2.01075 2.0107468,2.0107468 0 0 1 2.01075,-2.01073 2.0107468,2.0107468 0 0 1 2.01075,2.01073 z" />
      <path
         id="circle61"
         style="stroke-width:1.8039;stroke-linecap:round;stroke-linejoin:round;stroke-miterlimit:9"
         d="m 120.24764,140.8032 a 1.8850751,1.8850751 0 0 1 -1.88508,1.88509 1.8850751,1.8850751 0 0 1 -1.88507,-1.88509 1.8850751,1.8850751 0 0 1 1.88507,-1.88506 1.8850751,1.8850751 0 0 1 1.88508,1.88506 z" />
      <path
         id="circle62"
         style="stroke-width:1.56337;stroke-linecap:round;stroke-linejoin:round;stroke-miterlimit:9"
         d="m 114.15255,139.16947 a 1.6337317,1.6337317 0 0 1 -1.63373,1.63373 1.6337317,1.6337317 0 0 1 -1.63373,-1.63373 1.6337317,1.6337317 0 0 1 1.63373,-1.63373 1.6337317,1.6337317 0 0 1 1.63373,1.63373 z" />
      <path
         id="circle63"
         style="stroke-width:1.32286;stroke-linecap:round;stroke-linejoin:round;stroke-miterlimit:9"
         d="m 109.56554,135.08514 a 1.3823885,1.3823885 0 0 1 -1.38239,1.3824 1.3823885,1.3823885 0 0 1 -1.38239,-1.3824 1.3823885,1.3823885 0 0 1 1.38239,-1.38239 1.3823885,1.3823885 0 0 1 1.38239,1.38239 z" />
      <path
         id="circle64"
         style="stroke-width:0.962078;stroke-linecap:round;stroke-linejoin:round;stroke-miterlimit:9"
         d="m 107.93182,128.86439 a 1.0053733,1.0053733 0 0 1 -1.00538,1.00538 1.0053733,1.0053733 0 0 1 -1.00537,-1.00538 1.0053733,1.0053733 0 0 1 1.00537,-1.00537 1.0053733,1.0053733 0 0 1 1.00538,1.00537 z" />
      <path
         id="circle65"
         style="stroke-width:0.781688;stroke-linecap:round;stroke-linejoin:round;stroke-miterlimit:9"
         d="m 109.37704,123.02067 a 0.8168658,0.8168658 0 0 1 -0.81686,0.81686 0.8168658,0.8168658 0 0 1 -0.81687,-0.81686 0.8168658,0.8168658 0 0 1 0.81687,-0.81687 0.8168658,0.8168658 0 0 1 0.81686,0.81687 z" />
      <path
         id="circle65-1"
         style="stroke-width:0.721559;stroke-linecap:round;stroke-linejoin:round;stroke-miterlimit:9"
         d="m 113.29154,119.0576 a 0.75402997,0.75402997 0 0 1 -0.75403,0.75403 0.75402997,0.75402997 0 0 1 -0.75403,-0.75403 0.75402997,0.75402997 0 0 1 0.75403,-0.75403 0.75402997,0.75402997 0 0 1 0.75403,0.75403 z" />
      <path
         id="path65"
         style="stroke-width:1.92416;stroke-linecap:round;stroke-linejoin:round;stroke-miterlimit:9"
         d="m 122.93526,113.5658 -0.44246,-2.10692 -2.1479,-0.36738 2.10693,-0.44247 0.36739,-2.14788 0.44246,2.10691 2.14788,0.36739 -2.10691,0.44246 z" />
      <path
         id="path65-5"
         style="stroke-width:3.54467;stroke-linecap:round;stroke-linejoin:round;stroke-miterlimit:9"
         d="m 148.61521,119.72792 -0.8151,-3.88137 -3.95685,-0.67679 3.88137,-0.81512 0.67682,-3.95682 0.81509,3.88134 3.95682,0.67682 -3.88134,0.81509 z" />
      <path
         id="path65-5-1"
         style="stroke-width:2.59937;stroke-linecap:round;stroke-linejoin:round;stroke-miterlimit:9"
         d="m 133.27555,146.99452 -0.59772,-2.84628 -2.90163,-0.4963 2.84627,-0.59774 0.49632,-2.90161 0.59773,2.84626 2.9016,0.49632 -2.84625,0.59772 z" />
    </g>
  </g>
</svg>
