<?xml version="1.0" encoding="UTF-8" standalone="no"?>
<!-- Created with Inkscape (http://www.inkscape.org/) -->

<svg
   width="40.456081mm"
   height="32.343285mm"
   viewBox="0 0 40.456081 32.343285"
   version="1.1"
   id="svg1"
   xmlns="http://www.w3.org/2000/svg"
   xmlns:svg="http://www.w3.org/2000/svg">
  <defs
     id="defs1" />
  <g
     id="g78"
     transform="matrix(0.79098577,0,0,0.79098577,-106.60903,-42.965786)">
    <g
       id="g13"
       class="visible-shapes">
      <path
         id="path11"
         style="stroke-linecap:round"
         d="m 162.71668,55.707711 a 1.3825001,1.3825001 0 0 0 -1.37511,0.68678 c -3.28724,5.760929 -3.2234,10.370005 -2.14405,14.240474 0.38728,1.388747 0.87457,2.670028 1.36271,3.923275 -1.93366,0.657222 -3.85409,1.429147 -5.60535,2.658752 -6.79122,4.768302 -7.87083,11.474235 -7.87083,11.474235 a 1.3825001,1.3825001 0 0 0 1.156,1.578198 1.3825001,1.3825001 0 0 0 1.57613,-1.156001 c 0,0 0.0147,-0.08955 0.0424,-0.223759 l 9.99836,4.501017 a 1.3825001,1.3825001 0 0 0 0.50436,1.30638 1.3825001,1.3825001 0 0 0 1.93942,-0.257865 c 0,0 4.10202,-5.413219 3.03702,-13.63276 -0.20933,-1.615554 -0.63208,-3.096413 -1.12603,-4.503084 1.06427,-0.360386 2.14801,-0.749341 3.2396,-1.219564 4.05867,-1.748347 8.07341,-4.830238 10.24795,-11.460799 a 1.3825001,1.3825001 0 0 0 -0.88263,-1.74408 1.3825001,1.3825001 0 0 0 -1.74615,0.882634 c -0.0955,0.291167 -0.19613,0.566398 -0.29714,0.840259 l -11.29853,-5.344377 c 0.0895,-0.164492 0.17335,-0.325481 0.26923,-0.49351 a 1.3825001,1.3825001 0 0 0 -0.51573,-1.885156 1.3825001,1.3825001 0 0 0 -0.5116,-0.171049 z m -0.45682,5.143872 11.33678,5.361946 c -0.36015,0.657829 -0.74045,1.256354 -1.14308,1.792139 l -10.75335,-5.442562 c 0.1453,-0.549367 0.33062,-1.119018 0.55965,-1.711523 z m -0.99994,4.698938 9.12658,4.620906 c -0.6333,0.523229 -1.29723,0.972815 -1.98851,1.366842 l -7.00061,-3.781165 c -0.10572,-0.712967 -0.15691,-1.444764 -0.13746,-2.206583 z m 1.14205,6.004801 2.7311,1.475879 c -0.62739,0.232831 -1.26915,0.449524 -1.91564,0.659908 -0.28435,-0.716501 -0.5631,-1.433316 -0.81546,-2.135787 z m -0.84284,5.630664 c 0.35003,0.97507 0.65215,1.94588 0.85731,2.935738 l -3.92947,-1.742529 c 0.95334,-0.445481 1.98584,-0.825355 3.07216,-1.193209 z m -5.9955,3.03134 7.18923,3.188436 c 0.0115,0.987899 -0.0575,1.906151 -0.17829,2.754354 l -9.02064,-4.056084 c 0.58003,-0.634658 1.24084,-1.269708 2.0097,-1.886706 z m -3.80338,4.221448 10.16113,4.568713 c -0.22965,0.710937 -0.48052,1.327342 -0.72243,1.844849 l -10.39007,-4.678268 c 0.25246,-0.53784 0.56173,-1.120213 0.95137,-1.735294 z" />
    </g>
    <g
       id="g14"
       class="hidden-shapes">
      <path
         d="m 136.38943,60.552555 v -1.550288 q 0,-1.353918 0.67179,-2.139398 0.67696,-0.785479 1.83968,-0.785479 1.16271,0 1.83967,0.785479 0.67696,0.78548 0.67696,2.139398 v 1.550288 q 0,1.353918 -0.67696,2.144565 -0.67696,0.785479 -1.83967,0.785479 -1.16272,0 -1.83968,-0.785479 -0.67179,-0.790647 -0.67179,-2.144565 z m 2.01021,-1.963698 v 2.377108 q 0,0.645953 0.50126,0.645953 0.50642,0 0.50642,-0.645953 v -2.377108 q 0,-0.645954 -0.50642,-0.645954 -0.50126,0 -0.50126,0.645954 z m 4.00491,1.963698 v -1.550288 q 0,-1.353918 0.67179,-2.139398 0.67696,-0.785479 1.83967,-0.785479 1.16272,0 1.83968,0.785479 0.67696,0.78548 0.67696,2.139398 v 1.550288 q 0,1.353918 -0.67696,2.144565 -0.67696,0.785479 -1.83968,0.785479 -1.16271,0 -1.83967,-0.785479 -0.67179,-0.790647 -0.67179,-2.144565 z m 2.0102,-1.963698 v 2.377108 q 0,0.645953 0.50126,0.645953 0.50643,0 0.50643,-0.645953 v -2.377108 q 0,-0.645954 -0.50643,-0.645954 -0.50126,0 -0.50126,0.645954 z m 4.00491,1.963698 v -1.550288 q 0,-1.353918 0.6718,-2.139398 0.67696,-0.785479 1.83967,-0.785479 1.16272,0 1.83968,0.785479 0.67696,0.78548 0.67696,2.139398 v 1.550288 q 0,1.353918 -0.67696,2.144565 -0.67696,0.785479 -1.83968,0.785479 -1.16271,0 -1.83967,-0.785479 -0.6718,-0.790647 -0.6718,-2.144565 z m 2.01021,-1.963698 v 2.377108 q 0,0.645953 0.50126,0.645953 0.50643,0 0.50643,-0.645953 v -2.377108 q 0,-0.645954 -0.50643,-0.645954 -0.50126,0 -0.50126,0.645954 z m 7.52407,-2.335768 V 63.3069 h -1.99988 v -7.053811 z m 21.01673,4.299466 v -1.550288 q 0,-1.353918 0.6718,-2.139398 0.67696,-0.785479 1.83967,-0.785479 1.16272,0 1.83968,0.785479 0.67696,0.78548 0.67696,2.139398 v 1.550288 q 0,1.353918 -0.67696,2.144565 -0.67696,0.785479 -1.83968,0.785479 -1.16271,0 -1.83967,-0.785479 -0.6718,-0.790647 -0.6718,-2.144565 z m 2.01021,-1.963698 v 2.377108 q 0,0.645953 0.50126,0.645953 0.50643,0 0.50643,-0.645953 v -2.377108 q 0,-0.645954 -0.50643,-0.645954 -0.50126,0 -0.50126,0.645954 z"
         id="path14"
         style="font-size:10.5833px;line-height:0.95;font-family:'Bauhaus 93';-inkscape-font-specification:'Bauhaus 93, ';text-align:center;text-anchor:middle;stroke-width:0.264583"
         transform="translate(-1.0271992e-6)" />
      <path
         d="m 136.75116,70.606689 v -1.550288 q 0,-1.353918 0.67179,-2.139397 0.67696,-0.785479 1.83968,-0.785479 1.16272,0 1.83967,0.785479 0.67696,0.785479 0.67696,2.139397 v 1.550288 q 0,1.353919 -0.67696,2.144566 -0.67695,0.785479 -1.83967,0.785479 -1.16272,0 -1.83968,-0.785479 -0.67179,-0.790647 -0.67179,-2.144566 z m 2.01021,-1.963698 V 71.0201 q 0,0.645953 0.50126,0.645953 0.50643,0 0.50643,-0.645953 v -2.377109 q 0,-0.645953 -0.50643,-0.645953 -0.50126,0 -0.50126,0.645953 z m 4.00491,1.963698 v -1.550288 q 0,-1.353918 0.67179,-2.139397 0.67696,-0.785479 1.83968,-0.785479 1.16271,0 1.83967,0.785479 0.67696,0.785479 0.67696,2.139397 v 1.550288 q 0,1.353919 -0.67696,2.144566 -0.67696,0.785479 -1.83967,0.785479 -1.16272,0 -1.83968,-0.785479 -0.67179,-0.790647 -0.67179,-2.144566 z m 2.01021,-1.963698 V 71.0201 q 0,0.645953 0.50126,0.645953 0.50642,0 0.50642,-0.645953 v -2.377109 q 0,-0.645953 -0.50642,-0.645953 -0.50126,0 -0.50126,0.645953 z m 7.52406,-2.335767 v 7.053811 h -1.99987 v -7.053811 z m 26.30839,4.299465 v -1.550288 q 0,-1.353918 0.67179,-2.139397 0.67696,-0.785479 1.83968,-0.785479 1.16271,0 1.83967,0.785479 0.67696,0.785479 0.67696,2.139397 v 1.550288 q 0,1.353919 -0.67696,2.144566 -0.67696,0.785479 -1.83967,0.785479 -1.16272,0 -1.83968,-0.785479 -0.67179,-0.790647 -0.67179,-2.144566 z m 2.01021,-1.963698 V 71.0201 q 0,0.645953 0.50126,0.645953 0.50642,0 0.50642,-0.645953 v -2.377109 q 0,-0.645953 -0.50642,-0.645953 -0.50126,0 -0.50126,0.645953 z"
         id="path15"
         style="font-size:10.5833px;line-height:0.95;font-family:'Bauhaus 93';-inkscape-font-specification:'Bauhaus 93, ';text-align:center;text-anchor:middle;stroke-width:0.264583"
         transform="translate(-1.0271992e-6)" />
      <path
         d="m 139.90858,76.361359 v 7.05381 h -1.99987 v -7.05381 z m 6.01512,0 v 7.05381 h -1.99987 v -7.05381 z m 24.53589,0 v 7.05381 h -1.99987 v -7.05381 z m 2.49597,4.299465 v -1.550288 q 0,-1.353918 0.67179,-2.139398 0.67696,-0.785479 1.83967,-0.785479 1.16272,0 1.83968,0.785479 0.67696,0.78548 0.67696,2.139398 v 1.550288 q 0,1.353918 -0.67696,2.144565 -0.67696,0.785479 -1.83968,0.785479 -1.16271,0 -1.83967,-0.785479 -0.67179,-0.790647 -0.67179,-2.144565 z m 2.0102,-1.963698 v 2.377108 q 0,0.645953 0.50126,0.645953 0.50643,0 0.50643,-0.645953 v -2.377108 q 0,-0.645954 -0.50643,-0.645954 -0.50126,0 -0.50126,0.645954 z m 4.00491,1.963698 v -1.550288 q 0,-1.353918 0.6718,-2.139398 0.67696,-0.785479 1.83967,-0.785479 1.16272,0 1.83968,0.785479 0.67696,0.78548 0.67696,2.139398 v 1.550288 q 0,1.353918 -0.67696,2.144565 -0.67696,0.785479 -1.83968,0.785479 -1.16271,0 -1.83967,-0.785479 -0.6718,-0.790647 -0.6718,-2.144565 z m 2.01021,-1.963698 v 2.377108 q 0,0.645953 0.50126,0.645953 0.50643,0 0.50643,-0.645953 v -2.377108 q 0,-0.645954 -0.50643,-0.645954 -0.50126,0 -0.50126,0.645954 z"
         id="path16"
         style="font-size:10.5833px;line-height:0.95;font-family:'Bauhaus 93';-inkscape-font-specification:'Bauhaus 93, ';text-align:center;text-anchor:middle;stroke-width:0.264583"
         transform="translate(-1.0271992e-6)" />
      <path
         d="m 139.90858,86.415493 v 7.053811 h -1.99987 v -7.053811 z m 6.01512,0 v 7.053811 h -1.99987 v -7.053811 z m 21.01674,4.299466 v -1.550288 q 0,-1.353919 0.67179,-2.139398 0.67696,-0.785479 1.83968,-0.785479 1.16271,0 1.83967,0.785479 0.67696,0.785479 0.67696,2.139398 v 1.550288 q 0,1.353918 -0.67696,2.144565 -0.67696,0.785479 -1.83967,0.785479 -1.16272,0 -1.83968,-0.785479 -0.67179,-0.790647 -0.67179,-2.144565 z m 2.01021,-1.963699 v 2.377109 q 0,0.645953 0.50126,0.645953 0.50642,0 0.50642,-0.645953 V 88.75126 q 0,-0.645953 -0.50642,-0.645953 -0.50126,0 -0.50126,0.645953 z m 7.52406,-2.335767 v 7.053811 h -1.99987 v -7.053811 z m 6.01512,0 v 7.053811 h -1.99987 v -7.053811 z"
         id="path17"
         style="font-size:10.5833px;line-height:0.95;font-family:'Bauhaus 93';-inkscape-font-specification:'Bauhaus 93, ';text-align:center;text-anchor:middle;stroke-width:0.264583"
         transform="translate(-1.0271992e-6)" />
    </g>
  </g>
</svg>
