<?xml version="1.0" encoding="UTF-8" standalone="no"?>
<!-- Created with Inkscape (http://www.inkscape.org/) -->

<svg
   width="32.278267mm"
   height="32.278252mm"
   viewBox="0 0 32.278267 32.278252"
   version="1.1"
   id="svg1"
   inkscape:version="1.4 (86a8ad7, 2024-10-11)"
   sodipodi:docname="favicon.svg"
   xmlns:inkscape="http://www.inkscape.org/namespaces/inkscape"
   xmlns:sodipodi="http://sodipodi.sourceforge.net/DTD/sodipodi-0.dtd"
   xmlns:xlink="http://www.w3.org/1999/xlink"
   xmlns="http://www.w3.org/2000/svg"
   xmlns:svg="http://www.w3.org/2000/svg">
  <sodipodi:namedview
     id="namedview1"
     pagecolor="#ffffff"
     bordercolor="#666666"
     borderopacity="1.0"
     inkscape:showpageshadow="2"
     inkscape:pageopacity="0.0"
     inkscape:pagecheckerboard="true"
     inkscape:deskcolor="#d1d1d1"
     inkscape:document-units="mm"
     inkscape:zoom="1.9552971"
     inkscape:cx="-49.60883"
     inkscape:cy="114.04917"
     inkscape:window-width="3840"
     inkscape:window-height="2050"
     inkscape:window-x="3348"
     inkscape:window-y="-12"
     inkscape:window-maximized="1"
     inkscape:current-layer="layer1" />
  <defs
     id="defs1">
    <linearGradient
       id="linearGradient10"
       inkscape:collect="always">
      <stop
         style="stop-color:#636363;stop-opacity:1;"
         offset="0"
         id="stop10" />
      <stop
         style="stop-color:#b1b1b1;stop-opacity:1;"
         offset="1"
         id="stop11" />
    </linearGradient>
    <inkscape:path-effect
       effect="tiling"
       id="path-effect10"
       is_visible="true"
       lpeversion="1.3.1"
       unit="px"
       seed="1;1"
       lpesatellites=""
       num_rows="15"
       num_cols="15"
       gapx="3"
       gapy="3"
       offset="0"
       offset_type="false"
       scale="0"
       rotate="0"
       mirrorrowsx="false"
       mirrorrowsy="false"
       mirrorcolsx="false"
       mirrorcolsy="false"
       mirrortrans="false"
       shrink_interp="false"
       split_items="false"
       link_styles="false"
       interpolate_scalex="false"
       interpolate_scaley="true"
       interpolate_rotatex="false"
       interpolate_rotatey="true"
       random_scale="false"
       random_rotate="false"
       random_gap_y="false"
       random_gap_x="false"
       transformorigin="" />
    <linearGradient
       id="linearGradient5"
       inkscape:collect="always">
      <stop
         style="stop-color:#6ee7ff;stop-opacity:1;"
         offset="0"
         id="stop5" />
      <stop
         style="stop-color:#89b4ee;stop-opacity:1;"
         offset="1"
         id="stop6" />
    </linearGradient>
    <linearGradient
       id="linearGradient3"
       inkscape:collect="always">
      <stop
         style="stop-color:#dcbcff;stop-opacity:1;"
         offset="0"
         id="stop3" />
      <stop
         style="stop-color:#a78bfa;stop-opacity:1;"
         offset="1"
         id="stop4" />
    </linearGradient>
    <linearGradient
       inkscape:collect="always"
       xlink:href="#linearGradient3"
       id="linearGradient4"
       x1="100.39742"
       y1="102.90791"
       x2="116.84531"
       y2="140.49199"
       gradientUnits="userSpaceOnUse" />
    <linearGradient
       inkscape:collect="always"
       xlink:href="#linearGradient5"
       id="linearGradient6"
       x1="88.293839"
       y1="132.06854"
       x2="88.307274"
       y2="102.43432"
       gradientUnits="userSpaceOnUse" />
    <linearGradient
       inkscape:collect="always"
       xlink:href="#linearGradient10"
       id="linearGradient11"
       x1="84.369644"
       y1="130.17146"
       x2="117.68586"
       y2="162.03842"
       gradientUnits="userSpaceOnUse" />
    <linearGradient
       inkscape:collect="always"
       xlink:href="#linearGradient3"
       id="linearGradient1"
       gradientUnits="userSpaceOnUse"
       x1="100.39742"
       y1="102.90791"
       x2="116.84531"
       y2="140.49199" />
  </defs>
  <g
     inkscape:label="Layer 1"
     inkscape:groupmode="layer"
     id="layer1"
     transform="translate(-80.679504,-100.97698)">
    <path
       id="path7"
       style="fill:url(#linearGradient1);fill-opacity:1;stroke-width:0.264999;stroke-linecap:round;stroke-linejoin:round;stroke-miterlimit:9"
       d="m 84.976208,102.16379 c -1.722772,0 -3.109887,1.3866 -3.109887,3.10937 v 23.68589 c 0,1.72278 1.387115,3.10937 3.109887,3.10937 h 7.471379 16.213993 c 1.72278,0 3.10938,-1.38659 3.10938,-3.10937 v -23.68589 c 0,-1.72277 -1.3866,-3.10937 -3.10938,-3.10937 h -7.93905 z"
       inkscape:label="base_area" />
    <path
       id="path8"
       style="fill:#180355;fill-opacity:1;stroke:#ffffff;stroke-width:2.565;stroke-linecap:round;stroke-linejoin:round;stroke-miterlimit:9;stroke-dasharray:none;stroke-opacity:1"
       d="m 85.05199,102.25948 c -1.711747,0 -3.089986,1.37772 -3.089986,3.08947 v 23.53431 c 0,1.71176 1.378239,3.08947 3.089986,3.08947 h 7.423568 16.110232 c 1.71176,0 3.08948,-1.37771 3.08948,-3.08947 v -23.53431 c 0,-1.71175 -1.37772,-3.08947 -3.08948,-3.08947 h -7.88824 z"
       inkscape:label="blue_border" />
    <path
       id="rect1"
       style="fill:url(#linearGradient4);fill-opacity:1;stroke-width:0.264999;stroke-linecap:round;stroke-linejoin:round;stroke-miterlimit:9"
       d="m 100.72253,102.16379 -8.274943,29.90463 h 16.213993 c 1.72278,0 3.10938,-1.38659 3.10938,-3.10937 v -23.68589 c 0,-1.72277 -1.3866,-3.10937 -3.10938,-3.10937 z"
       sodipodi:nodetypes="ccssssc" />
    <path
       id="path1"
       style="font-variation-settings:normal;opacity:1;vector-effect:none;fill:url(#linearGradient6);fill-opacity:1;stroke:none;stroke-width:0.264583px;stroke-linecap:butt;stroke-linejoin:miter;stroke-miterlimit:4;stroke-dasharray:none;stroke-dashoffset:0;stroke-opacity:1;-inkscape-stroke:none;stop-color:#000000;stop-opacity:1"
       d="m 84.976208,102.16379 c -1.722772,0 -3.109887,1.3866 -3.109887,3.10937 v 23.68589 c 0,1.72278 1.387115,3.10937 3.109887,3.10937 h 7.471379 l 8.274943,-29.90463 z" />
    <path
       style="mix-blend-mode:overlay;fill:url(#linearGradient11);stroke:none;stroke-width:2.565;stroke-linecap:round;stroke-linejoin:round;stroke-miterlimit:9;stroke-dasharray:none;stroke-opacity:1"
       id="path10"
       inkscape:path-effect="#path-effect10"
       sodipodi:type="arc"
       sodipodi:cx="84.065178"
       sodipodi:cy="129.90353"
       sodipodi:rx="0.60048068"
       sodipodi:ry="0.60048068"
       d="m 84.665659,129.90353 c 0,0.33164 -0.268845,0.60048 -0.600481,0.60048 -0.331636,0 -0.600481,-0.26884 -0.600481,-0.60048 0,-0.33163 0.268845,-0.60048 0.600481,-0.60048 0.331636,0 0.600481,0.26885 0.600481,0.60048 z m 1.994711,0 c 0,0.33164 -0.268844,0.60048 -0.600481,0.60048 -0.331636,0 -0.60048,-0.26884 -0.60048,-0.60048 0,-0.33163 0.268844,-0.60048 0.60048,-0.60048 0.331637,0 0.600481,0.26885 0.600481,0.60048 z m 1.994711,0 c 0,0.33164 -0.268844,0.60048 -0.60048,0.60048 -0.331637,0 -0.600481,-0.26884 -0.600481,-0.60048 0,-0.33163 0.268844,-0.60048 0.600481,-0.60048 0.331636,0 0.60048,0.26885 0.60048,0.60048 z m 1.994712,0 c 0,0.33164 -0.268845,0.60048 -0.600481,0.60048 -0.331636,0 -0.600481,-0.26884 -0.600481,-0.60048 0,-0.33163 0.268845,-0.60048 0.600481,-0.60048 0.331636,0 0.600481,0.26885 0.600481,0.60048 z m 1.994711,0 c 0,0.33164 -0.268844,0.60048 -0.600481,0.60048 -0.331636,0 -0.60048,-0.26884 -0.60048,-0.60048 0,-0.33163 0.268844,-0.60048 0.60048,-0.60048 0.331637,0 0.600481,0.26885 0.600481,0.60048 z m 1.994711,0 c 0,0.33164 -0.268844,0.60048 -0.60048,0.60048 -0.331637,0 -0.600481,-0.26884 -0.600481,-0.60048 0,-0.33163 0.268844,-0.60048 0.600481,-0.60048 0.331636,0 0.60048,0.26885 0.60048,0.60048 z m 1.994712,0 c 0,0.33164 -0.268845,0.60048 -0.600481,0.60048 -0.331636,0 -0.600481,-0.26884 -0.600481,-0.60048 0,-0.33163 0.268845,-0.60048 0.600481,-0.60048 0.331636,0 0.600481,0.26885 0.600481,0.60048 z m 1.994711,0 c 0,0.33164 -0.268844,0.60048 -0.600481,0.60048 -0.331636,0 -0.60048,-0.26884 -0.60048,-0.60048 0,-0.33163 0.268844,-0.60048 0.60048,-0.60048 0.331637,0 0.600481,0.26885 0.600481,0.60048 z m 1.994712,0 c 0,0.33164 -0.26884,0.60048 -0.60048,0.60048 -0.331637,0 -0.600482,-0.26884 -0.600482,-0.60048 0,-0.33163 0.268845,-0.60048 0.600482,-0.60048 0.33164,0 0.60048,0.26885 0.60048,0.60048 z m 1.99471,0 c 0,0.33164 -0.26884,0.60048 -0.60048,0.60048 -0.33164,0 -0.60048,-0.26884 -0.60048,-0.60048 0,-0.33163 0.26884,-0.60048 0.60048,-0.60048 0.33164,0 0.60048,0.26885 0.60048,0.60048 z m 1.99471,0 c 0,0.33164 -0.26884,0.60048 -0.60048,0.60048 -0.33163,0 -0.60048,-0.26884 -0.60048,-0.60048 0,-0.33163 0.26885,-0.60048 0.60048,-0.60048 0.33164,0 0.60048,0.26885 0.60048,0.60048 z m 1.99471,0 c 0,0.33164 -0.26884,0.60048 -0.60048,0.60048 -0.33163,0 -0.60048,-0.26884 -0.60048,-0.60048 0,-0.33163 0.26885,-0.60048 0.60048,-0.60048 0.33164,0 0.60048,0.26885 0.60048,0.60048 z m 1.99471,0 c 0,0.33164 -0.26884,0.60048 -0.60048,0.60048 -0.33163,0 -0.60048,-0.26884 -0.60048,-0.60048 0,-0.33163 0.26885,-0.60048 0.60048,-0.60048 0.33164,0 0.60048,0.26885 0.60048,0.60048 z m 1.99472,0 c 0,0.33164 -0.26885,0.60048 -0.60048,0.60048 -0.33164,0 -0.60048,-0.26884 -0.60048,-0.60048 0,-0.33163 0.26884,-0.60048 0.60048,-0.60048 0.33163,0 0.60048,0.26885 0.60048,0.60048 z m 1.99471,0 c 0,0.33164 -0.26885,0.60048 -0.60048,0.60048 -0.33164,0 -0.60048,-0.26884 -0.60048,-0.60048 0,-0.33163 0.26884,-0.60048 0.60048,-0.60048 0.33163,0 0.60048,0.26885 0.60048,0.60048 z m -27.925961,1.99472 c 0,0.33163 -0.268845,0.60048 -0.600481,0.60048 -0.331636,0 -0.600481,-0.26885 -0.600481,-0.60048 0,-0.33164 0.268845,-0.60049 0.600481,-0.60049 0.331636,0 0.600481,0.26885 0.600481,0.60049 z m 1.994711,0 c 0,0.33163 -0.268844,0.60048 -0.600481,0.60048 -0.331636,0 -0.60048,-0.26885 -0.60048,-0.60048 0,-0.33164 0.268844,-0.60049 0.60048,-0.60049 0.331637,0 0.600481,0.26885 0.600481,0.60049 z m 1.994711,0 c 0,0.33163 -0.268844,0.60048 -0.60048,0.60048 -0.331637,0 -0.600481,-0.26885 -0.600481,-0.60048 0,-0.33164 0.268844,-0.60049 0.600481,-0.60049 0.331636,0 0.60048,0.26885 0.60048,0.60049 z m 1.994712,0 c 0,0.33163 -0.268845,0.60048 -0.600481,0.60048 -0.331636,0 -0.600481,-0.26885 -0.600481,-0.60048 0,-0.33164 0.268845,-0.60049 0.600481,-0.60049 0.331636,0 0.600481,0.26885 0.600481,0.60049 z m 1.994711,0 c 0,0.33163 -0.268844,0.60048 -0.600481,0.60048 -0.331636,0 -0.60048,-0.26885 -0.60048,-0.60048 0,-0.33164 0.268844,-0.60049 0.60048,-0.60049 0.331637,0 0.600481,0.26885 0.600481,0.60049 z m 1.994711,0 c 0,0.33163 -0.268844,0.60048 -0.60048,0.60048 -0.331637,0 -0.600481,-0.26885 -0.600481,-0.60048 0,-0.33164 0.268844,-0.60049 0.600481,-0.60049 0.331636,0 0.60048,0.26885 0.60048,0.60049 z m 1.994712,0 c 0,0.33163 -0.268845,0.60048 -0.600481,0.60048 -0.331636,0 -0.600481,-0.26885 -0.600481,-0.60048 0,-0.33164 0.268845,-0.60049 0.600481,-0.60049 0.331636,0 0.600481,0.26885 0.600481,0.60049 z m 1.994711,0 c 0,0.33163 -0.268844,0.60048 -0.600481,0.60048 -0.331636,0 -0.60048,-0.26885 -0.60048,-0.60048 0,-0.33164 0.268844,-0.60049 0.60048,-0.60049 0.331637,0 0.600481,0.26885 0.600481,0.60049 z m 1.994712,0 c 0,0.33163 -0.26884,0.60048 -0.60048,0.60048 -0.331637,0 -0.600482,-0.26885 -0.600482,-0.60048 0,-0.33164 0.268845,-0.60049 0.600482,-0.60049 0.33164,0 0.60048,0.26885 0.60048,0.60049 z m 1.99471,0 c 0,0.33163 -0.26884,0.60048 -0.60048,0.60048 -0.33164,0 -0.60048,-0.26885 -0.60048,-0.60048 0,-0.33164 0.26884,-0.60049 0.60048,-0.60049 0.33164,0 0.60048,0.26885 0.60048,0.60049 z m 1.99471,0 c 0,0.33163 -0.26884,0.60048 -0.60048,0.60048 -0.33163,0 -0.60048,-0.26885 -0.60048,-0.60048 0,-0.33164 0.26885,-0.60049 0.60048,-0.60049 0.33164,0 0.60048,0.26885 0.60048,0.60049 z m 1.99471,0 c 0,0.33163 -0.26884,0.60048 -0.60048,0.60048 -0.33163,0 -0.60048,-0.26885 -0.60048,-0.60048 0,-0.33164 0.26885,-0.60049 0.60048,-0.60049 0.33164,0 0.60048,0.26885 0.60048,0.60049 z m 1.99471,0 c 0,0.33163 -0.26884,0.60048 -0.60048,0.60048 -0.33163,0 -0.60048,-0.26885 -0.60048,-0.60048 0,-0.33164 0.26885,-0.60049 0.60048,-0.60049 0.33164,0 0.60048,0.26885 0.60048,0.60049 z m 1.99472,0 c 0,0.33163 -0.26885,0.60048 -0.60048,0.60048 -0.33164,0 -0.60048,-0.26885 -0.60048,-0.60048 0,-0.33164 0.26884,-0.60049 0.60048,-0.60049 0.33163,0 0.60048,0.26885 0.60048,0.60049 z m 1.99471,0 c 0,0.33163 -0.26885,0.60048 -0.60048,0.60048 -0.33164,0 -0.60048,-0.26885 -0.60048,-0.60048 0,-0.33164 0.26884,-0.60049 0.60048,-0.60049 0.33163,0 0.60048,0.26885 0.60048,0.60049 z m -27.925961,1.99471 c 0,0.33163 -0.268845,0.60048 -0.600481,0.60048 -0.331636,0 -0.600481,-0.26885 -0.600481,-0.60048 0,-0.33164 0.268845,-0.60048 0.600481,-0.60048 0.331636,0 0.600481,0.26884 0.600481,0.60048 z m 1.994711,0 c 0,0.33163 -0.268844,0.60048 -0.600481,0.60048 -0.331636,0 -0.60048,-0.26885 -0.60048,-0.60048 0,-0.33164 0.268844,-0.60048 0.60048,-0.60048 0.331637,0 0.600481,0.26884 0.600481,0.60048 z m 1.994711,0 c 0,0.33163 -0.268844,0.60048 -0.60048,0.60048 -0.331637,0 -0.600481,-0.26885 -0.600481,-0.60048 0,-0.33164 0.268844,-0.60048 0.600481,-0.60048 0.331636,0 0.60048,0.26884 0.60048,0.60048 z m 1.994712,0 c 0,0.33163 -0.268845,0.60048 -0.600481,0.60048 -0.331636,0 -0.600481,-0.26885 -0.600481,-0.60048 0,-0.33164 0.268845,-0.60048 0.600481,-0.60048 0.331636,0 0.600481,0.26884 0.600481,0.60048 z m 1.994711,0 c 0,0.33163 -0.268844,0.60048 -0.600481,0.60048 -0.331636,0 -0.60048,-0.26885 -0.60048,-0.60048 0,-0.33164 0.268844,-0.60048 0.60048,-0.60048 0.331637,0 0.600481,0.26884 0.600481,0.60048 z m 1.994711,0 c 0,0.33163 -0.268844,0.60048 -0.60048,0.60048 -0.331637,0 -0.600481,-0.26885 -0.600481,-0.60048 0,-0.33164 0.268844,-0.60048 0.600481,-0.60048 0.331636,0 0.60048,0.26884 0.60048,0.60048 z m 1.994712,0 c 0,0.33163 -0.268845,0.60048 -0.600481,0.60048 -0.331636,0 -0.600481,-0.26885 -0.600481,-0.60048 0,-0.33164 0.268845,-0.60048 0.600481,-0.60048 0.331636,0 0.600481,0.26884 0.600481,0.60048 z m 1.994711,0 c 0,0.33163 -0.268844,0.60048 -0.600481,0.60048 -0.331636,0 -0.60048,-0.26885 -0.60048,-0.60048 0,-0.33164 0.268844,-0.60048 0.60048,-0.60048 0.331637,0 0.600481,0.26884 0.600481,0.60048 z m 1.994712,0 c 0,0.33163 -0.26884,0.60048 -0.60048,0.60048 -0.331637,0 -0.600482,-0.26885 -0.600482,-0.60048 0,-0.33164 0.268845,-0.60048 0.600482,-0.60048 0.33164,0 0.60048,0.26884 0.60048,0.60048 z m 1.99471,0 c 0,0.33163 -0.26884,0.60048 -0.60048,0.60048 -0.33164,0 -0.60048,-0.26885 -0.60048,-0.60048 0,-0.33164 0.26884,-0.60048 0.60048,-0.60048 0.33164,0 0.60048,0.26884 0.60048,0.60048 z m 1.99471,0 c 0,0.33163 -0.26884,0.60048 -0.60048,0.60048 -0.33163,0 -0.60048,-0.26885 -0.60048,-0.60048 0,-0.33164 0.26885,-0.60048 0.60048,-0.60048 0.33164,0 0.60048,0.26884 0.60048,0.60048 z m 1.99471,0 c 0,0.33163 -0.26884,0.60048 -0.60048,0.60048 -0.33163,0 -0.60048,-0.26885 -0.60048,-0.60048 0,-0.33164 0.26885,-0.60048 0.60048,-0.60048 0.33164,0 0.60048,0.26884 0.60048,0.60048 z m 1.99471,0 c 0,0.33163 -0.26884,0.60048 -0.60048,0.60048 -0.33163,0 -0.60048,-0.26885 -0.60048,-0.60048 0,-0.33164 0.26885,-0.60048 0.60048,-0.60048 0.33164,0 0.60048,0.26884 0.60048,0.60048 z m 1.99472,0 c 0,0.33163 -0.26885,0.60048 -0.60048,0.60048 -0.33164,0 -0.60048,-0.26885 -0.60048,-0.60048 0,-0.33164 0.26884,-0.60048 0.60048,-0.60048 0.33163,0 0.60048,0.26884 0.60048,0.60048 z m 1.99471,0 c 0,0.33163 -0.26885,0.60048 -0.60048,0.60048 -0.33164,0 -0.60048,-0.26885 -0.60048,-0.60048 0,-0.33164 0.26884,-0.60048 0.60048,-0.60048 0.33163,0 0.60048,0.26884 0.60048,0.60048 z m -27.925961,1.99471 c 0,0.33163 -0.268845,0.60048 -0.600481,0.60048 -0.331636,0 -0.600481,-0.26885 -0.600481,-0.60048 0,-0.33164 0.268845,-0.60048 0.600481,-0.60048 0.331636,0 0.600481,0.26884 0.600481,0.60048 z m 1.994711,0 c 0,0.33163 -0.268844,0.60048 -0.600481,0.60048 -0.331636,0 -0.60048,-0.26885 -0.60048,-0.60048 0,-0.33164 0.268844,-0.60048 0.60048,-0.60048 0.331637,0 0.600481,0.26884 0.600481,0.60048 z m 1.994711,0 c 0,0.33163 -0.268844,0.60048 -0.60048,0.60048 -0.331637,0 -0.600481,-0.26885 -0.600481,-0.60048 0,-0.33164 0.268844,-0.60048 0.600481,-0.60048 0.331636,0 0.60048,0.26884 0.60048,0.60048 z m 1.994712,0 c 0,0.33163 -0.268845,0.60048 -0.600481,0.60048 -0.331636,0 -0.600481,-0.26885 -0.600481,-0.60048 0,-0.33164 0.268845,-0.60048 0.600481,-0.60048 0.331636,0 0.600481,0.26884 0.600481,0.60048 z m 1.994711,0 c 0,0.33163 -0.268844,0.60048 -0.600481,0.60048 -0.331636,0 -0.60048,-0.26885 -0.60048,-0.60048 0,-0.33164 0.268844,-0.60048 0.60048,-0.60048 0.331637,0 0.600481,0.26884 0.600481,0.60048 z m 1.994711,0 c 0,0.33163 -0.268844,0.60048 -0.60048,0.60048 -0.331637,0 -0.600481,-0.26885 -0.600481,-0.60048 0,-0.33164 0.268844,-0.60048 0.600481,-0.60048 0.331636,0 0.60048,0.26884 0.60048,0.60048 z m 1.994712,0 c 0,0.33163 -0.268845,0.60048 -0.600481,0.60048 -0.331636,0 -0.600481,-0.26885 -0.600481,-0.60048 0,-0.33164 0.268845,-0.60048 0.600481,-0.60048 0.331636,0 0.600481,0.26884 0.600481,0.60048 z m 1.994711,0 c 0,0.33163 -0.268844,0.60048 -0.600481,0.60048 -0.331636,0 -0.60048,-0.26885 -0.60048,-0.60048 0,-0.33164 0.268844,-0.60048 0.60048,-0.60048 0.331637,0 0.600481,0.26884 0.600481,0.60048 z m 1.994712,0 c 0,0.33163 -0.26884,0.60048 -0.60048,0.60048 -0.331637,0 -0.600482,-0.26885 -0.600482,-0.60048 0,-0.33164 0.268845,-0.60048 0.600482,-0.60048 0.33164,0 0.60048,0.26884 0.60048,0.60048 z m 1.99471,0 c 0,0.33163 -0.26884,0.60048 -0.60048,0.60048 -0.33164,0 -0.60048,-0.26885 -0.60048,-0.60048 0,-0.33164 0.26884,-0.60048 0.60048,-0.60048 0.33164,0 0.60048,0.26884 0.60048,0.60048 z m 1.99471,0 c 0,0.33163 -0.26884,0.60048 -0.60048,0.60048 -0.33163,0 -0.60048,-0.26885 -0.60048,-0.60048 0,-0.33164 0.26885,-0.60048 0.60048,-0.60048 0.33164,0 0.60048,0.26884 0.60048,0.60048 z m 1.99471,0 c 0,0.33163 -0.26884,0.60048 -0.60048,0.60048 -0.33163,0 -0.60048,-0.26885 -0.60048,-0.60048 0,-0.33164 0.26885,-0.60048 0.60048,-0.60048 0.33164,0 0.60048,0.26884 0.60048,0.60048 z m 1.99471,0 c 0,0.33163 -0.26884,0.60048 -0.60048,0.60048 -0.33163,0 -0.60048,-0.26885 -0.60048,-0.60048 0,-0.33164 0.26885,-0.60048 0.60048,-0.60048 0.33164,0 0.60048,0.26884 0.60048,0.60048 z m 1.99472,0 c 0,0.33163 -0.26885,0.60048 -0.60048,0.60048 -0.33164,0 -0.60048,-0.26885 -0.60048,-0.60048 0,-0.33164 0.26884,-0.60048 0.60048,-0.60048 0.33163,0 0.60048,0.26884 0.60048,0.60048 z m 1.99471,0 c 0,0.33163 -0.26885,0.60048 -0.60048,0.60048 -0.33164,0 -0.60048,-0.26885 -0.60048,-0.60048 0,-0.33164 0.26884,-0.60048 0.60048,-0.60048 0.33163,0 0.60048,0.26884 0.60048,0.60048 z m -27.925961,1.99471 c 0,0.33164 -0.268845,0.60048 -0.600481,0.60048 -0.331636,0 -0.600481,-0.26884 -0.600481,-0.60048 0,-0.33164 0.268845,-0.60048 0.600481,-0.60048 0.331636,0 0.600481,0.26884 0.600481,0.60048 z m 1.994711,0 c 0,0.33164 -0.268844,0.60048 -0.600481,0.60048 -0.331636,0 -0.60048,-0.26884 -0.60048,-0.60048 0,-0.33164 0.268844,-0.60048 0.60048,-0.60048 0.331637,0 0.600481,0.26884 0.600481,0.60048 z m 1.994711,0 c 0,0.33164 -0.268844,0.60048 -0.60048,0.60048 -0.331637,0 -0.600481,-0.26884 -0.600481,-0.60048 0,-0.33164 0.268844,-0.60048 0.600481,-0.60048 0.331636,0 0.60048,0.26884 0.60048,0.60048 z m 1.994712,0 c 0,0.33164 -0.268845,0.60048 -0.600481,0.60048 -0.331636,0 -0.600481,-0.26884 -0.600481,-0.60048 0,-0.33164 0.268845,-0.60048 0.600481,-0.60048 0.331636,0 0.600481,0.26884 0.600481,0.60048 z m 1.994711,0 c 0,0.33164 -0.268844,0.60048 -0.600481,0.60048 -0.331636,0 -0.60048,-0.26884 -0.60048,-0.60048 0,-0.33164 0.268844,-0.60048 0.60048,-0.60048 0.331637,0 0.600481,0.26884 0.600481,0.60048 z m 1.994711,0 c 0,0.33164 -0.268844,0.60048 -0.60048,0.60048 -0.331637,0 -0.600481,-0.26884 -0.600481,-0.60048 0,-0.33164 0.268844,-0.60048 0.600481,-0.60048 0.331636,0 0.60048,0.26884 0.60048,0.60048 z m 1.994712,0 c 0,0.33164 -0.268845,0.60048 -0.600481,0.60048 -0.331636,0 -0.600481,-0.26884 -0.600481,-0.60048 0,-0.33164 0.268845,-0.60048 0.600481,-0.60048 0.331636,0 0.600481,0.26884 0.600481,0.60048 z m 1.994711,0 c 0,0.33164 -0.268844,0.60048 -0.600481,0.60048 -0.331636,0 -0.60048,-0.26884 -0.60048,-0.60048 0,-0.33164 0.268844,-0.60048 0.60048,-0.60048 0.331637,0 0.600481,0.26884 0.600481,0.60048 z m 1.994712,0 c 0,0.33164 -0.26884,0.60048 -0.60048,0.60048 -0.331637,0 -0.600482,-0.26884 -0.600482,-0.60048 0,-0.33164 0.268845,-0.60048 0.600482,-0.60048 0.33164,0 0.60048,0.26884 0.60048,0.60048 z m 1.99471,0 c 0,0.33164 -0.26884,0.60048 -0.60048,0.60048 -0.33164,0 -0.60048,-0.26884 -0.60048,-0.60048 0,-0.33164 0.26884,-0.60048 0.60048,-0.60048 0.33164,0 0.60048,0.26884 0.60048,0.60048 z m 1.99471,0 c 0,0.33164 -0.26884,0.60048 -0.60048,0.60048 -0.33163,0 -0.60048,-0.26884 -0.60048,-0.60048 0,-0.33164 0.26885,-0.60048 0.60048,-0.60048 0.33164,0 0.60048,0.26884 0.60048,0.60048 z m 1.99471,0 c 0,0.33164 -0.26884,0.60048 -0.60048,0.60048 -0.33163,0 -0.60048,-0.26884 -0.60048,-0.60048 0,-0.33164 0.26885,-0.60048 0.60048,-0.60048 0.33164,0 0.60048,0.26884 0.60048,0.60048 z m 1.99471,0 c 0,0.33164 -0.26884,0.60048 -0.60048,0.60048 -0.33163,0 -0.60048,-0.26884 -0.60048,-0.60048 0,-0.33164 0.26885,-0.60048 0.60048,-0.60048 0.33164,0 0.60048,0.26884 0.60048,0.60048 z m 1.99472,0 c 0,0.33164 -0.26885,0.60048 -0.60048,0.60048 -0.33164,0 -0.60048,-0.26884 -0.60048,-0.60048 0,-0.33164 0.26884,-0.60048 0.60048,-0.60048 0.33163,0 0.60048,0.26884 0.60048,0.60048 z m 1.99471,0 c 0,0.33164 -0.26885,0.60048 -0.60048,0.60048 -0.33164,0 -0.60048,-0.26884 -0.60048,-0.60048 0,-0.33164 0.26884,-0.60048 0.60048,-0.60048 0.33163,0 0.60048,0.26884 0.60048,0.60048 z m -27.925961,1.99471 c 0,0.33164 -0.268845,0.60048 -0.600481,0.60048 -0.331636,0 -0.600481,-0.26884 -0.600481,-0.60048 0,-0.33164 0.268845,-0.60048 0.600481,-0.60048 0.331636,0 0.600481,0.26884 0.600481,0.60048 z m 1.994711,0 c 0,0.33164 -0.268844,0.60048 -0.600481,0.60048 -0.331636,0 -0.60048,-0.26884 -0.60048,-0.60048 0,-0.33164 0.268844,-0.60048 0.60048,-0.60048 0.331637,0 0.600481,0.26884 0.600481,0.60048 z m 1.994711,0 c 0,0.33164 -0.268844,0.60048 -0.60048,0.60048 -0.331637,0 -0.600481,-0.26884 -0.600481,-0.60048 0,-0.33164 0.268844,-0.60048 0.600481,-0.60048 0.331636,0 0.60048,0.26884 0.60048,0.60048 z m 1.994712,0 c 0,0.33164 -0.268845,0.60048 -0.600481,0.60048 -0.331636,0 -0.600481,-0.26884 -0.600481,-0.60048 0,-0.33164 0.268845,-0.60048 0.600481,-0.60048 0.331636,0 0.600481,0.26884 0.600481,0.60048 z m 1.994711,0 c 0,0.33164 -0.268844,0.60048 -0.600481,0.60048 -0.331636,0 -0.60048,-0.26884 -0.60048,-0.60048 0,-0.33164 0.268844,-0.60048 0.60048,-0.60048 0.331637,0 0.600481,0.26884 0.600481,0.60048 z m 1.994711,0 c 0,0.33164 -0.268844,0.60048 -0.60048,0.60048 -0.331637,0 -0.600481,-0.26884 -0.600481,-0.60048 0,-0.33164 0.268844,-0.60048 0.600481,-0.60048 0.331636,0 0.60048,0.26884 0.60048,0.60048 z m 1.994712,0 c 0,0.33164 -0.268845,0.60048 -0.600481,0.60048 -0.331636,0 -0.600481,-0.26884 -0.600481,-0.60048 0,-0.33164 0.268845,-0.60048 0.600481,-0.60048 0.331636,0 0.600481,0.26884 0.600481,0.60048 z m 1.994711,0 c 0,0.33164 -0.268844,0.60048 -0.600481,0.60048 -0.331636,0 -0.60048,-0.26884 -0.60048,-0.60048 0,-0.33164 0.268844,-0.60048 0.60048,-0.60048 0.331637,0 0.600481,0.26884 0.600481,0.60048 z m 1.994712,0 c 0,0.33164 -0.26884,0.60048 -0.60048,0.60048 -0.331637,0 -0.600482,-0.26884 -0.600482,-0.60048 0,-0.33164 0.268845,-0.60048 0.600482,-0.60048 0.33164,0 0.60048,0.26884 0.60048,0.60048 z m 1.99471,0 c 0,0.33164 -0.26884,0.60048 -0.60048,0.60048 -0.33164,0 -0.60048,-0.26884 -0.60048,-0.60048 0,-0.33164 0.26884,-0.60048 0.60048,-0.60048 0.33164,0 0.60048,0.26884 0.60048,0.60048 z m 1.99471,0 c 0,0.33164 -0.26884,0.60048 -0.60048,0.60048 -0.33163,0 -0.60048,-0.26884 -0.60048,-0.60048 0,-0.33164 0.26885,-0.60048 0.60048,-0.60048 0.33164,0 0.60048,0.26884 0.60048,0.60048 z m 1.99471,0 c 0,0.33164 -0.26884,0.60048 -0.60048,0.60048 -0.33163,0 -0.60048,-0.26884 -0.60048,-0.60048 0,-0.33164 0.26885,-0.60048 0.60048,-0.60048 0.33164,0 0.60048,0.26884 0.60048,0.60048 z m 1.99471,0 c 0,0.33164 -0.26884,0.60048 -0.60048,0.60048 -0.33163,0 -0.60048,-0.26884 -0.60048,-0.60048 0,-0.33164 0.26885,-0.60048 0.60048,-0.60048 0.33164,0 0.60048,0.26884 0.60048,0.60048 z m 1.99472,0 c 0,0.33164 -0.26885,0.60048 -0.60048,0.60048 -0.33164,0 -0.60048,-0.26884 -0.60048,-0.60048 0,-0.33164 0.26884,-0.60048 0.60048,-0.60048 0.33163,0 0.60048,0.26884 0.60048,0.60048 z m 1.99471,0 c 0,0.33164 -0.26885,0.60048 -0.60048,0.60048 -0.33164,0 -0.60048,-0.26884 -0.60048,-0.60048 0,-0.33164 0.26884,-0.60048 0.60048,-0.60048 0.33163,0 0.60048,0.26884 0.60048,0.60048 z m -27.925961,1.99471 c 0,0.33164 -0.268845,0.60048 -0.600481,0.60048 -0.331636,0 -0.600481,-0.26884 -0.600481,-0.60048 0,-0.33163 0.268845,-0.60048 0.600481,-0.60048 0.331636,0 0.600481,0.26885 0.600481,0.60048 z m 1.994711,0 c 0,0.33164 -0.268844,0.60048 -0.600481,0.60048 -0.331636,0 -0.60048,-0.26884 -0.60048,-0.60048 0,-0.33163 0.268844,-0.60048 0.60048,-0.60048 0.331637,0 0.600481,0.26885 0.600481,0.60048 z m 1.994711,0 c 0,0.33164 -0.268844,0.60048 -0.60048,0.60048 -0.331637,0 -0.600481,-0.26884 -0.600481,-0.60048 0,-0.33163 0.268844,-0.60048 0.600481,-0.60048 0.331636,0 0.60048,0.26885 0.60048,0.60048 z m 1.994712,0 c 0,0.33164 -0.268845,0.60048 -0.600481,0.60048 -0.331636,0 -0.600481,-0.26884 -0.600481,-0.60048 0,-0.33163 0.268845,-0.60048 0.600481,-0.60048 0.331636,0 0.600481,0.26885 0.600481,0.60048 z m 1.994711,0 c 0,0.33164 -0.268844,0.60048 -0.600481,0.60048 -0.331636,0 -0.60048,-0.26884 -0.60048,-0.60048 0,-0.33163 0.268844,-0.60048 0.60048,-0.60048 0.331637,0 0.600481,0.26885 0.600481,0.60048 z m 1.994711,0 c 0,0.33164 -0.268844,0.60048 -0.60048,0.60048 -0.331637,0 -0.600481,-0.26884 -0.600481,-0.60048 0,-0.33163 0.268844,-0.60048 0.600481,-0.60048 0.331636,0 0.60048,0.26885 0.60048,0.60048 z m 1.994712,0 c 0,0.33164 -0.268845,0.60048 -0.600481,0.60048 -0.331636,0 -0.600481,-0.26884 -0.600481,-0.60048 0,-0.33163 0.268845,-0.60048 0.600481,-0.60048 0.331636,0 0.600481,0.26885 0.600481,0.60048 z m 1.994711,0 c 0,0.33164 -0.268844,0.60048 -0.600481,0.60048 -0.331636,0 -0.60048,-0.26884 -0.60048,-0.60048 0,-0.33163 0.268844,-0.60048 0.60048,-0.60048 0.331637,0 0.600481,0.26885 0.600481,0.60048 z m 1.994712,0 c 0,0.33164 -0.26884,0.60048 -0.60048,0.60048 -0.331637,0 -0.600482,-0.26884 -0.600482,-0.60048 0,-0.33163 0.268845,-0.60048 0.600482,-0.60048 0.33164,0 0.60048,0.26885 0.60048,0.60048 z m 1.99471,0 c 0,0.33164 -0.26884,0.60048 -0.60048,0.60048 -0.33164,0 -0.60048,-0.26884 -0.60048,-0.60048 0,-0.33163 0.26884,-0.60048 0.60048,-0.60048 0.33164,0 0.60048,0.26885 0.60048,0.60048 z m 1.99471,0 c 0,0.33164 -0.26884,0.60048 -0.60048,0.60048 -0.33163,0 -0.60048,-0.26884 -0.60048,-0.60048 0,-0.33163 0.26885,-0.60048 0.60048,-0.60048 0.33164,0 0.60048,0.26885 0.60048,0.60048 z m 1.99471,0 c 0,0.33164 -0.26884,0.60048 -0.60048,0.60048 -0.33163,0 -0.60048,-0.26884 -0.60048,-0.60048 0,-0.33163 0.26885,-0.60048 0.60048,-0.60048 0.33164,0 0.60048,0.26885 0.60048,0.60048 z m 1.99471,0 c 0,0.33164 -0.26884,0.60048 -0.60048,0.60048 -0.33163,0 -0.60048,-0.26884 -0.60048,-0.60048 0,-0.33163 0.26885,-0.60048 0.60048,-0.60048 0.33164,0 0.60048,0.26885 0.60048,0.60048 z m 1.99472,0 c 0,0.33164 -0.26885,0.60048 -0.60048,0.60048 -0.33164,0 -0.60048,-0.26884 -0.60048,-0.60048 0,-0.33163 0.26884,-0.60048 0.60048,-0.60048 0.33163,0 0.60048,0.26885 0.60048,0.60048 z m 1.99471,0 c 0,0.33164 -0.26885,0.60048 -0.60048,0.60048 -0.33164,0 -0.60048,-0.26884 -0.60048,-0.60048 0,-0.33163 0.26884,-0.60048 0.60048,-0.60048 0.33163,0 0.60048,0.26885 0.60048,0.60048 z m -27.925961,1.99471 c 0,0.33164 -0.268845,0.60048 -0.600481,0.60048 -0.331636,0 -0.600481,-0.26884 -0.600481,-0.60048 0,-0.33163 0.268845,-0.60048 0.600481,-0.60048 0.331636,0 0.600481,0.26885 0.600481,0.60048 z m 1.994711,0 c 0,0.33164 -0.268844,0.60048 -0.600481,0.60048 -0.331636,0 -0.60048,-0.26884 -0.60048,-0.60048 0,-0.33163 0.268844,-0.60048 0.60048,-0.60048 0.331637,0 0.600481,0.26885 0.600481,0.60048 z m 1.994711,0 c 0,0.33164 -0.268844,0.60048 -0.60048,0.60048 -0.331637,0 -0.600481,-0.26884 -0.600481,-0.60048 0,-0.33163 0.268844,-0.60048 0.600481,-0.60048 0.331636,0 0.60048,0.26885 0.60048,0.60048 z m 1.994712,0 c 0,0.33164 -0.268845,0.60048 -0.600481,0.60048 -0.331636,0 -0.600481,-0.26884 -0.600481,-0.60048 0,-0.33163 0.268845,-0.60048 0.600481,-0.60048 0.331636,0 0.600481,0.26885 0.600481,0.60048 z m 1.994711,0 c 0,0.33164 -0.268844,0.60048 -0.600481,0.60048 -0.331636,0 -0.60048,-0.26884 -0.60048,-0.60048 0,-0.33163 0.268844,-0.60048 0.60048,-0.60048 0.331637,0 0.600481,0.26885 0.600481,0.60048 z m 1.994711,0 c 0,0.33164 -0.268844,0.60048 -0.60048,0.60048 -0.331637,0 -0.600481,-0.26884 -0.600481,-0.60048 0,-0.33163 0.268844,-0.60048 0.600481,-0.60048 0.331636,0 0.60048,0.26885 0.60048,0.60048 z m 1.994712,0 c 0,0.33164 -0.268845,0.60048 -0.600481,0.60048 -0.331636,0 -0.600481,-0.26884 -0.600481,-0.60048 0,-0.33163 0.268845,-0.60048 0.600481,-0.60048 0.331636,0 0.600481,0.26885 0.600481,0.60048 z m 1.994711,0 c 0,0.33164 -0.268844,0.60048 -0.600481,0.60048 -0.331636,0 -0.60048,-0.26884 -0.60048,-0.60048 0,-0.33163 0.268844,-0.60048 0.60048,-0.60048 0.331637,0 0.600481,0.26885 0.600481,0.60048 z m 1.994712,0 c 0,0.33164 -0.26884,0.60048 -0.60048,0.60048 -0.331637,0 -0.600482,-0.26884 -0.600482,-0.60048 0,-0.33163 0.268845,-0.60048 0.600482,-0.60048 0.33164,0 0.60048,0.26885 0.60048,0.60048 z m 1.99471,0 c 0,0.33164 -0.26884,0.60048 -0.60048,0.60048 -0.33164,0 -0.60048,-0.26884 -0.60048,-0.60048 0,-0.33163 0.26884,-0.60048 0.60048,-0.60048 0.33164,0 0.60048,0.26885 0.60048,0.60048 z m 1.99471,0 c 0,0.33164 -0.26884,0.60048 -0.60048,0.60048 -0.33163,0 -0.60048,-0.26884 -0.60048,-0.60048 0,-0.33163 0.26885,-0.60048 0.60048,-0.60048 0.33164,0 0.60048,0.26885 0.60048,0.60048 z m 1.99471,0 c 0,0.33164 -0.26884,0.60048 -0.60048,0.60048 -0.33163,0 -0.60048,-0.26884 -0.60048,-0.60048 0,-0.33163 0.26885,-0.60048 0.60048,-0.60048 0.33164,0 0.60048,0.26885 0.60048,0.60048 z m 1.99471,0 c 0,0.33164 -0.26884,0.60048 -0.60048,0.60048 -0.33163,0 -0.60048,-0.26884 -0.60048,-0.60048 0,-0.33163 0.26885,-0.60048 0.60048,-0.60048 0.33164,0 0.60048,0.26885 0.60048,0.60048 z m 1.99472,0 c 0,0.33164 -0.26885,0.60048 -0.60048,0.60048 -0.33164,0 -0.60048,-0.26884 -0.60048,-0.60048 0,-0.33163 0.26884,-0.60048 0.60048,-0.60048 0.33163,0 0.60048,0.26885 0.60048,0.60048 z m 1.99471,0 c 0,0.33164 -0.26885,0.60048 -0.60048,0.60048 -0.33164,0 -0.60048,-0.26884 -0.60048,-0.60048 0,-0.33163 0.26884,-0.60048 0.60048,-0.60048 0.33163,0 0.60048,0.26885 0.60048,0.60048 z m -27.925961,1.99471 c 0,0.33164 -0.268845,0.60049 -0.600481,0.60049 -0.331636,0 -0.600481,-0.26885 -0.600481,-0.60049 0,-0.33163 0.268845,-0.60048 0.600481,-0.60048 0.331636,0 0.600481,0.26885 0.600481,0.60048 z m 1.994711,0 c 0,0.33164 -0.268844,0.60049 -0.600481,0.60049 -0.331636,0 -0.60048,-0.26885 -0.60048,-0.60049 0,-0.33163 0.268844,-0.60048 0.60048,-0.60048 0.331637,0 0.600481,0.26885 0.600481,0.60048 z m 1.994711,0 c 0,0.33164 -0.268844,0.60049 -0.60048,0.60049 -0.331637,0 -0.600481,-0.26885 -0.600481,-0.60049 0,-0.33163 0.268844,-0.60048 0.600481,-0.60048 0.331636,0 0.60048,0.26885 0.60048,0.60048 z m 1.994712,0 c 0,0.33164 -0.268845,0.60049 -0.600481,0.60049 -0.331636,0 -0.600481,-0.26885 -0.600481,-0.60049 0,-0.33163 0.268845,-0.60048 0.600481,-0.60048 0.331636,0 0.600481,0.26885 0.600481,0.60048 z m 1.994711,0 c 0,0.33164 -0.268844,0.60049 -0.600481,0.60049 -0.331636,0 -0.60048,-0.26885 -0.60048,-0.60049 0,-0.33163 0.268844,-0.60048 0.60048,-0.60048 0.331637,0 0.600481,0.26885 0.600481,0.60048 z m 1.994711,0 c 0,0.33164 -0.268844,0.60049 -0.60048,0.60049 -0.331637,0 -0.600481,-0.26885 -0.600481,-0.60049 0,-0.33163 0.268844,-0.60048 0.600481,-0.60048 0.331636,0 0.60048,0.26885 0.60048,0.60048 z m 1.994712,0 c 0,0.33164 -0.268845,0.60049 -0.600481,0.60049 -0.331636,0 -0.600481,-0.26885 -0.600481,-0.60049 0,-0.33163 0.268845,-0.60048 0.600481,-0.60048 0.331636,0 0.600481,0.26885 0.600481,0.60048 z m 1.994711,0 c 0,0.33164 -0.268844,0.60049 -0.600481,0.60049 -0.331636,0 -0.60048,-0.26885 -0.60048,-0.60049 0,-0.33163 0.268844,-0.60048 0.60048,-0.60048 0.331637,0 0.600481,0.26885 0.600481,0.60048 z m 1.994712,0 c 0,0.33164 -0.26884,0.60049 -0.60048,0.60049 -0.331637,0 -0.600482,-0.26885 -0.600482,-0.60049 0,-0.33163 0.268845,-0.60048 0.600482,-0.60048 0.33164,0 0.60048,0.26885 0.60048,0.60048 z m 1.99471,0 c 0,0.33164 -0.26884,0.60049 -0.60048,0.60049 -0.33164,0 -0.60048,-0.26885 -0.60048,-0.60049 0,-0.33163 0.26884,-0.60048 0.60048,-0.60048 0.33164,0 0.60048,0.26885 0.60048,0.60048 z m 1.99471,0 c 0,0.33164 -0.26884,0.60049 -0.60048,0.60049 -0.33163,0 -0.60048,-0.26885 -0.60048,-0.60049 0,-0.33163 0.26885,-0.60048 0.60048,-0.60048 0.33164,0 0.60048,0.26885 0.60048,0.60048 z m 1.99471,0 c 0,0.33164 -0.26884,0.60049 -0.60048,0.60049 -0.33163,0 -0.60048,-0.26885 -0.60048,-0.60049 0,-0.33163 0.26885,-0.60048 0.60048,-0.60048 0.33164,0 0.60048,0.26885 0.60048,0.60048 z m 1.99471,0 c 0,0.33164 -0.26884,0.60049 -0.60048,0.60049 -0.33163,0 -0.60048,-0.26885 -0.60048,-0.60049 0,-0.33163 0.26885,-0.60048 0.60048,-0.60048 0.33164,0 0.60048,0.26885 0.60048,0.60048 z m 1.99472,0 c 0,0.33164 -0.26885,0.60049 -0.60048,0.60049 -0.33164,0 -0.60048,-0.26885 -0.60048,-0.60049 0,-0.33163 0.26884,-0.60048 0.60048,-0.60048 0.33163,0 0.60048,0.26885 0.60048,0.60048 z m 1.99471,0 c 0,0.33164 -0.26885,0.60049 -0.60048,0.60049 -0.33164,0 -0.60048,-0.26885 -0.60048,-0.60049 0,-0.33163 0.26884,-0.60048 0.60048,-0.60048 0.33163,0 0.60048,0.26885 0.60048,0.60048 z m -27.925961,1.99472 c 0,0.33163 -0.268845,0.60048 -0.600481,0.60048 -0.331636,0 -0.600481,-0.26885 -0.600481,-0.60048 0,-0.33164 0.268845,-0.60048 0.600481,-0.60048 0.331636,0 0.600481,0.26884 0.600481,0.60048 z m 1.994711,0 c 0,0.33163 -0.268844,0.60048 -0.600481,0.60048 -0.331636,0 -0.60048,-0.26885 -0.60048,-0.60048 0,-0.33164 0.268844,-0.60048 0.60048,-0.60048 0.331637,0 0.600481,0.26884 0.600481,0.60048 z m 1.994711,0 c 0,0.33163 -0.268844,0.60048 -0.60048,0.60048 -0.331637,0 -0.600481,-0.26885 -0.600481,-0.60048 0,-0.33164 0.268844,-0.60048 0.600481,-0.60048 0.331636,0 0.60048,0.26884 0.60048,0.60048 z m 1.994712,0 c 0,0.33163 -0.268845,0.60048 -0.600481,0.60048 -0.331636,0 -0.600481,-0.26885 -0.600481,-0.60048 0,-0.33164 0.268845,-0.60048 0.600481,-0.60048 0.331636,0 0.600481,0.26884 0.600481,0.60048 z m 1.994711,0 c 0,0.33163 -0.268844,0.60048 -0.600481,0.60048 -0.331636,0 -0.60048,-0.26885 -0.60048,-0.60048 0,-0.33164 0.268844,-0.60048 0.60048,-0.60048 0.331637,0 0.600481,0.26884 0.600481,0.60048 z m 1.994711,0 c 0,0.33163 -0.268844,0.60048 -0.60048,0.60048 -0.331637,0 -0.600481,-0.26885 -0.600481,-0.60048 0,-0.33164 0.268844,-0.60048 0.600481,-0.60048 0.331636,0 0.60048,0.26884 0.60048,0.60048 z m 1.994712,0 c 0,0.33163 -0.268845,0.60048 -0.600481,0.60048 -0.331636,0 -0.600481,-0.26885 -0.600481,-0.60048 0,-0.33164 0.268845,-0.60048 0.600481,-0.60048 0.331636,0 0.600481,0.26884 0.600481,0.60048 z m 1.994711,0 c 0,0.33163 -0.268844,0.60048 -0.600481,0.60048 -0.331636,0 -0.60048,-0.26885 -0.60048,-0.60048 0,-0.33164 0.268844,-0.60048 0.60048,-0.60048 0.331637,0 0.600481,0.26884 0.600481,0.60048 z m 1.994712,0 c 0,0.33163 -0.26884,0.60048 -0.60048,0.60048 -0.331637,0 -0.600482,-0.26885 -0.600482,-0.60048 0,-0.33164 0.268845,-0.60048 0.600482,-0.60048 0.33164,0 0.60048,0.26884 0.60048,0.60048 z m 1.99471,0 c 0,0.33163 -0.26884,0.60048 -0.60048,0.60048 -0.33164,0 -0.60048,-0.26885 -0.60048,-0.60048 0,-0.33164 0.26884,-0.60048 0.60048,-0.60048 0.33164,0 0.60048,0.26884 0.60048,0.60048 z m 1.99471,0 c 0,0.33163 -0.26884,0.60048 -0.60048,0.60048 -0.33163,0 -0.60048,-0.26885 -0.60048,-0.60048 0,-0.33164 0.26885,-0.60048 0.60048,-0.60048 0.33164,0 0.60048,0.26884 0.60048,0.60048 z m 1.99471,0 c 0,0.33163 -0.26884,0.60048 -0.60048,0.60048 -0.33163,0 -0.60048,-0.26885 -0.60048,-0.60048 0,-0.33164 0.26885,-0.60048 0.60048,-0.60048 0.33164,0 0.60048,0.26884 0.60048,0.60048 z m 1.99471,0 c 0,0.33163 -0.26884,0.60048 -0.60048,0.60048 -0.33163,0 -0.60048,-0.26885 -0.60048,-0.60048 0,-0.33164 0.26885,-0.60048 0.60048,-0.60048 0.33164,0 0.60048,0.26884 0.60048,0.60048 z m 1.99472,0 c 0,0.33163 -0.26885,0.60048 -0.60048,0.60048 -0.33164,0 -0.60048,-0.26885 -0.60048,-0.60048 0,-0.33164 0.26884,-0.60048 0.60048,-0.60048 0.33163,0 0.60048,0.26884 0.60048,0.60048 z m 1.99471,0 c 0,0.33163 -0.26885,0.60048 -0.60048,0.60048 -0.33164,0 -0.60048,-0.26885 -0.60048,-0.60048 0,-0.33164 0.26884,-0.60048 0.60048,-0.60048 0.33163,0 0.60048,0.26884 0.60048,0.60048 z m -27.925961,1.99471 c 0,0.33163 -0.268845,0.60048 -0.600481,0.60048 -0.331636,0 -0.600481,-0.26885 -0.600481,-0.60048 0,-0.33164 0.268845,-0.60048 0.600481,-0.60048 0.331636,0 0.600481,0.26884 0.600481,0.60048 z m 1.994711,0 c 0,0.33163 -0.268844,0.60048 -0.600481,0.60048 -0.331636,0 -0.60048,-0.26885 -0.60048,-0.60048 0,-0.33164 0.268844,-0.60048 0.60048,-0.60048 0.331637,0 0.600481,0.26884 0.600481,0.60048 z m 1.994711,0 c 0,0.33163 -0.268844,0.60048 -0.60048,0.60048 -0.331637,0 -0.600481,-0.26885 -0.600481,-0.60048 0,-0.33164 0.268844,-0.60048 0.600481,-0.60048 0.331636,0 0.60048,0.26884 0.60048,0.60048 z m 1.994712,0 c 0,0.33163 -0.268845,0.60048 -0.600481,0.60048 -0.331636,0 -0.600481,-0.26885 -0.600481,-0.60048 0,-0.33164 0.268845,-0.60048 0.600481,-0.60048 0.331636,0 0.600481,0.26884 0.600481,0.60048 z m 1.994711,0 c 0,0.33163 -0.268844,0.60048 -0.600481,0.60048 -0.331636,0 -0.60048,-0.26885 -0.60048,-0.60048 0,-0.33164 0.268844,-0.60048 0.60048,-0.60048 0.331637,0 0.600481,0.26884 0.600481,0.60048 z m 1.994711,0 c 0,0.33163 -0.268844,0.60048 -0.60048,0.60048 -0.331637,0 -0.600481,-0.26885 -0.600481,-0.60048 0,-0.33164 0.268844,-0.60048 0.600481,-0.60048 0.331636,0 0.60048,0.26884 0.60048,0.60048 z m 1.994712,0 c 0,0.33163 -0.268845,0.60048 -0.600481,0.60048 -0.331636,0 -0.600481,-0.26885 -0.600481,-0.60048 0,-0.33164 0.268845,-0.60048 0.600481,-0.60048 0.331636,0 0.600481,0.26884 0.600481,0.60048 z m 1.994711,0 c 0,0.33163 -0.268844,0.60048 -0.600481,0.60048 -0.331636,0 -0.60048,-0.26885 -0.60048,-0.60048 0,-0.33164 0.268844,-0.60048 0.60048,-0.60048 0.331637,0 0.600481,0.26884 0.600481,0.60048 z m 1.994712,0 c 0,0.33163 -0.26884,0.60048 -0.60048,0.60048 -0.331637,0 -0.600482,-0.26885 -0.600482,-0.60048 0,-0.33164 0.268845,-0.60048 0.600482,-0.60048 0.33164,0 0.60048,0.26884 0.60048,0.60048 z m 1.99471,0 c 0,0.33163 -0.26884,0.60048 -0.60048,0.60048 -0.33164,0 -0.60048,-0.26885 -0.60048,-0.60048 0,-0.33164 0.26884,-0.60048 0.60048,-0.60048 0.33164,0 0.60048,0.26884 0.60048,0.60048 z m 1.99471,0 c 0,0.33163 -0.26884,0.60048 -0.60048,0.60048 -0.33163,0 -0.60048,-0.26885 -0.60048,-0.60048 0,-0.33164 0.26885,-0.60048 0.60048,-0.60048 0.33164,0 0.60048,0.26884 0.60048,0.60048 z m 1.99471,0 c 0,0.33163 -0.26884,0.60048 -0.60048,0.60048 -0.33163,0 -0.60048,-0.26885 -0.60048,-0.60048 0,-0.33164 0.26885,-0.60048 0.60048,-0.60048 0.33164,0 0.60048,0.26884 0.60048,0.60048 z m 1.99471,0 c 0,0.33163 -0.26884,0.60048 -0.60048,0.60048 -0.33163,0 -0.60048,-0.26885 -0.60048,-0.60048 0,-0.33164 0.26885,-0.60048 0.60048,-0.60048 0.33164,0 0.60048,0.26884 0.60048,0.60048 z m 1.99472,0 c 0,0.33163 -0.26885,0.60048 -0.60048,0.60048 -0.33164,0 -0.60048,-0.26885 -0.60048,-0.60048 0,-0.33164 0.26884,-0.60048 0.60048,-0.60048 0.33163,0 0.60048,0.26884 0.60048,0.60048 z m 1.99471,0 c 0,0.33163 -0.26885,0.60048 -0.60048,0.60048 -0.33164,0 -0.60048,-0.26885 -0.60048,-0.60048 0,-0.33164 0.26884,-0.60048 0.60048,-0.60048 0.33163,0 0.60048,0.26884 0.60048,0.60048 z m -27.925961,1.99471 c 0,0.33164 -0.268845,0.60048 -0.600481,0.60048 -0.331636,0 -0.600481,-0.26884 -0.600481,-0.60048 0,-0.33164 0.268845,-0.60048 0.600481,-0.60048 0.331636,0 0.600481,0.26884 0.600481,0.60048 z m 1.994711,0 c 0,0.33164 -0.268844,0.60048 -0.600481,0.60048 -0.331636,0 -0.60048,-0.26884 -0.60048,-0.60048 0,-0.33164 0.268844,-0.60048 0.60048,-0.60048 0.331637,0 0.600481,0.26884 0.600481,0.60048 z m 1.994711,0 c 0,0.33164 -0.268844,0.60048 -0.60048,0.60048 -0.331637,0 -0.600481,-0.26884 -0.600481,-0.60048 0,-0.33164 0.268844,-0.60048 0.600481,-0.60048 0.331636,0 0.60048,0.26884 0.60048,0.60048 z m 1.994712,0 c 0,0.33164 -0.268845,0.60048 -0.600481,0.60048 -0.331636,0 -0.600481,-0.26884 -0.600481,-0.60048 0,-0.33164 0.268845,-0.60048 0.600481,-0.60048 0.331636,0 0.600481,0.26884 0.600481,0.60048 z m 1.994711,0 c 0,0.33164 -0.268844,0.60048 -0.600481,0.60048 -0.331636,0 -0.60048,-0.26884 -0.60048,-0.60048 0,-0.33164 0.268844,-0.60048 0.60048,-0.60048 0.331637,0 0.600481,0.26884 0.600481,0.60048 z m 1.994711,0 c 0,0.33164 -0.268844,0.60048 -0.60048,0.60048 -0.331637,0 -0.600481,-0.26884 -0.600481,-0.60048 0,-0.33164 0.268844,-0.60048 0.600481,-0.60048 0.331636,0 0.60048,0.26884 0.60048,0.60048 z m 1.994712,0 c 0,0.33164 -0.268845,0.60048 -0.600481,0.60048 -0.331636,0 -0.600481,-0.26884 -0.600481,-0.60048 0,-0.33164 0.268845,-0.60048 0.600481,-0.60048 0.331636,0 0.600481,0.26884 0.600481,0.60048 z m 1.994711,0 c 0,0.33164 -0.268844,0.60048 -0.600481,0.60048 -0.331636,0 -0.60048,-0.26884 -0.60048,-0.60048 0,-0.33164 0.268844,-0.60048 0.60048,-0.60048 0.331637,0 0.600481,0.26884 0.600481,0.60048 z m 1.994712,0 c 0,0.33164 -0.26884,0.60048 -0.60048,0.60048 -0.331637,0 -0.600482,-0.26884 -0.600482,-0.60048 0,-0.33164 0.268845,-0.60048 0.600482,-0.60048 0.33164,0 0.60048,0.26884 0.60048,0.60048 z m 1.99471,0 c 0,0.33164 -0.26884,0.60048 -0.60048,0.60048 -0.33164,0 -0.60048,-0.26884 -0.60048,-0.60048 0,-0.33164 0.26884,-0.60048 0.60048,-0.60048 0.33164,0 0.60048,0.26884 0.60048,0.60048 z m 1.99471,0 c 0,0.33164 -0.26884,0.60048 -0.60048,0.60048 -0.33163,0 -0.60048,-0.26884 -0.60048,-0.60048 0,-0.33164 0.26885,-0.60048 0.60048,-0.60048 0.33164,0 0.60048,0.26884 0.60048,0.60048 z m 1.99471,0 c 0,0.33164 -0.26884,0.60048 -0.60048,0.60048 -0.33163,0 -0.60048,-0.26884 -0.60048,-0.60048 0,-0.33164 0.26885,-0.60048 0.60048,-0.60048 0.33164,0 0.60048,0.26884 0.60048,0.60048 z m 1.99471,0 c 0,0.33164 -0.26884,0.60048 -0.60048,0.60048 -0.33163,0 -0.60048,-0.26884 -0.60048,-0.60048 0,-0.33164 0.26885,-0.60048 0.60048,-0.60048 0.33164,0 0.60048,0.26884 0.60048,0.60048 z m 1.99472,0 c 0,0.33164 -0.26885,0.60048 -0.60048,0.60048 -0.33164,0 -0.60048,-0.26884 -0.60048,-0.60048 0,-0.33164 0.26884,-0.60048 0.60048,-0.60048 0.33163,0 0.60048,0.26884 0.60048,0.60048 z m 1.99471,0 c 0,0.33164 -0.26885,0.60048 -0.60048,0.60048 -0.33164,0 -0.60048,-0.26884 -0.60048,-0.60048 0,-0.33164 0.26884,-0.60048 0.60048,-0.60048 0.33163,0 0.60048,0.26884 0.60048,0.60048 z m -27.925961,1.99471 c 0,0.33164 -0.268845,0.60048 -0.600481,0.60048 -0.331636,0 -0.600481,-0.26884 -0.600481,-0.60048 0,-0.33164 0.268845,-0.60048 0.600481,-0.60048 0.331636,0 0.600481,0.26884 0.600481,0.60048 z m 1.994711,0 c 0,0.33164 -0.268844,0.60048 -0.600481,0.60048 -0.331636,0 -0.60048,-0.26884 -0.60048,-0.60048 0,-0.33164 0.268844,-0.60048 0.60048,-0.60048 0.331637,0 0.600481,0.26884 0.600481,0.60048 z m 1.994711,0 c 0,0.33164 -0.268844,0.60048 -0.60048,0.60048 -0.331637,0 -0.600481,-0.26884 -0.600481,-0.60048 0,-0.33164 0.268844,-0.60048 0.600481,-0.60048 0.331636,0 0.60048,0.26884 0.60048,0.60048 z m 1.994712,0 c 0,0.33164 -0.268845,0.60048 -0.600481,0.60048 -0.331636,0 -0.600481,-0.26884 -0.600481,-0.60048 0,-0.33164 0.268845,-0.60048 0.600481,-0.60048 0.331636,0 0.600481,0.26884 0.600481,0.60048 z m 1.994711,0 c 0,0.33164 -0.268844,0.60048 -0.600481,0.60048 -0.331636,0 -0.60048,-0.26884 -0.60048,-0.60048 0,-0.33164 0.268844,-0.60048 0.60048,-0.60048 0.331637,0 0.600481,0.26884 0.600481,0.60048 z m 1.994711,0 c 0,0.33164 -0.268844,0.60048 -0.60048,0.60048 -0.331637,0 -0.600481,-0.26884 -0.600481,-0.60048 0,-0.33164 0.268844,-0.60048 0.600481,-0.60048 0.331636,0 0.60048,0.26884 0.60048,0.60048 z m 1.994712,0 c 0,0.33164 -0.268845,0.60048 -0.600481,0.60048 -0.331636,0 -0.600481,-0.26884 -0.600481,-0.60048 0,-0.33164 0.268845,-0.60048 0.600481,-0.60048 0.331636,0 0.600481,0.26884 0.600481,0.60048 z m 1.994711,0 c 0,0.33164 -0.268844,0.60048 -0.600481,0.60048 -0.331636,0 -0.60048,-0.26884 -0.60048,-0.60048 0,-0.33164 0.268844,-0.60048 0.60048,-0.60048 0.331637,0 0.600481,0.26884 0.600481,0.60048 z m 1.994712,0 c 0,0.33164 -0.26884,0.60048 -0.60048,0.60048 -0.331637,0 -0.600482,-0.26884 -0.600482,-0.60048 0,-0.33164 0.268845,-0.60048 0.600482,-0.60048 0.33164,0 0.60048,0.26884 0.60048,0.60048 z m 1.99471,0 c 0,0.33164 -0.26884,0.60048 -0.60048,0.60048 -0.33164,0 -0.60048,-0.26884 -0.60048,-0.60048 0,-0.33164 0.26884,-0.60048 0.60048,-0.60048 0.33164,0 0.60048,0.26884 0.60048,0.60048 z m 1.99471,0 c 0,0.33164 -0.26884,0.60048 -0.60048,0.60048 -0.33163,0 -0.60048,-0.26884 -0.60048,-0.60048 0,-0.33164 0.26885,-0.60048 0.60048,-0.60048 0.33164,0 0.60048,0.26884 0.60048,0.60048 z m 1.99471,0 c 0,0.33164 -0.26884,0.60048 -0.60048,0.60048 -0.33163,0 -0.60048,-0.26884 -0.60048,-0.60048 0,-0.33164 0.26885,-0.60048 0.60048,-0.60048 0.33164,0 0.60048,0.26884 0.60048,0.60048 z m 1.99471,0 c 0,0.33164 -0.26884,0.60048 -0.60048,0.60048 -0.33163,0 -0.60048,-0.26884 -0.60048,-0.60048 0,-0.33164 0.26885,-0.60048 0.60048,-0.60048 0.33164,0 0.60048,0.26884 0.60048,0.60048 z m 1.99472,0 c 0,0.33164 -0.26885,0.60048 -0.60048,0.60048 -0.33164,0 -0.60048,-0.26884 -0.60048,-0.60048 0,-0.33164 0.26884,-0.60048 0.60048,-0.60048 0.33163,0 0.60048,0.26884 0.60048,0.60048 z m 1.99471,0 c 0,0.33164 -0.26885,0.60048 -0.60048,0.60048 -0.33164,0 -0.60048,-0.26884 -0.60048,-0.60048 0,-0.33164 0.26884,-0.60048 0.60048,-0.60048 0.33163,0 0.60048,0.26884 0.60048,0.60048 z m -27.925961,1.99471 c 0,0.33164 -0.268845,0.60048 -0.600481,0.60048 -0.331636,0 -0.600481,-0.26884 -0.600481,-0.60048 0,-0.33163 0.268845,-0.60048 0.600481,-0.60048 0.331636,0 0.600481,0.26885 0.600481,0.60048 z m 1.994711,0 c 0,0.33164 -0.268844,0.60048 -0.600481,0.60048 -0.331636,0 -0.60048,-0.26884 -0.60048,-0.60048 0,-0.33163 0.268844,-0.60048 0.60048,-0.60048 0.331637,0 0.600481,0.26885 0.600481,0.60048 z m 1.994711,0 c 0,0.33164 -0.268844,0.60048 -0.60048,0.60048 -0.331637,0 -0.600481,-0.26884 -0.600481,-0.60048 0,-0.33163 0.268844,-0.60048 0.600481,-0.60048 0.331636,0 0.60048,0.26885 0.60048,0.60048 z m 1.994712,0 c 0,0.33164 -0.268845,0.60048 -0.600481,0.60048 -0.331636,0 -0.600481,-0.26884 -0.600481,-0.60048 0,-0.33163 0.268845,-0.60048 0.600481,-0.60048 0.331636,0 0.600481,0.26885 0.600481,0.60048 z m 1.994711,0 c 0,0.33164 -0.268844,0.60048 -0.600481,0.60048 -0.331636,0 -0.60048,-0.26884 -0.60048,-0.60048 0,-0.33163 0.268844,-0.60048 0.60048,-0.60048 0.331637,0 0.600481,0.26885 0.600481,0.60048 z m 1.994711,0 c 0,0.33164 -0.268844,0.60048 -0.60048,0.60048 -0.331637,0 -0.600481,-0.26884 -0.600481,-0.60048 0,-0.33163 0.268844,-0.60048 0.600481,-0.60048 0.331636,0 0.60048,0.26885 0.60048,0.60048 z m 1.994712,0 c 0,0.33164 -0.268845,0.60048 -0.600481,0.60048 -0.331636,0 -0.600481,-0.26884 -0.600481,-0.60048 0,-0.33163 0.268845,-0.60048 0.600481,-0.60048 0.331636,0 0.600481,0.26885 0.600481,0.60048 z m 1.994711,0 c 0,0.33164 -0.268844,0.60048 -0.600481,0.60048 -0.331636,0 -0.60048,-0.26884 -0.60048,-0.60048 0,-0.33163 0.268844,-0.60048 0.60048,-0.60048 0.331637,0 0.600481,0.26885 0.600481,0.60048 z m 1.994712,0 c 0,0.33164 -0.26884,0.60048 -0.60048,0.60048 -0.331637,0 -0.600482,-0.26884 -0.600482,-0.60048 0,-0.33163 0.268845,-0.60048 0.600482,-0.60048 0.33164,0 0.60048,0.26885 0.60048,0.60048 z m 1.99471,0 c 0,0.33164 -0.26884,0.60048 -0.60048,0.60048 -0.33164,0 -0.60048,-0.26884 -0.60048,-0.60048 0,-0.33163 0.26884,-0.60048 0.60048,-0.60048 0.33164,0 0.60048,0.26885 0.60048,0.60048 z m 1.99471,0 c 0,0.33164 -0.26884,0.60048 -0.60048,0.60048 -0.33163,0 -0.60048,-0.26884 -0.60048,-0.60048 0,-0.33163 0.26885,-0.60048 0.60048,-0.60048 0.33164,0 0.60048,0.26885 0.60048,0.60048 z m 1.99471,0 c 0,0.33164 -0.26884,0.60048 -0.60048,0.60048 -0.33163,0 -0.60048,-0.26884 -0.60048,-0.60048 0,-0.33163 0.26885,-0.60048 0.60048,-0.60048 0.33164,0 0.60048,0.26885 0.60048,0.60048 z m 1.99471,0 c 0,0.33164 -0.26884,0.60048 -0.60048,0.60048 -0.33163,0 -0.60048,-0.26884 -0.60048,-0.60048 0,-0.33163 0.26885,-0.60048 0.60048,-0.60048 0.33164,0 0.60048,0.26885 0.60048,0.60048 z m 1.99472,0 c 0,0.33164 -0.26885,0.60048 -0.60048,0.60048 -0.33164,0 -0.60048,-0.26884 -0.60048,-0.60048 0,-0.33163 0.26884,-0.60048 0.60048,-0.60048 0.33163,0 0.60048,0.26885 0.60048,0.60048 z m 1.99471,0 c 0,0.33164 -0.26885,0.60048 -0.60048,0.60048 -0.33164,0 -0.60048,-0.26884 -0.60048,-0.60048 0,-0.33163 0.26884,-0.60048 0.60048,-0.60048 0.33163,0 0.60048,0.26885 0.60048,0.60048 z m -27.925961,1.99471 c 0,0.33164 -0.268845,0.60048 -0.600481,0.60048 -0.331636,0 -0.600481,-0.26884 -0.600481,-0.60048 0,-0.33163 0.268845,-0.60048 0.600481,-0.60048 0.331636,0 0.600481,0.26885 0.600481,0.60048 z m 1.994711,0 c 0,0.33164 -0.268844,0.60048 -0.600481,0.60048 -0.331636,0 -0.60048,-0.26884 -0.60048,-0.60048 0,-0.33163 0.268844,-0.60048 0.60048,-0.60048 0.331637,0 0.600481,0.26885 0.600481,0.60048 z m 1.994711,0 c 0,0.33164 -0.268844,0.60048 -0.60048,0.60048 -0.331637,0 -0.600481,-0.26884 -0.600481,-0.60048 0,-0.33163 0.268844,-0.60048 0.600481,-0.60048 0.331636,0 0.60048,0.26885 0.60048,0.60048 z m 1.994712,0 c 0,0.33164 -0.268845,0.60048 -0.600481,0.60048 -0.331636,0 -0.600481,-0.26884 -0.600481,-0.60048 0,-0.33163 0.268845,-0.60048 0.600481,-0.60048 0.331636,0 0.600481,0.26885 0.600481,0.60048 z m 1.994711,0 c 0,0.33164 -0.268844,0.60048 -0.600481,0.60048 -0.331636,0 -0.60048,-0.26884 -0.60048,-0.60048 0,-0.33163 0.268844,-0.60048 0.60048,-0.60048 0.331637,0 0.600481,0.26885 0.600481,0.60048 z m 1.994711,0 c 0,0.33164 -0.268844,0.60048 -0.60048,0.60048 -0.331637,0 -0.600481,-0.26884 -0.600481,-0.60048 0,-0.33163 0.268844,-0.60048 0.600481,-0.60048 0.331636,0 0.60048,0.26885 0.60048,0.60048 z m 1.994712,0 c 0,0.33164 -0.268845,0.60048 -0.600481,0.60048 -0.331636,0 -0.600481,-0.26884 -0.600481,-0.60048 0,-0.33163 0.268845,-0.60048 0.600481,-0.60048 0.331636,0 0.600481,0.26885 0.600481,0.60048 z m 1.994711,0 c 0,0.33164 -0.268844,0.60048 -0.600481,0.60048 -0.331636,0 -0.60048,-0.26884 -0.60048,-0.60048 0,-0.33163 0.268844,-0.60048 0.60048,-0.60048 0.331637,0 0.600481,0.26885 0.600481,0.60048 z m 1.994712,0 c 0,0.33164 -0.26884,0.60048 -0.60048,0.60048 -0.331637,0 -0.600482,-0.26884 -0.600482,-0.60048 0,-0.33163 0.268845,-0.60048 0.600482,-0.60048 0.33164,0 0.60048,0.26885 0.60048,0.60048 z m 1.99471,0 c 0,0.33164 -0.26884,0.60048 -0.60048,0.60048 -0.33164,0 -0.60048,-0.26884 -0.60048,-0.60048 0,-0.33163 0.26884,-0.60048 0.60048,-0.60048 0.33164,0 0.60048,0.26885 0.60048,0.60048 z m 1.99471,0 c 0,0.33164 -0.26884,0.60048 -0.60048,0.60048 -0.33163,0 -0.60048,-0.26884 -0.60048,-0.60048 0,-0.33163 0.26885,-0.60048 0.60048,-0.60048 0.33164,0 0.60048,0.26885 0.60048,0.60048 z m 1.99471,0 c 0,0.33164 -0.26884,0.60048 -0.60048,0.60048 -0.33163,0 -0.60048,-0.26884 -0.60048,-0.60048 0,-0.33163 0.26885,-0.60048 0.60048,-0.60048 0.33164,0 0.60048,0.26885 0.60048,0.60048 z m 1.99471,0 c 0,0.33164 -0.26884,0.60048 -0.60048,0.60048 -0.33163,0 -0.60048,-0.26884 -0.60048,-0.60048 0,-0.33163 0.26885,-0.60048 0.60048,-0.60048 0.33164,0 0.60048,0.26885 0.60048,0.60048 z m 1.99472,0 c 0,0.33164 -0.26885,0.60048 -0.60048,0.60048 -0.33164,0 -0.60048,-0.26884 -0.60048,-0.60048 0,-0.33163 0.26884,-0.60048 0.60048,-0.60048 0.33163,0 0.60048,0.26885 0.60048,0.60048 z m 1.99471,0 c 0,0.33164 -0.26885,0.60048 -0.60048,0.60048 -0.33164,0 -0.60048,-0.26884 -0.60048,-0.60048 0,-0.33163 0.26884,-0.60048 0.60048,-0.60048 0.33163,0 0.60048,0.26885 0.60048,0.60048 z"
       transform="translate(-1.0825295,-26.792604)" />
    <path
       style="font-variation-settings:normal;opacity:1;fill:#ffffff;fill-opacity:1;stroke:#ffffff;stroke-width:2.165;stroke-linecap:butt;stroke-linejoin:miter;stroke-miterlimit:4;stroke-dasharray:none;stroke-dashoffset:0;stroke-opacity:1;stop-color:#000000;stop-opacity:1"
       d="m 101.08908,101.71102 -8.754996,30.85776"
       id="path6" />
  </g>
</svg>
