<?xml version="1.0" encoding="UTF-8" standalone="no"?>
<!-- Created with Inkscape (http://www.inkscape.org/) -->

<svg
   viewBox="0 0 43.953877 16.856359"
   version="1.1"
   id="svg1"
   sodipodi:docname="logo_static.svg"
   inkscape:version="1.4 (86a8ad7, 2024-10-11)"
   xmlns:inkscape="http://www.inkscape.org/namespaces/inkscape"
   xmlns:sodipodi="http://sodipodi.sourceforge.net/DTD/sodipodi-0.dtd"
   xmlns="http://www.w3.org/2000/svg"
   xmlns:svg="http://www.w3.org/2000/svg">
  <sodipodi:namedview
     id="namedview1"
     pagecolor="#ffffff"
     bordercolor="#666666"
     borderopacity="1.0"
     inkscape:showpageshadow="2"
     inkscape:pageopacity="0.0"
     inkscape:pagecheckerboard="true"
     inkscape:deskcolor="#d1d1d1"
     showgrid="false"
     inkscape:zoom="45.254834"
     inkscape:cx="29.146058"
     inkscape:cy="5.3916892"
     inkscape:window-width="3360"
     inkscape:window-height="1780"
     inkscape:window-x="-12"
     inkscape:window-y="963"
     inkscape:window-maximized="1"
     inkscape:current-layer="bars" />
  <defs
     id="defs1" />
  <g
     id="text"
     transform="translate(-44.159341,-135.95682)">
    <path
       style="font-variation-settings:normal;opacity:1;vector-effect:none;fill:#ffffff;fill-opacity:1;stroke:none;stroke-width:0.264583px;stroke-linecap:butt;stroke-linejoin:miter;stroke-miterlimit:4;stroke-dasharray:none;stroke-dashoffset:0;stroke-opacity:1;-inkscape-stroke:none;stop-color:#000000;stop-opacity:1"
       d="m 65.414883,152.79206 -0.503759,-7.79767 -2.149003,0.0167 0.546841,7.781 z"
       id="w1" />
    <path
       style="font-variation-settings:normal;opacity:1;vector-effect:none;fill:#ffffff;fill-opacity:1;stroke:none;stroke-width:0.264583px;stroke-linecap:butt;stroke-linejoin:miter;stroke-miterlimit:4;stroke-dasharray:none;stroke-dashoffset:0;stroke-opacity:1;-inkscape-stroke:none;stop-color:#000000;stop-opacity:1"
       d="m 68.247142,152.79206 -0.503759,-7.79767 -2.149003,0.0167 0.546841,7.781 z"
       id="w2" />
    <path
       d="m 47.458985,140.74201 0.656791,-1.7295 c 0.396142,0.15044 0.651697,0.0743 0.766665,-0.22845 0.105183,-0.27698 0.0064,-0.47296 -0.296335,-0.58793 -0.30596,-0.11621 -0.531104,0.0157 -0.675431,0.39578 l -1.636472,4.30925 -2.114862,0.0365 1.712895,-4.88767 c 0.161447,-0.42513 0.335408,-0.75707 0.521884,-0.9958 0.190919,-0.24074 0.434082,-0.43952 0.729488,-0.59635 0.330957,-0.17281 0.699093,-0.26885 1.10441,-0.28813 0.405317,-0.0193 0.793161,0.0414 1.163533,0.18209 0.6699,0.2544 1.146291,0.69327 1.429174,1.31662 0.286103,0.62457 0.302567,1.2702 0.04939,1.93688 -0.245836,0.64735 -0.649709,1.09465 -1.211619,1.34191 -0.51425,0.22849 -1.148193,0.19963 -1.90183,-0.0866 z"
       id="p"
       style="font-size:10.5833px;line-height:1.25;font-family:'Bauhaus 93';-inkscape-font-specification:'Bauhaus 93, ';text-align:center;fill:#ffffff;stroke-width:0.265"
       aria-label="P"
       sodipodi:nodetypes="cccccccccccccsccc" />
    <path
       d="m 54.109221,141.37585 -0.64139,1.89423 c -0.158933,-0.0247 -0.300399,-0.0581 -0.424396,-0.1001 -0.734197,-0.2486 -1.264266,-0.69724 -1.590206,-1.34591 -0.325942,-0.64867 -0.365716,-1.33684 -0.119323,-2.06452 0.239761,-0.70809 0.689424,-1.22507 1.348991,-1.55096 0.662829,-0.32479 1.34829,-0.3673 2.056383,-0.12753 0.78967,0.26738 1.332843,0.70954 1.62952,1.32648 0.301045,0.61478 0.316218,1.3219 0.04552,2.12136 l -0.534198,1.76207 -2.10684,0.0116 0.76569,-2.26133 c 0.08729,-0.25778 0.09326,-0.4849 0.01793,-0.68136 -0.07207,-0.19535 -0.214152,-0.32894 -0.426253,-0.40075 -0.192523,-0.0652 -0.382696,-0.0514 -0.57052,0.0414 -0.187824,0.0928 -0.314331,0.23547 -0.37952,0.42799 -0.0685,0.20231 -0.06122,0.39027 0.02184,0.56388 0.08307,0.17362 0.22249,0.29358 0.418275,0.35987 0.159892,0.0541 0.322727,0.062 0.488504,0.0236 z"
       id="a1"
       style="font-size:10.5833px;line-height:1.25;font-family:'Bauhaus 93';-inkscape-font-specification:'Bauhaus 93, ';text-align:center;fill:#ffffff;stroke-width:0.265"
       aria-label="a"
       sodipodi:nodetypes="cccsscccccccccsccccc" />
    <path
       d="m 60.059498,140.34786 c -0.102958,-0.19927 -0.234414,-0.21473 -0.343582,-0.23009 -0.347972,-0.049 -0.477249,0.33985 -0.638169,0.79126 l -0.837904,2.35048 -2.0421,-0.003 1.017991,-2.98529 c 0.240175,-0.70432 0.387497,-1.29535 0.851485,-1.67539 0.464468,-0.38344 1.032734,-0.52789 1.704797,-0.43335 0.150106,0.0211 0.870749,0.29026 1.084747,0.49807 -0.61299,0.60765 -0.726822,1.16264 -0.797265,1.68731 z"
       id="r1"
       style="font-size:10.5833px;line-height:1.25;font-family:'Bauhaus 93';-inkscape-font-specification:'Bauhaus 93, ';text-align:center;fill:#ffffff;stroke-width:0.265"
       aria-label="r"
       sodipodi:nodetypes="cssccscscc" />
    <path
       d="m 63.290601,141.46388 -0.64139,1.89423 c -0.158933,-0.0247 -0.300399,-0.0581 -0.424396,-0.1001 -0.734197,-0.2486 -1.264266,-0.69724 -1.590206,-1.34591 -0.325942,-0.64867 -0.365716,-1.33684 -0.119323,-2.06452 0.239761,-0.70809 0.689424,-1.22507 1.348991,-1.55096 0.662829,-0.32479 1.34829,-0.3673 2.056383,-0.12753 0.78967,0.26738 1.332843,0.70954 1.62952,1.32648 0.301045,0.61478 0.316218,1.3219 0.04552,2.12136 l -0.534198,1.76207 -2.10684,0.0116 0.76569,-2.26133 c 0.08729,-0.25778 0.09326,-0.4849 0.01793,-0.68136 -0.07207,-0.19535 -0.214152,-0.32894 -0.426253,-0.40075 -0.192523,-0.0652 -0.382696,-0.0514 -0.57052,0.0414 -0.187824,0.0928 -0.314331,0.23547 -0.37952,0.42799 -0.0685,0.20231 -0.06122,0.39027 0.02184,0.56388 0.08307,0.17362 0.22249,0.29358 0.418275,0.35987 0.159892,0.0541 0.322727,0.062 0.488504,0.0236 z"
       id="a2"
       style="font-size:10.5833px;line-height:1.25;font-family:'Bauhaus 93';-inkscape-font-specification:'Bauhaus 93, ';text-align:center;fill:#ffffff;stroke-width:0.265"
       aria-label="a"
       sodipodi:nodetypes="ccccsccccccccccssccc" />
    <path
       d="m 72.171019,147.32885 q 1.095536,0 1.875848,0.79065 0.785479,0.78547 0.785479,1.88618 0,1.11621 -0.795814,1.90169 -0.790647,0.78548 -1.912022,0.78548 -1.121375,0 -1.91719,-0.78548 -0.795814,-0.79065 -0.795814,-1.90169 0,-1.13171 0.795814,-1.90169 0.795815,-0.77514 1.963699,-0.77514 z m -0.05168,1.90685 q -0.310057,0 -0.527098,0.22738 -0.21704,0.22221 -0.21704,0.54777 0,0.32039 0.21704,0.54777 0.222208,0.22737 0.527098,0.22737 0.310058,0 0.527098,-0.22737 0.222208,-0.22738 0.222208,-0.54777 0,-0.32556 -0.21704,-0.54777 -0.21704,-0.22738 -0.532266,-0.22738 z"
       id="o"
       style="font-size:10.5833px;line-height:1.25;font-family:'Bauhaus 93';-inkscape-font-specification:'Bauhaus 93, ';text-align:center;fill:#ffffff;stroke-width:0.265"
       aria-label="o" />
    <path
       d="m 78.902213,147.95178 -0.690788,1.91576 c -0.12249,-0.0938 -0.238321,-0.14832 -0.347488,-0.16368 -0.347972,-0.049 -0.473343,0.27344 -0.634264,0.72485 l -0.837903,2.35048 -2.042101,-0.003 1.017991,-2.98529 c 0.240175,-0.70432 0.387497,-1.29535 0.851485,-1.67539 0.464468,-0.38344 1.032734,-0.52789 1.704797,-0.43335 0.225949,0.0318 0.435522,0.13354 0.978271,0.26962 z"
       id="r2"
       style="font-size:10.5833px;line-height:1.25;font-family:'Bauhaus 93';-inkscape-font-specification:'Bauhaus 93, ';text-align:center;fill:#ffffff;stroke-width:0.265"
       aria-label="r"
       sodipodi:nodetypes="cccsccsccc" />
    <path
       d="m 81.918763,145.42847 -2.160514,7.372 -1.963287,-0.0514 2.174466,-7.34409 z m 2.194394,3.20053 -1.443482,1.52627 0.142888,2.59287 -1.868327,-0.013 -0.110961,-3.22073 1.353949,-1.46134 z"
       id="k"
       style="font-size:10.5833px;line-height:1.25;font-family:'Bauhaus 93';-inkscape-font-specification:'Bauhaus 93, ';text-align:center;fill:#ffffff;stroke-width:0.265"
       aria-label="k"
       sodipodi:nodetypes="cccccccccccc" />
    <path
       d="m 88.113218,148.08222 -0.503391,2.14682 q -0.395566,-0.10988 -0.584112,0.0119 -0.182259,0.11769 -0.33347,0.5806 -0.499426,1.53855 -1.642887,1.91167 -0.604971,0.19183 -1.571362,-0.0765 l -0.260372,-0.0724 0.505944,-2.1577 0.08513,0.0236 q 0.450646,0.12513 0.688194,-0.0236 0.243831,-0.15284 0.39397,-0.65667 0.235536,-0.82254 0.414894,-1.13255 0.184366,-0.30863 0.577753,-0.55341 0.6875,-0.43009 1.663905,-0.15899 z"
       id="s"
       style="font-size:10.5833px;line-height:1.25;font-family:'Bauhaus 93';-inkscape-font-specification:'Bauhaus 93, ';text-align:center;fill:#ffffff;stroke-width:0.265"
       aria-label="s" />
    <path
       d="m 77.498784,142.60924 c -0.782097,-0.98855 -2.215056,-2.42361 -2.220542,-2.44245 h 0.98185 c -0.0689,-0.38241 -0.28422,-0.57361 -0.645954,-0.57361 -0.241156,0 -0.437526,0.10335 -0.589109,0.31006 -0.151584,0.20326 -0.227376,0.46509 -0.227376,0.78548 0,0.33417 0.07235,0.60461 0.21704,0.81132 0.148139,0.2067 0.341064,0.31005 0.578775,0.31005 0.192925,0 0.378959,-0.0965 0.558103,-0.28938 l 1.100705,1.32291 c -0.513318,0.40307 -1.08348,0.60461 -1.710485,0.60461 -0.764809,0 -1.407317,-0.25666 -1.927524,-0.76997 -0.520208,-0.51332 -0.780312,-1.14894 -0.780312,-1.90686 0,-0.75447 0.261826,-1.39181 0.785479,-1.91202 0.527098,-0.52021 1.173051,-0.78031 1.93786,-0.78031 0.747583,0 1.374589,0.25494 1.881016,0.76481 0.509873,0.50643 0.784256,1.13196 0.764809,1.87584 -0.01841,0.7041 -0.09569,1.11647 -0.704335,1.88952 z"
       id="e"
       style="font-size:10.5833px;line-height:1.25;font-family:'Bauhaus 93';-inkscape-font-specification:'Bauhaus 93, ';text-align:center;fill:#ffffff;stroke-width:0.265"
       aria-label="e"
       sodipodi:nodetypes="cccscscsccssscscsc" />
    <path
       d="m 82.567696,135.95683 -2.041716,7.51798 -1.922646,-0.0398 2.083573,-7.47819 z"
       id="l"
       style="font-size:10.5833px;line-height:1.25;font-family:'Bauhaus 93';-inkscape-font-specification:'Bauhaus 93, ';text-align:center;fill:#ffffff;stroke-width:0.265"
       aria-label="l"
       sodipodi:nodetypes="ccccc" />
  </g>
  <g
     id="bars"
     transform="translate(-44.159341,-135.95682)">
    <path
       style="font-variation-settings:normal;vector-effect:none;fill:#6ee7ff;fill-opacity:1;stroke:none;stroke-width:0.264583px;stroke-linecap:butt;stroke-linejoin:miter;stroke-miterlimit:4;stroke-dasharray:none;stroke-dashoffset:0;stroke-opacity:1;-inkscape-stroke:none;stop-color:#000000;stop-opacity:1"
       d="m 68.252718,135.95683 h 2.189415 l -5.02725,16.83523 h -2.105921 z"
       id="bar_blue" />
    <path
       style="font-variation-settings:normal;vector-effect:none;fill:#a78bfa;fill-opacity:1;stroke:none;stroke-width:0.264583px;stroke-linecap:butt;stroke-linejoin:miter;stroke-miterlimit:4;stroke-dasharray:none;stroke-dashoffset:0;stroke-opacity:1;-inkscape-stroke:none;stop-color:#000000;stop-opacity:1"
       d="m 71.084977,135.95683 h 2.189415 l -5.02725,16.83523 h -2.105921 z"
       id="bar_purple" />
  </g>
</svg>
