<?xml version="1.0" encoding="UTF-8" standalone="no"?>
<!-- Created with Inkscape (http://www.inkscape.org/) -->

<svg
   width="40.456081mm"
   height="32.343285mm"
   viewBox="0 0 40.456081 32.343285"
   version="1.1"
   id="svg1"
   xmlns="http://www.w3.org/2000/svg"
   xmlns:svg="http://www.w3.org/2000/svg">
  <defs
     id="defs1" />
  <g
     id="g55">
    <g
       id="g56"
       class="visible-shapes">
      <path
         id="path3"
         style="stroke-width:0.0533078;stroke-linecap:round;stroke-linejoin:round;stroke-miterlimit:9"
         d="M 8.4978542,8.1866331 A 2.2733116,2.2733116 0 0 1 6.2245426,10.459945 2.2733116,2.2733116 0 0 1 3.951231,8.1866331 2.2733116,2.2733116 0 0 1 6.2245426,5.9133215 2.2733116,2.2733116 0 0 1 8.4978542,8.1866331 Z" />
      <path
         id="circle3"
         style="stroke-width:0.0533078;stroke-linecap:round;stroke-linejoin:round;stroke-miterlimit:9"
         d="M 8.6331677,16.440924 A 2.2733116,2.2733116 0 0 1 6.3598561,18.714235 2.2733116,2.2733116 0 0 1 4.0865445,16.440924 2.2733116,2.2733116 0 0 1 6.3598561,14.167612 2.2733116,2.2733116 0 0 1 8.6331677,16.440924 Z" />
      <path
         id="circle4"
         style="stroke-width:0.0533078;stroke-linecap:round;stroke-linejoin:round;stroke-miterlimit:9"
         d="M 8.6331677,24.695215 A 2.2733116,2.2733116 0 0 1 6.3598561,26.968527 2.2733116,2.2733116 0 0 1 4.0865445,24.695215 2.2733116,2.2733116 0 0 1 6.3598561,22.421904 2.2733116,2.2733116 0 0 1 8.6331677,24.695215 Z" />
      <path
         id="circle5"
         style="stroke-width:0.0533078;stroke-linecap:round;stroke-linejoin:round;stroke-miterlimit:9"
         d="M 18.200948,4.2624545 A 2.2733116,2.2733116 0 0 1 15.927636,6.5357661 2.2733116,2.2733116 0 0 1 13.654325,4.2624545 2.2733116,2.2733116 0 0 1 15.927636,1.9891429 2.2733116,2.2733116 0 0 1 18.200948,4.2624545 Z" />
      <path
         id="circle6"
         style="stroke-width:0.0533078;stroke-linecap:round;stroke-linejoin:round;stroke-miterlimit:9"
         d="m 18.200948,12.449095 a 2.2733116,2.2733116 0 0 1 -2.273312,2.273311 2.2733116,2.2733116 0 0 1 -2.273311,-2.273311 2.2733116,2.2733116 0 0 1 2.273311,-2.273312 2.2733116,2.2733116 0 0 1 2.273312,2.273312 z" />
      <path
         id="circle7"
         style="stroke-width:0.0533078;stroke-linecap:round;stroke-linejoin:round;stroke-miterlimit:9"
         d="m 18.200948,20.635729 a 2.2733116,2.2733116 0 0 1 -2.273312,2.273311 2.2733116,2.2733116 0 0 1 -2.273311,-2.273311 2.2733116,2.2733116 0 0 1 2.273311,-2.273312 2.2733116,2.2733116 0 0 1 2.273312,2.273312 z" />
      <path
         id="circle8"
         style="stroke-width:0.0533078;stroke-linecap:round;stroke-linejoin:round;stroke-miterlimit:9"
         d="m 18.200948,28.822363 a 2.2733116,2.2733116 0 0 1 -2.273312,2.273312 2.2733116,2.2733116 0 0 1 -2.273311,-2.273312 2.2733116,2.2733116 0 0 1 2.273311,-2.273312 2.2733116,2.2733116 0 0 1 2.273312,2.273312 z" />
      <path
         id="circle9"
         style="stroke-width:0.0533078;stroke-linecap:round;stroke-linejoin:round;stroke-miterlimit:9"
         d="M 27.768728,8.1866331 A 2.2733116,2.2733116 0 0 1 25.495417,10.459945 2.2733116,2.2733116 0 0 1 23.222105,8.1866331 2.2733116,2.2733116 0 0 1 25.495417,5.9133215 2.2733116,2.2733116 0 0 1 27.768728,8.1866331 Z" />
      <path
         id="circle10"
         style="stroke-width:0.0533078;stroke-linecap:round;stroke-linejoin:round;stroke-miterlimit:9"
         d="m 27.904041,16.440924 a 2.2733116,2.2733116 0 0 1 -2.273311,2.273311 2.2733116,2.2733116 0 0 1 -2.273312,-2.273311 2.2733116,2.2733116 0 0 1 2.273312,-2.273312 2.2733116,2.2733116 0 0 1 2.273311,2.273312 z" />
      <path
         id="circle11"
         style="stroke-width:0.0533078;stroke-linecap:round;stroke-linejoin:round;stroke-miterlimit:9"
         d="m 27.904041,24.695215 a 2.2733116,2.2733116 0 0 1 -2.273311,2.273312 2.2733116,2.2733116 0 0 1 -2.273312,-2.273312 2.2733116,2.2733116 0 0 1 2.273312,-2.273311 2.2733116,2.2733116 0 0 1 2.273311,2.273311 z" />
      <path
         id="circle12"
         style="stroke-width:0.0533078;stroke-linecap:round;stroke-linejoin:round;stroke-miterlimit:9"
         d="m 37.387859,12.381438 a 2.2733116,2.2733116 0 0 1 -2.273311,2.273312 2.2733116,2.2733116 0 0 1 -2.273312,-2.273312 2.2733116,2.2733116 0 0 1 2.273312,-2.273311 2.2733116,2.2733116 0 0 1 2.273311,2.273311 z" />
      <path
         id="circle13"
         style="stroke-width:0.0533078;stroke-linecap:round;stroke-linejoin:round;stroke-miterlimit:9"
         d="m 37.52317,20.635729 a 2.2733116,2.2733116 0 0 1 -2.273311,2.273311 2.2733116,2.2733116 0 0 1 -2.273312,-2.273311 2.2733116,2.2733116 0 0 1 2.273312,-2.273312 2.2733116,2.2733116 0 0 1 2.273311,2.273312 z" />
      <path
         id="path54"
         d="m 15.926676,3.9294759 a 0.33250049,0.33250049 0 0 0 -0.01137,0.00207 0.33250049,0.33250049 0 0 0 -0.03514,0.00723 0.33250049,0.33250049 0 0 0 -0.05426,0.00879 0.33250049,0.33250049 0 0 0 -0.01137,0.00155 0.33250049,0.33250049 0 0 0 -0.0072,0.00413 0.33250049,0.33250049 0 0 0 -0.0036,0.00103 0.33250049,0.33250049 0 0 0 -0.0047,0.00103 0.33250049,0.33250049 0 0 0 -0.0057,0.00413 L 6.1050537,7.8765218 a 0.33250049,0.33250049 0 0 0 -0.00155,5.168e-4 0.33250049,0.33250049 0 0 0 -0.00155,0.00103 l -0.00258,0.00103 v 5.168e-4 a 0.33250049,0.33250049 0 0 0 -0.00517,0.00362 0.33250049,0.33250049 0 0 0 -0.010335,0.00155 0.33250049,0.33250049 0 0 0 -0.021187,0.018087 0.33250049,0.33250049 0 0 0 -0.042891,0.021187 0.33250049,0.33250049 0 0 0 -0.0093,0.012402 0.33250049,0.33250049 0 0 0 -0.03824,0.042375 0.33250049,0.33250049 0 0 0 -0.029456,0.041341 0.33250049,0.33250049 0 0 0 -0.022738,0.032556 0.33250049,0.33250049 0 0 0 -5.168e-4,0.00413 0.33250049,0.33250049 0 0 0 -0.00982,0.055294 0.33250049,0.33250049 0 0 0 -0.010852,0.076998 0.33250049,0.33250049 0 0 0 -0.0031,0.038241 0.33250049,0.33250049 0 0 0 0.018603,0.049093 0.33250049,0.33250049 0 0 0 0.0093,0.051676 L 8.3152547,13.413652 6.097819,16.236218 a 0.33250049,0.33250049 0 0 0 -0.00982,0.02325 0.33250049,0.33250049 0 0 0 -0.033073,0.04703 0.33250049,0.33250049 0 0 0 -0.00155,0.0072 0.33250049,0.33250049 0 0 0 -5.168e-4,5.17e-4 0.33250049,0.33250049 0 0 0 -5.168e-4,5.16e-4 0.33250049,0.33250049 0 0 0 -5.167e-4,0.0057 0.33250049,0.33250049 0 0 0 -0.00207,0.0093 0.33250049,0.33250049 0 0 0 -0.00878,0.03979 0.33250049,0.33250049 0 0 0 -0.00879,0.03979 0.33250049,0.33250049 0 0 0 -0.00465,0.03101 0.33250049,0.33250049 0 0 0 0.00258,0.01499 0.33250049,0.33250049 0 0 0 0.00258,0.01447 0.33250049,0.33250049 0 0 0 0.00672,0.03617 0.33250049,0.33250049 0 0 0 0.011369,0.0584 0.33250049,0.33250049 0 0 0 0.00207,0.0036 0.33250049,0.33250049 0 0 0 0,5.17e-4 0.33250049,0.33250049 0 0 0 0.00827,0.01292 0.33250049,0.33250049 0 0 0 0.028939,0.04496 0.33250049,0.33250049 0 0 0 0.00775,0.01809 L 8.379845,19.597746 6.0585396,24.55455 a 0.33250049,0.33250049 0 0 0 -0.00103,0.0062 0.33250049,0.33250049 0 0 0 -0.00258,0.0036 0.33250049,0.33250049 0 0 0 -5.168e-4,0.0021 0.33250049,0.33250049 0 0 0 -0.010852,0.05116 0.33250049,0.33250049 0 0 0 -0.010335,0.05581 0.33250049,0.33250049 0 0 0 -0.00207,0.03617 0.33250049,0.33250049 0 0 0 0,0.02119 0.33250049,0.33250049 0 0 0 0.011369,0.03359 0.33250049,0.33250049 0 0 0 0.00413,0.01964 0.33250049,0.33250049 0 0 0 0.013953,0.04858 0.33250049,0.33250049 0 0 0 0.017053,0.02532 0.33250049,0.33250049 0 0 0 0.014986,0.03152 0.33250049,0.33250049 0 0 0 0.018087,0.01705 0.33250049,0.33250049 0 0 0 0.032039,0.03566 0.33250049,0.33250049 0 0 0 0.011369,0.01499 0.33250049,0.33250049 0 0 0 0.03359,0.01447 0.33250049,0.33250049 0 0 0 0.00827,0.0052 0.33250049,0.33250049 0 0 0 0.022738,0.01912 0.33250049,0.33250049 0 0 0 0.0062,10e-4 0.33250049,0.33250049 0 0 0 0.00362,0.0031 L 15.7856,29.122253 a 0.33250049,0.33250049 0 0 0 0.0015,10e-4 0.33250049,0.33250049 0 0 0 0.0026,5.17e-4 l 0.0072,0.0031 a 0.33250049,0.33250049 0 0 0 0.04651,0.0088 0.33250049,0.33250049 0 0 0 0.0098,0.0041 0.33250049,0.33250049 0 0 0 0.02894,0.01189 0.33250049,0.33250049 0 0 0 0.01602,5.17e-4 0.33250049,0.33250049 0 0 0 0.01809,-0.0026 0.33250049,0.33250049 0 0 0 0.0124,-0.0021 0.33250049,0.33250049 0 0 0 0.03256,0.0031 0.33250049,0.33250049 0 0 0 0.04961,-0.01499 0.33250049,0.33250049 0 0 0 0.01964,-0.0026 0.33250049,0.33250049 0 0 0 0.02222,-0.0031 0.33250049,0.33250049 0 0 0 0.0057,-0.001 l 9.703284,-4.12688 a 0.33250049,0.33250049 0 0 0 0.0072,-0.0036 l 0.0047,-0.0026 9.605098,-4.054533 a 0.33250049,0.33250049 0 0 0 0.06046,-0.03411 0.33250049,0.33250049 0 0 0 0.01344,-0.0093 0.33250049,0.33250049 0 0 0 0,-5.17e-4 0.33250049,0.33250049 0 0 0 5.17e-4,0 0.33250049,0.33250049 0 0 0 0.0021,-0.001 0.33250049,0.33250049 0 0 0 0.0031,-0.0031 0.33250049,0.33250049 0 0 0 0.04393,-0.04186 0.33250049,0.33250049 0 0 0 0.03617,-0.05168 0.33250049,0.33250049 0 0 0 10e-4,-0.0015 0.33250049,0.33250049 0 0 0 0.0021,-0.0041 0.33250049,0.33250049 0 0 0 0.0098,-0.02067 0.33250049,0.33250049 0 0 0 0.0036,-0.0041 0.33250049,0.33250049 0 0 0 0.0026,-0.0078 0.33250049,0.33250049 0 0 0 5.16e-4,-0.001 0.33250049,0.33250049 0 0 0 0.0062,-0.01912 0.33250049,0.33250049 0 0 0 0.0016,-0.0031 0.33250049,0.33250049 0 0 0 5.17e-4,-0.0031 0.33250049,0.33250049 0 0 0 0.0078,-0.02429 0.33250049,0.33250049 0 0 0 10e-4,-0.0067 0.33250049,0.33250049 0 0 0 0.0031,-0.02119 0.33250049,0.33250049 0 0 0 0,-5.17e-4 0.33250049,0.33250049 0 0 0 0.0021,-0.0124 0.33250049,0.33250049 0 0 0 0.0015,-0.01085 0.33250049,0.33250049 0 0 0 -5.16e-4,-0.04754 0.33250049,0.33250049 0 0 0 0,-0.0047 0.33250049,0.33250049 0 0 0 -0.0062,-0.03979 0.33250049,0.33250049 0 0 0 -0.0031,-0.0155 0.33250049,0.33250049 0 0 0 -5.17e-4,-0.0016 0.33250049,0.33250049 0 0 0 -10e-4,-0.0047 0.33250049,0.33250049 0 0 0 -5.17e-4,-10e-4 0.33250049,0.33250049 0 0 0 -0.0072,-0.02015 0.33250049,0.33250049 0 0 0 -0.0062,-0.0186 0.33250049,0.33250049 0 0 0 -0.0021,-0.0031 0.33250049,0.33250049 0 0 0 -0.0078,-0.01809 0.33250049,0.33250049 0 0 0 -0.0046,-0.0067 0.33250049,0.33250049 0 0 0 -0.03049,-0.04806 l -3.114539,-3.974435 2.973462,-3.860746 a 0.33250049,0.33250049 0 0 0 10e-4,-0.0015 l 0.0072,-0.0093 a 0.33250049,0.33250049 0 0 0 0.0041,-0.0067 0.33250049,0.33250049 0 0 0 0.02532,-0.04082 0.33250049,0.33250049 0 0 0 0.01033,-0.02067 0.33250049,0.33250049 0 0 0 0.0016,-0.0021 0.33250049,0.33250049 0 0 0 0.0016,-0.0041 0.33250049,0.33250049 0 0 0 0.0088,-0.02532 0.33250049,0.33250049 0 0 0 0.0078,-0.02532 0.33250049,0.33250049 0 0 0 0,-5.17e-4 0.33250049,0.33250049 0 0 0 0.0036,-0.02015 0.33250049,0.33250049 0 0 0 0.0041,-0.08733 0.33250049,0.33250049 0 0 0 0,-5.16e-4 0.33250049,0.33250049 0 0 0 -0.0093,-0.05064 0.33250049,0.33250049 0 0 0 0,-0.0016 0.33250049,0.33250049 0 0 0 -0.0026,-0.01137 0.33250049,0.33250049 0 0 0 -5.17e-4,-0.0016 0.33250049,0.33250049 0 0 0 -0.01344,-0.03514 0.33250049,0.33250049 0 0 0 -5.17e-4,-5.16e-4 0.33250049,0.33250049 0 0 0 -5.16e-4,-10e-4 0.33250049,0.33250049 0 0 0 -0.0083,-0.01912 0.33250049,0.33250049 0 0 0 -0.02222,-0.03566 0.33250049,0.33250049 0 0 0 -0.01292,-0.01809 0.33250049,0.33250049 0 0 0 -0.02274,-0.02532 0.33250049,0.33250049 0 0 0 -0.02067,-0.02015 0.33250049,0.33250049 0 0 0 -0.01395,-0.01292 0.33250049,0.33250049 0 0 0 -0.0052,-0.0021 0.33250049,0.33250049 0 0 0 -0.06511,-0.03876 l -9.61076,-4.1898897 a 0.33250049,0.33250049 0 0 0 -0.0026,-0.00155 0.33250049,0.33250049 0 0 0 -0.0015,0 l -0.0041,-0.00207 a 0.33250049,0.33250049 0 0 0 -0.001,0 0.33250049,0.33250049 0 0 0 -0.0067,-0.00362 L 16.054834,3.9553141 a 0.33250049,0.33250049 0 0 0 -0.0088,-0.00155 0.33250049,0.33250049 0 0 0 -0.0072,-0.00465 0.33250049,0.33250049 0 0 0 -0.03256,-0.00465 0.33250049,0.33250049 0 0 0 -0.02635,-0.00827 0.33250049,0.33250049 0 0 0 -0.0062,-0.00207 0.33250049,0.33250049 0 0 0 -0.0088,-0.00258 0.33250049,0.33250049 0 0 0 -0.01137,0.00103 0.33250049,0.33250049 0 0 0 -0.0186,-0.00155 0.33250049,0.33250049 0 0 0 -0.0083,-0.00155 z M 14.894698,5.0384521 11.043254,9.9409953 7.0781209,8.1994995 Z m 1.035079,0.0031 2.760038,5.8125649 -2.764172,1.231449 -2.732133,-1.200443 z m 1.05575,0.014986 7.663614,3.1424438 -3.808036,1.6965373 z m 0.481624,1.6712158 2.746602,3.4473351 -0.915706,0.407727 z m -3.073198,0.026355 -1.809191,3.8638471 -0.912089,-0.400493 z m 11.173995,2.0649902 4.276225,5.4570309 -4.111894,1.759583 -2.218469,-2.78536 z m 1.000456,0.1984375 7.709607,3.3610354 -3.800802,1.626774 z m -19.2732421,0.00258 3.3243451,1.4603754 -1.0970908,1.396814 z m 17.1384891,0.00362 -2.105298,2.7393674 -1.059367,-1.329634 z m -3.7915,1.6887854 1.269173,1.593185 -1.11001,1.443323 -1.218013,-2.565219 z M 7.7897054,10.734742 9.099703,12.41526 8.7746582,12.829188 Z m 3.4592206,0.02222 1.053682,0.463021 -1.235583,2.639632 -1.1234459,-1.441256 z m 12.684497,0.0083 -0.882634,1.904277 -0.295589,-0.371037 z m -4.958354,0.689881 1.114144,2.345593 -3.316593,-1.364775 z m -6.063712,0.03256 2.170927,0.953947 -3.253549,1.35754 z m 9.426298,1.353406 0.400492,0.502295 -0.602547,1.299145 -0.898653,-0.369486 z M 9.5208659,12.95583 10.583333,14.319055 9.6567749,14.705594 9.0914347,13.503084 Z m 6.4089111,0.03101 2.770374,3.496428 -2.774508,3.610115 -2.77089,-3.554822 z m 18.142045,0.203089 -2.09858,2.724898 -1.071769,-1.367875 z m -17.093013,0.05064 3.201355,1.317233 -1.062468,1.382344 z m -2.094446,0.0041 -2.150773,2.752803 -1.091407,-1.399914 z m 8.316805,0.680061 1.370459,1.720309 -1.820561,-0.749308 z M 8.6320312,14.087512 9.0433757,14.961877 7.4093669,15.64349 Z m 21.6364058,0.730188 1.286226,1.640727 -1.270207,1.648995 -3.815787,-1.663464 z m -9.602515,0.198438 0.656291,1.381311 -0.680062,1.467094 -1.099158,-1.387513 z m 0.763778,0.05581 0.425814,0.175183 -0.169499,0.365353 z m -10.93215,0.0031 -0.332796,0.710551 -0.2247922,-0.478007 z m 0.711585,0.04702 1.102775,1.414901 -1.119828,1.433504 -0.659908,-1.403015 z m 11.261845,0.377755 2.303735,0.947746 -2.232938,0.965832 -0.484725,-1.020609 z m -13.1449343,0.06408 0.4723226,1.00459 -0.3953247,0.843876 -2.1972819,-0.963766 z m 16.4072673,1.285193 4.132564,1.801957 -4.167187,5.411039 -2.119767,-4.46381 z m 6.24458,0.149861 2.198315,2.804997 -3.262849,-1.422652 z m -12.852445,0.02119 1.103808,1.39268 -3.256132,1.407666 z m -6.391858,0.05788 2.125968,2.727482 -3.170866,-1.390612 z m 8.959143,0.100253 0.237195,0.499194 -0.586011,0.253731 z m 2.870626,0.0863 -1.302763,1.662431 -0.433049,-0.912089 z m -17.1441736,0.0041 1.7017049,0.745691 -0.4242635,0.906922 z m 2.7466026,0.08113 0.235128,0.500228 -0.389124,-0.170532 z m 12.04991,0.929659 0.586011,1.233 -0.42478,0.541569 -1.088306,-1.373559 z M 9.7296387,18.281055 10.63811,18.67948 9.5678914,20.049422 9.1529297,19.512504 Z m 20.7646243,0.644405 3.912422,1.705839 -7.742163,3.266984 z m -9.702767,0.196887 1.16427,1.469678 -1.301213,1.660364 -1.100708,-0.460954 z m -9.035624,0.04703 3.333646,1.460892 -2.206583,0.93586 z m -0.704867,0.06201 1.220081,2.594674 -1.00149,0.42478 -1.2820919,-1.658813 z m 8.955526,0.0036 -1.066085,2.299601 -2.161108,-0.904338 z m 3.113505,0.948779 0.958081,2.016931 -1.276408,-1.610754 z m -14.2838828,0.0052 0.3095418,0.400492 -1.2407512,1.5875 z m 7.0900068,0.807702 2.733683,1.1436 -2.7342,5.896797 -2.759522,-5.868892 z m 6.453869,0.131258 2.189014,2.762622 -3.27887,-1.372009 z m -12.8147214,0.0047 1.0717694,1.386996 -3.2240928,1.367358 z m 9.7079344,1.264006 0.954981,0.399459 -2.792595,3.563606 z m -6.719486,0.03152 1.782837,3.7915 -2.646867,-3.424597 z m 8.310604,0.63407 3.909322,1.635559 -7.786088,3.311426 z m -9.807154,0.001 3.820956,4.945434 -7.672917,-3.310392 z" />
    </g>
    <g
       id="g62"
       class="hidden-shapes">
      <path
         style="stroke-linecap:round;stroke-linejoin:round;stroke-miterlimit:9"
         d="m 6.2246094,5.078125 c -1.7138446,0 -3.1074219,1.3955304 -3.1074219,3.109375 10e-8,1.7138446 1.3935773,3.107422 3.1074219,3.107422 1.7138446,0 3.1074218,-1.3935774 3.1074219,-3.107422 0,-1.7138446 -1.3935773,-3.109375 -3.1074219,-3.109375 z m 0,0.4453125 c 1.473025,0 2.6621094,1.1910374 2.6621094,2.6640625 -1e-7,1.473025 -1.1890844,2.662109 -2.6621094,2.662109 -1.473025,0 -2.6621093,-1.189084 -2.6621094,-2.662109 0,-1.4730251 1.1890843,-2.6640625 2.6621094,-2.6640625 z"
         id="path18" />
      <path
         style="stroke-linecap:round;stroke-linejoin:round;stroke-miterlimit:9"
         d="m 6.359375,21.587891 c -1.7138446,0 -3.1074219,1.393577 -3.1074219,3.107421 0,1.713845 1.3935773,3.107422 3.1074219,3.107422 1.7138447,0 3.109375,-1.393577 3.109375,-3.107422 0,-1.713844 -1.3955303,-3.107421 -3.109375,-3.107421 z m 0,0.445312 c 1.4730251,0 2.6621094,1.189084 2.6621094,2.662109 0,1.473026 -1.1890843,2.66211 -2.6621094,2.66211 -1.4730251,0 -2.6621094,-1.189084 -2.6621094,-2.66211 0,-1.473025 1.1890843,-2.662109 2.6621094,-2.662109 z"
         id="path18-2" />
      <path
         style="stroke-linecap:round;stroke-linejoin:round;stroke-miterlimit:9"
         d="m 15.927734,1.1542969 c -1.713844,0 -3.107421,1.3935772 -3.107421,3.1074218 0,1.7138447 1.393577,3.1093751 3.107421,3.109375 1.713845,0 3.107422,-1.3955303 3.107422,-3.109375 0,-1.7138446 -1.393577,-3.1074218 -3.107422,-3.1074218 z m 0,0.4453125 c 1.473025,0 2.66211,1.1890843 2.66211,2.6621093 0,1.4730251 -1.189085,2.6640625 -2.66211,2.6640625 -1.473025,0 -2.662109,-1.1910374 -2.662109,-2.6640625 0,-1.473025 1.189084,-2.6621093 2.662109,-2.6621093 z"
         id="path18-2-1" />
      <path
         style="stroke-linecap:round;stroke-linejoin:round;stroke-miterlimit:9"
         d="m 15.927734,17.505859 c -1.713844,0 -3.107421,1.393578 -3.107421,3.107422 0,1.713845 1.393577,3.107422 3.107421,3.107422 1.713845,0 3.107422,-1.393577 3.107422,-3.107422 0,-1.713844 -1.393577,-3.107422 -3.107422,-3.107422 z m 0,0.445313 c 1.473025,0 2.66211,1.189084 2.66211,2.662109 0,1.473025 -1.189085,2.66211 -2.66211,2.66211 -1.473025,0 -2.662109,-1.189085 -2.662109,-2.66211 0,-1.473025 1.189084,-2.662109 2.662109,-2.662109 z"
         id="path18-2-1-5" />
      <path
         style="stroke-linecap:round;stroke-linejoin:round;stroke-miterlimit:9"
         d="m 25.630859,21.587891 c -1.713844,0 -3.107422,1.393577 -3.107422,3.107421 0,1.713845 1.393578,3.107422 3.107422,3.107422 1.713845,0 3.107422,-1.393577 3.107422,-3.107422 0,-1.713844 -1.393577,-3.107421 -3.107422,-3.107421 z m 0,0.445312 c 1.473025,0 2.66211,1.189084 2.66211,2.662109 0,1.473026 -1.189085,2.66211 -2.66211,2.66211 -1.473025,0 -2.662109,-1.189084 -2.662109,-2.66211 0,-1.473025 1.189084,-2.662109 2.662109,-2.662109 z"
         id="path18-2-1-5-1" />
      <path
         style="stroke-linecap:round;stroke-linejoin:round;stroke-miterlimit:9"
         d="m 35.115234,9.2734375 c -1.713844,0 -3.109375,1.3935775 -3.109375,3.1074215 0,1.713845 1.395531,3.109375 3.109375,3.109375 1.713845,0 3.107422,-1.39553 3.107422,-3.109375 0,-1.713844 -1.393577,-3.1074215 -3.107422,-3.1074215 z m 0,0.4453125 c 1.473025,0 2.66211,1.189084 2.66211,2.662109 0,1.473025 -1.189085,2.66211 -2.66211,2.66211 -1.473025,0 -2.662109,-1.189085 -2.662109,-2.66211 0,-1.473025 1.189084,-2.662109 2.662109,-2.662109 z"
         id="path18-2-1-5-1-2" />
      <path
         id="path56"
         style="fill:#473c3a;stroke-linecap:round;stroke-linejoin:round;stroke-miterlimit:9"
         d="m 15.898254,3.6803955 a 0.58249998,0.58249998 0 0 0 -0.0124,0.0031 0.58249998,0.58249998 0 0 0 -0.04186,0.010852 0.58249998,0.58249998 0 0 0 -0.04909,0.011886 0.58249998,0.58249998 0 0 0 -0.08578,0.016536 L 6.005835,7.6465617 A 0.58249998,0.58249998 0 0 0 5.683374,8.4041382 0.58249998,0.58249998 0 0 0 6.4435343,8.7265991 L 14.771708,5.358846 5.8322021,24.447087 a 0.58249998,0.58249998 0 0 0 -0.00258,0.01499 0.58249998,0.58249998 0 0 0 -0.046509,0.260966 0.58249998,0.58249998 0 0 0 0.01602,0.077 0.58249998,0.58249998 0 0 0 0.025321,0.121956 0.58249998,0.58249998 0 0 0 0.040308,0.05891 0.58249998,0.58249998 0 0 0 0.052193,0.077 0.58249998,0.58249998 0 0 0 0.1550293,0.130225 0.58249998,0.58249998 0 0 0 0.041341,0.03462 0.58249998,0.58249998 0 0 0 0.01602,0.0026 0.58249998,0.58249998 0 0 0 0.2604493,0.04599 0.58249998,0.58249998 0 0 0 0.069246,-0.01395 0.58249998,0.58249998 0 0 0 0.1286743,-0.02687 l 9.339998,-3.962549 9.478491,3.964616 a 0.58255823,0.58255823 0 0 0 0.118856,0.02119 0.58249998,0.58249998 0 0 0 0.08837,0.01602 0.58255823,0.58255823 0 0 0 0.221692,-0.04082 0.58249998,0.58249998 0 0 0 0.04599,-0.0083 0.58249998,0.58249998 0 0 0 0.01137,-0.0067 0.58255823,0.58255823 0 0 0 0.01344,-0.0078 0.58249998,0.58249998 0 0 0 0.176734,-0.147794 0.58255823,0.58255823 0 0 0 0.0093,-0.0078 l 9.484176,-12.314493 a 0.58249998,0.58249998 0 0 0 -0.10542,-0.816488 0.58249998,0.58249998 0 0 0 -0.818555,0.105937 L 25.748816,23.587708 16.455843,4.0168091 a 0.58249998,0.58249998 0 0 0 -0.0026,-0.00517 0.58249998,0.58249998 0 0 0 -0.0015,-0.00207 0.58249998,0.58249998 0 0 0 -0.129191,-0.1731161 0.58249998,0.58249998 0 0 0 -0.01499,-0.012919 0.58249998,0.58249998 0 0 0 -0.133842,-0.0894 0.58249998,0.58249998 0 0 0 -0.01137,-0.00207 0.58249998,0.58249998 0 0 0 -0.02067,-0.00775 0.58249998,0.58249998 0 0 0 -0.0186,-0.011369 0.58249998,0.58249998 0 0 0 -0.114205,-0.016536 0.58249998,0.58249998 0 0 0 -0.09147,-0.013436 0.58249998,0.58249998 0 0 0 -0.01912,-0.00258 z m 0.03359,1.947168 8.52041,17.9425745 -8.299752,-3.472657 a 0.58249998,0.58249998 0 0 0 -0.0067,-10e-4 0.58249998,0.58249998 0 0 0 -0.261483,-0.03514 0.58249998,0.58249998 0 0 0 -0.08165,0.01705 0.58249998,0.58249998 0 0 0 -0.103353,0.02119 L 7.53184,23.56497 Z" />
      <path
         id="path3-1"
         style="stroke-width:0.0533078;stroke-linecap:round;stroke-linejoin:round;stroke-miterlimit:9"
         d="M 8.4978542,8.1866335 A 2.2733116,2.2733116 0 0 1 6.2245426,10.459945 2.2733116,2.2733116 0 0 1 3.951231,8.1866335 2.2733116,2.2733116 0 0 1 6.2245426,5.9133219 2.2733116,2.2733116 0 0 1 8.4978542,8.1866335 Z" />
      <path
         id="circle4-8"
         style="stroke-width:0.0533078;stroke-linecap:round;stroke-linejoin:round;stroke-miterlimit:9"
         d="M 8.6331677,24.695215 A 2.2733116,2.2733116 0 0 1 6.3598561,26.968527 2.2733116,2.2733116 0 0 1 4.0865445,24.695215 2.2733116,2.2733116 0 0 1 6.3598561,22.421904 2.2733116,2.2733116 0 0 1 8.6331677,24.695215 Z" />
      <path
         id="circle5-9"
         style="stroke-width:0.0533078;stroke-linecap:round;stroke-linejoin:round;stroke-miterlimit:9"
         d="M 18.200948,4.2624549 A 2.2733116,2.2733116 0 0 1 15.927636,6.5357665 2.2733116,2.2733116 0 0 1 13.654325,4.2624549 2.2733116,2.2733116 0 0 1 15.927636,1.9891433 2.2733116,2.2733116 0 0 1 18.200948,4.2624549 Z" />
      <path
         id="circle7-2"
         style="stroke-width:0.0533078;stroke-linecap:round;stroke-linejoin:round;stroke-miterlimit:9"
         d="m 18.200948,20.635729 a 2.2733116,2.2733116 0 0 1 -2.273312,2.273311 2.2733116,2.2733116 0 0 1 -2.273311,-2.273311 2.2733116,2.2733116 0 0 1 2.273311,-2.273312 2.2733116,2.2733116 0 0 1 2.273312,2.273312 z" />
      <path
         id="circle11-7"
         style="stroke-width:0.0533078;stroke-linecap:round;stroke-linejoin:round;stroke-miterlimit:9"
         d="m 27.904041,24.695215 a 2.2733116,2.2733116 0 0 1 -2.273311,2.273312 2.2733116,2.2733116 0 0 1 -2.273312,-2.273312 2.2733116,2.2733116 0 0 1 2.273312,-2.273311 2.2733116,2.2733116 0 0 1 2.273311,2.273311 z" />
      <path
         id="circle12-9"
         style="stroke-width:0.0533078;stroke-linecap:round;stroke-linejoin:round;stroke-miterlimit:9"
         d="m 37.387859,12.381438 a 2.2733116,2.2733116 0 0 1 -2.273311,2.273312 2.2733116,2.2733116 0 0 1 -2.273312,-2.273312 2.2733116,2.2733116 0 0 1 2.273312,-2.273311 2.2733116,2.2733116 0 0 1 2.273311,2.273311 z" />
    </g>
  </g>
</svg>
