<?xml version="1.0" encoding="UTF-8" standalone="no"?>
<!-- Created with Inkscape (http://www.inkscape.org/) -->

<svg
   width="40.456081mm"
   height="32.343285mm"
   viewBox="0 0 40.456081 32.343285"
   version="1.1"
   id="svg1"
   xml:space="preserve"
   xmlns="http://www.w3.org/2000/svg"
   xmlns:svg="http://www.w3.org/2000/svg"><defs
     id="defs1" /><g
     id="g63"><g
       id="g70"
       class="visible-shapes"><path
         style="stroke-linecap:round;stroke-linejoin:round;stroke-miterlimit:9"
         d="M 2.6757813,2.2226563 A 0.58255823,0.58255823 0 0 0 2.0917969,2.8066406 V 29.492187 a 0.58255823,0.58255823 0 0 0 0.5839844,0.583985 H 37.322266 A 0.58255823,0.58255823 0 0 0 37.90625,29.492187 V 2.8066406 A 0.58255823,0.58255823 0 0 0 37.322266,2.2226563 Z M 3.2578125,3.3886719 H 36.740234 V 28.910156 H 3.2578125 Z"
         id="rect63" /><path
         style="stroke-linecap:round;stroke-linejoin:round;stroke-miterlimit:9"
         d="M 2.8066406,6.5625 A 0.58249998,0.58249998 0 0 0 2.2226563,7.1445312 0.58249998,0.58249998 0 0 0 2.8066406,7.7265625 H 37.095703 A 0.58249998,0.58249998 0 0 0 37.677734,7.1445312 0.58249998,0.58249998 0 0 0 37.095703,6.5625 Z"
         id="path63" /><path
         d="M 3.9498988,4.0813912 H 4.5941321 V 5.0064 q 0,0.1085206 0.022393,0.1515843 0.022393,0.041341 0.08096,0.041341 0.1085206,0 0.1085206,-0.1929255 V 4.0813912 H 5.4502388 V 5.0064 q 0,0.1085206 0.022393,0.1515843 0.024116,0.041341 0.082682,0.041341 0.1067981,0 0.1067981,-0.1929255 V 4.0813912 h 0.6442332 v 1.057645 q 0,0.2893883 -0.194648,0.492649 -0.194648,0.2015382 -0.4719784,0.2015382 -0.2859431,0 -0.5133195,-0.2411568 -0.2514922,0.2411568 -0.5064294,0.2411568 -0.3221166,0 -0.5167647,-0.2342666 Q 3.9498988,5.4146441 3.9498988,5.0666892 Z m 2.733685,0 H 7.3278171 V 5.0064 q 0,0.1085206 0.022393,0.1515843 0.022393,0.041341 0.08096,0.041341 0.1085206,0 0.1085206,-0.1929255 V 4.0813912 H 8.1839239 V 5.0064 q 0,0.1085206 0.022393,0.1515843 0.024116,0.041341 0.082682,0.041341 0.1067981,0 0.1067981,-0.1929255 V 4.0813912 h 0.6442332 v 1.057645 q 0,0.2893883 -0.194648,0.492649 -0.194648,0.2015382 -0.4719784,0.2015382 -0.2859431,0 -0.5133195,-0.2411568 -0.2514922,0.2411568 -0.5064294,0.2411568 -0.3221166,0 -0.5167646,-0.2342666 Q 6.6835838,5.4146441 6.6835838,5.0666892 Z m 2.733685,0 H 10.061502 V 5.0064 q 0,0.1085206 0.02239,0.1515843 0.02239,0.041341 0.08096,0.041341 0.108521,0 0.108521,-0.1929255 V 4.0813912 h 0.644233 V 5.0064 q 0,0.1085206 0.02239,0.1515843 0.02412,0.041341 0.08268,0.041341 0.106798,0 0.106798,-0.1929255 V 4.0813912 h 0.644234 v 1.057645 q 0,0.2893883 -0.194648,0.492649 -0.194648,0.2015382 -0.471979,0.2015382 -0.285943,0 -0.513319,-0.2411568 -0.251492,0.2411568 -0.50643,0.2411568 -0.3221163,0 -0.5167643,-0.2342666 Q 9.4172688,5.4146441 9.4172688,5.0666892 Z"
         id="text63"
         style="font-size:3.52778px;line-height:1.25;font-family:'Bauhaus 93';-inkscape-font-specification:'Bauhaus 93, ';text-align:center;text-anchor:middle;stroke-width:0.264583"
         aria-label="www" /><path
         id="rect64"
         style="stroke-width:1.25982;stroke-linecap:round;stroke-linejoin:round;stroke-miterlimit:9"
         d="M 12.984821,4.1107726 H 36.148699 V 5.9377828 H 12.984821 Z" /></g><g
       id="g69"
       class="hidden-shapes"><path
         id="w1"
         style="font-variation-settings:normal;vector-effect:none;fill:#000000;fill-opacity:1;stroke:none;stroke-width:0.410068px;stroke-linecap:butt;stroke-linejoin:miter;stroke-miterlimit:4;stroke-dasharray:none;stroke-dashoffset:0;stroke-opacity:1;-inkscape-stroke:none;stop-color:#000000"
         d="m -88.010706,-15.201897 -4.985602,16.9849545 -0.193734,-2.978648 -3.32979,0.027244 0.847583,12.0598905 h 3.263194 l 0.911151,-3.051297 0.214923,3.051297 h 3.263194 l 7.791708,-26.093442 h -3.393358 l -4.985603,16.9849556 -0.193734,-2.978648 4.183427,-14.0063076 z m 19.270401,0 -3.229895,11.5906955 2.981675,0.060542 3.163301,-11.6512375 z M -118.8143,-14.878 c -0.0776,-1.35e-4 -0.15452,0.0023 -0.23308,0.0061 -0.62818,0.02988 -1.19735,0.180176 -1.71029,0.448008 -0.45785,0.243066 -0.83623,0.550146 -1.13213,0.923261 -0.28902,0.369999 -0.55802,0.884917 -0.80824,1.543811 l -2.65475,7.5737584 3.27834,-0.054488 2.53669,-6.6807694 c 0.22368,-0.589073 0.57015,-0.791581 1.04435,-0.611471 0.46919,0.178188 0.62312,0.48187 0.46011,0.911152 -0.17819,0.469222 -0.57265,0.58733 -1.18661,0.354169 l -1.02014,2.6789672 0.46315,0.184652 c 1.16804,0.4436181 2.14833,0.4873204 2.94535,0.1331908 0.87088,-0.3832198 1.49881,-1.0762995 1.87981,-2.0796051 0.3924,-1.0332649 0.36776,-2.0348659 -0.0756,-3.0028649 -0.43843,-0.966108 -1.17756,-1.645967 -2.21581,-2.040254 -0.50228,-0.190794 -1.02733,-0.286624 -1.57107,-0.287573 z m 8.43952,2.733455 c -0.60006,0.0063 -1.18997,0.149722 -1.76782,0.432873 -1.02225,0.505086 -1.72012,1.306059 -2.09172,2.4035029 -0.38187,1.1278064 -0.32051,2.1942738 0.18465,3.1996252 0.50517,1.0053515 1.32917,1.7003627 2.46708,2.0856593 0.19218,0.065094 0.41056,0.1160994 0.65688,0.1543811 l 0.99287,-2.933242 c -0.25692,0.059515 -0.50896,0.047522 -0.75676,-0.036324 -0.30344,-0.1027406 -0.51905,-0.2909224 -0.6478,-0.5600101 -0.1288,-0.2690722 -0.13949,-0.5582461 -0.0333,-0.8717995 0.10105,-0.2983801 0.29614,-0.5221305 0.58726,-0.6659581 0.29109,-0.1438275 0.5855,-0.1646199 0.8839,-0.063569 0.32873,0.1112959 0.5482,0.3177855 0.6599,0.6205517 0.11671,0.3044867 0.10803,0.6569272 -0.0273,1.0564516 l -1.1866,3.5053605 3.26621,-0.018163 0.82639,-2.7304276 c 0.41955,-1.2390557 0.39695,-2.334584 -0.0696,-3.2874105 -0.45981,-0.9561735 -1.30071,-1.6409845 -2.52459,-2.0553885 -0.48013,-0.16258 -0.953,-0.241011 -1.41969,-0.236112 z m 14.230307,0.13622 c -0.600052,0.0063 -1.189966,0.149721 -1.767816,0.432872 -1.02224,0.505086 -1.72012,1.306059 -2.091721,2.4035032 -0.38187,1.1278063 -0.32051,2.1942737 0.184661,3.1996252 0.50516,1.0053514 1.32613,1.7003626 2.46404,2.0856593 0.19218,0.065094 0.41358,0.1191265 0.659907,0.1574082 l 0.992882,-2.9362692 c -0.256932,0.059515 -0.508959,0.047524 -0.75677,-0.036324 -0.30344,-0.1027406 -0.519049,-0.2909223 -0.647799,-0.56001 -0.12873,-0.2690722 -0.13945,-0.5582462 -0.0333,-0.8717995 0.10104,-0.2983802 0.296155,-0.5191034 0.587257,-0.6629309 0.291102,-0.1438276 0.585523,-0.1676471 0.883907,-0.066596 0.328729,0.1112959 0.548205,0.3208126 0.659904,0.6235789 0.116751,0.3044866 0.108041,0.6539 -0.02725,1.0534244 l -1.186616,3.5053605 3.266221,-0.018163 0.826393,-2.7304274 c 0.419546,-1.2390557 0.396957,-2.3345842 -0.06962,-3.2874107 -0.45981,-0.956174 -1.300704,-1.640985 -2.524586,-2.055388 -0.480135,-0.16258 -0.952996,-0.241011 -1.4197,-0.236112 z m 19.455052,0.09687 c -1.185351,0 -2.18896,0.40155 -3.005891,1.207805 -0.811592,0.8062559 -1.216887,1.7941859 -1.216887,2.9635131 0,1.1746743 0.40458,2.1588547 1.210833,2.9544318 0.806251,0.7955616 1.802378,1.1956971 2.987729,1.1956971 0.971773,0 1.85615,-0.3136908 2.651724,-0.9383952 l -1.707275,-2.0493343 c -0.277649,0.2989381 -0.566738,0.448008 -0.865745,0.448008 -0.368421,0 -0.666421,-0.1609486 -0.896017,-0.4813058 -0.22425,-0.3203728 -0.336006,-0.7383203 -0.336006,-1.2562389 0,-0.4965615 0.116209,-0.9018612 0.351142,-1.2168869 0.234934,-0.3203727 0.54042,-0.481306 0.914179,-0.481306 0.56064,0 0.895178,0.2972779 1.001964,0.8899621 h -1.522622 c 0.0085,0.029199 2.229646,2.2517322 3.441791,3.783852 0.943318,-1.1981237 1.061216,-1.8359274 1.089749,-2.9271879 0.03015,-1.1529141 -0.393354,-2.124127 -1.183589,-2.9090251 -0.784893,-0.79023 -1.756425,-1.183589 -2.915079,-1.183589 z m -25.033959,0.08476 c -0.7973,-0.0062 -1.48866,0.231538 -2.07355,0.714391 -0.71913,0.589011 -0.94758,1.5056345 -1.31981,2.597236 l -1.57711,4.6284078 3.16329,0.00303 1.29862,-3.6415792 c 0.2494,-0.6996249 0.45055,-1.3049386 0.98987,-1.2289952 0.16918,0.023806 0.37319,0.048354 0.53276,0.3571958 0.10911,-0.8131681 0.28499,-1.6736222 1.235051,-2.6153982 -0.33167,-0.322078 -1.447391,-0.739204 -1.680031,-0.771906 -0.19531,-0.02747 -0.38511,-0.04095 -0.56909,-0.04238 z m 31.872136,11.2698245 -3.372168,11.3818265 3.045244,0.0787 3.347952,-11.4242051 z M -81.93838,2.4248003 c -1.206709,0 -2.222973,0.3978149 -3.045245,1.1987235 -0.822269,0.7955771 -1.232021,1.779046 -1.232021,2.9483772 0,1.147975 0.409752,2.131444 1.232021,2.948378 0.822272,0.811592 1.813941,1.216886 2.972595,1.216886 1.158655,0 2.146582,-0.405294 2.963513,-1.216886 0.822269,-0.811593 1.23505,-1.795061 1.23505,-2.948378 0,-1.1373017 -0.408323,-2.112578 -1.219915,-2.9241605 -0.806253,-0.8169343 -1.774042,-1.2229402 -2.905998,-1.2229402 z m 8.345664,0.5024959 c -0.797291,-0.0062 -1.485635,0.2315376 -2.070524,0.7143905 -0.71912,0.589011 -0.947568,1.5056341 -1.319807,2.5972358 l -1.580136,4.6284065 3.166326,0.0031 1.298618,-3.64158 c 0.249406,-0.699625 0.444492,-1.1989897 0.983802,-1.1230465 0.169195,0.02381 0.348977,0.10587 0.53882,0.2512475 l 1.06856,-2.9695661 c -0.841188,-0.2109057 -1.166378,-0.3684527 -1.516568,-0.4177384 -0.195301,-0.027473 -0.3851,-0.040949 -0.569091,-0.042378 z m 14.411935,0.257301 c -0.560577,-0.00527 -1.060488,0.130914 -1.504459,0.4086562 -0.406465,0.2529179 -0.705521,0.5408008 -0.896016,0.8596919 -0.185321,0.3203154 -0.401403,0.9027953 -0.644769,1.7526802 -0.155129,0.5205785 -0.356507,0.8622045 -0.608443,1.0201255 -0.245445,0.153674 -0.602932,0.165615 -1.06856,0.03633 l -0.130158,-0.03633 -0.784015,3.341898 0.402603,0.112002 c 0.998518,0.27725 1.811718,0.31929 2.436801,0.121091 1.181473,-0.385523 2.029746,-1.373816 2.545775,-2.963513 0.156237,-0.478298 0.329313,-0.77744 0.517631,-0.899043 0.194815,-0.125827 0.496381,-0.134722 0.905098,-0.02119 l 0.77796,-3.3267613 -0.874827,-0.2421665 c -0.378325,-0.1050431 -0.738267,-0.1603035 -1.074615,-0.1634637 z m -7.234725,0.3602229 -2.097767,2.2672846 0.172544,4.9916563 2.893889,0.01816 -0.220977,-4.016937 2.237014,-2.3671781 z m -15.604605,1.8344118 c 0.325706,0 0.602138,0.1162027 0.826393,0.3511407 0.224255,0.2295971 0.336006,0.5142269 0.336006,0.8506094 0,0.331042 -0.115496,0.612645 -0.345087,0.847583 -0.224256,0.234928 -0.496947,0.354169 -0.817312,0.354169 -0.315026,0 -0.58469,-0.119241 -0.814286,-0.354169 -0.224254,-0.234938 -0.339033,-0.516541 -0.339033,-0.847583 0,-0.3363825 0.114783,-0.6210123 0.339033,-0.8506094 0.224257,-0.234938 0.493921,-0.3511407 0.814286,-0.3511407 z"
         transform="matrix(0.35398752,0,0,0.33522502,52.550356,14.543763)" /><path
         style="stroke-linecap:round;stroke-linejoin:round;stroke-miterlimit:9"
         d="m 10.150391,20.134766 a 0.58249998,0.58249998 0 0 0 -0.5820316,0.582031 0.58249998,0.58249998 0 0 0 0.5820316,0.582031 h 8.121093 a 0.58249998,0.58249998 0 0 0 0.582032,-0.582031 0.58249998,0.58249998 0 0 0 -0.582032,-0.582031 z"
         id="path64" /><path
         style="stroke-linecap:round;stroke-linejoin:round;stroke-miterlimit:9"
         d="m 10.103516,22.716797 a 0.58249998,0.58249998 0 0 0 -0.5820316,0.583984 0.58249998,0.58249998 0 0 0 0.5820316,0.582031 h 19.978515 a 0.58249998,0.58249998 0 0 0 0.583985,-0.582031 0.58249998,0.58249998 0 0 0 -0.583985,-0.583984 z"
         id="path66" /><path
         style="stroke-linecap:round;stroke-linejoin:round;stroke-miterlimit:9"
         d="m 10.103516,24.517578 a 0.58249998,0.58249998 0 0 0 -0.5820316,0.582031 0.58249998,0.58249998 0 0 0 0.5820316,0.582032 h 19.978515 a 0.58249998,0.58249998 0 0 0 0.583985,-0.582032 0.58249998,0.58249998 0 0 0 -0.583985,-0.582031 z"
         id="path67" /><path
         style="stroke-linecap:round;stroke-linejoin:round;stroke-miterlimit:9"
         d="m 10.103516,26.316406 a 0.58249998,0.58249998 0 0 0 -0.5820316,0.582031 0.58249998,0.58249998 0 0 0 0.5820316,0.583985 h 19.978515 a 0.58249998,0.58249998 0 0 0 0.583985,-0.583985 0.58249998,0.58249998 0 0 0 -0.583985,-0.582031 z"
         id="path68" /></g></g></svg>
