<?xml version="1.0" encoding="UTF-8" standalone="no"?>
<!-- Generado por Microsoft Visio, SVG Export gintegrator-logo.svg Page-1 -->

<svg
   width="601.06897pt"
   height="184.507pt"
   viewBox="0 0 601.06949 184.50681"
   xml:space="preserve"
   color-interpolation-filters="sRGB"
   class="st4"
   version="1.1"
   id="svg7"
   sodipodi:docname="gintegrator-logo.svg"
   inkscape:version="1.4 (86a8ad7, 2024-10-11)"
   inkscape:export-filename="gintegrator-logo.svg"
   inkscape:export-xdpi="400"
   inkscape:export-ydpi="400"
   xmlns:inkscape="http://www.inkscape.org/namespaces/inkscape"
   xmlns:sodipodi="http://sodipodi.sourceforge.net/DTD/sodipodi-0.dtd"
   xmlns="http://www.w3.org/2000/svg"
   xmlns:svg="http://www.w3.org/2000/svg"
   xmlns:v="http://schemas.microsoft.com/visio/2003/SVGExtensions/"><defs
   id="defs7" /><sodipodi:namedview
   id="namedview7"
   pagecolor="#ffffff"
   bordercolor="#000000"
   borderopacity="0.25"
   inkscape:showpageshadow="2"
   inkscape:pageopacity="0.0"
   inkscape:pagecheckerboard="0"
   inkscape:deskcolor="#d1d1d1"
   inkscape:document-units="in"
   inkscape:zoom="1.9523588"
   inkscape:cx="396.95572"
   inkscape:cy="166.2092"
   inkscape:window-width="3840"
   inkscape:window-height="2050"
   inkscape:window-x="3348"
   inkscape:window-y="-12"
   inkscape:window-maximized="1"
   inkscape:current-layer="svg7"
   inkscape:export-bgcolor="#ffffffff" />
	<v:documentProperties
   v:langID="3082"
   v:metric="true"
   v:viewMarkup="false">
		<v:userDefs>
			<v:ud
   v:nameU="msvNoAutoConnect"
   v:val="VT0(1):26" />
		</v:userDefs>
	</v:documentProperties>

	<style
   type="text/css"
   id="style1">
	<![CDATA[
		.st1 {fill:#000000;stroke:none;stroke-linecap:butt;stroke-width:9.375}
		.st2 {fill:none;stroke:none;stroke-linecap:round;stroke-linejoin:round;stroke-width:0.75}
		.st3 {fill:#000000;font-family:Shoika-Retina;font-size:6.66666em}
		.st4 {fill:none;fill-rule:evenodd;font-size:12px;overflow:visible;stroke-linecap:square;stroke-miterlimit:3}
	]]>
	</style>

	<rect
   style="fill:#ffffff;stroke:#000000;stroke-width:0.467717;stroke-linecap:round;stroke-linejoin:round;stroke-miterlimit:9;fill-opacity:1"
   id="rect1"
   width="601.06952"
   height="184.50716"
   x="0"
   y="-0.0001767449" /><g
   v:mID="0"
   v:index="1"
   v:groupContext="foregroundPage"
   id="g7"
   transform="translate(-4.5000036,-9.0000072)"
   style="opacity:0.65">
		<title
   id="title1">Página-1</title>
		<v:pageProperties
   v:drawingScale="0.0393701"
   v:pageScale="0.0393701"
   v:drawingUnits="24"
   v:shadowOffsetX="9"
   v:shadowOffsetY="-9" />
		<g
   id="group1000-1"
   transform="translate(27.375,-27.375)"
   v:mID="1000"
   v:groupContext="group">
			<title
   id="title2">Hoja.1000</title>
			<g
   id="group1001-2"
   v:mID="1001"
   v:groupContext="group">
				<title
   id="title3">Hoja.1001</title>
				<g
   id="shape1002-3"
   v:mID="1002"
   v:groupContext="shape"
   transform="translate(29.6966,-50.615)">
					<title
   id="title4">Hoja.1002</title>
					<path
   d="m 18.89,169.8 c -1.04,-1.04 -2.72,-1.04 -3.76,0 L 1.04,183.88 c -1.04,1.04 -1.04,2.73 0,3.77 l 14.09,14.08 c 0.53,0.54 1.2,0.78 1.89,0.78 0.7,0 1.36,-0.27 1.9,-0.78 l 14.09,-14.08 c 1.04,-1.04 1.04,-2.73 0,-3.77 z m -1.87,26.28 -10.3,-10.3 10.3,-10.3 10.3,10.3 z"
   class="st1"
   id="path4" />
				</g>
				<g
   id="shape1003-5"
   v:mID="1003"
   v:groupContext="shape"
   transform="translate(26.8417,-8.93834)">
					<title
   id="title5">Hoja.1003</title>
					<path
   d="m 18.89,169.8 c -1.04,-1.04 -2.72,-1.04 -3.76,0 L 1.04,183.88 c -1.04,1.04 -1.04,2.73 0,3.77 l 14.09,14.08 c 0.53,0.54 1.2,0.78 1.89,0.78 0.7,0 1.36,-0.27 1.9,-0.78 l 14.09,-14.08 c 0.5,-0.51 0.77,-1.18 0.77,-1.9 0,-0.72 -0.29,-1.39 -0.77,-1.89 z M 17,196.08 6.7,185.78 17,175.48 l 10.3,10.3 z"
   class="st1"
   id="path5" />
				</g>
				<g
   id="shape1004-7"
   v:mID="1004"
   v:groupContext="shape">
					<title
   id="title6">Hoja.1004</title>
					<path
   d="M 77.19,75.53 40.4,55.09 c -0.75,-0.43 -1.68,-0.45 -2.46,-0.08 -0.77,0.38 -1.33,1.12 -1.47,1.98 l -3.89,24.3 H 2.67 C 1.2,81.29 0,82.49 0,83.96 v 26.74 89.14 c 0,1.47 1.2,2.67 2.67,2.67 h 64.67 c 1.47,0 2.67,-1.2 2.67,-2.67 V 117.21 83.96 c 0,-1.47 -1.2,-2.67 -2.67,-2.67 H 37.97 L 41.12,61.6 74.58,80.2 c 1.28,0.72 2.9,0.24 3.62,-1.04 0.72,-1.31 0.27,-2.94 -1.01,-3.63 z M 5.34,86.63 h 26.38 l -4.45,27.83 c -0.08,0.02 -0.16,0.02 -0.24,0.05 -1.66,0.29 -3.34,0.4 -5.02,0.32 -0.29,-0.03 -0.61,-0.05 -0.9,-0.08 -0.54,-0.05 -1.07,-0.11 -1.58,-0.19 -0.35,-0.05 -0.67,-0.13 -0.99,-0.18 -0.5,-0.11 -1.04,-0.24 -1.54,-0.38 -0.3,-0.08 -0.62,-0.16 -0.91,-0.26 -0.59,-0.19 -1.15,-0.4 -1.74,-0.64 -0.21,-0.08 -0.45,-0.16 -0.66,-0.27 -0.8,-0.35 -1.58,-0.75 -2.35,-1.2 -1.12,-0.67 -2.29,-1.25 -3.5,-1.79 C 7.5,109.68 7.12,109.55 6.78,109.39 6.3,109.2 5.84,108.96 5.36,108.8 V 86.63 Z m 28.57,68.12 -10.3,10.3 -10.3,-10.3 10.3,-10.3 z m 30.77,42.42 H 5.34 v -82.63 c 1.06,0.48 2.1,1.01 3.12,1.6 0.05,0.03 0.08,0.05 0.13,0.08 1.02,0.59 2.08,1.12 3.15,1.57 0.29,0.14 0.61,0.24 0.91,0.38 0.8,0.32 1.6,0.58 2.4,0.82 0.35,0.11 0.67,0.22 1.01,0.3 1.07,0.26 2.14,0.5 3.2,0.64 0.27,0.02 0.54,0.05 0.8,0.08 0.86,0.1 1.71,0.16 2.57,0.16 0.16,0 0.34,0.02 0.5,0.02 0.3,0 0.59,-0.02 0.88,-0.05 0.48,-0.03 0.94,-0.03 1.42,-0.08 0.32,-0.03 0.64,-0.05 0.93,-0.08 l -2.88,18.01 c -0.67,0.03 -1.33,0.29 -1.81,0.78 L 7.6,152.85 c -1.04,1.04 -1.04,2.72 0,3.77 l 11.1,11.09 -3.92,24.53 c -0.24,1.46 0.75,2.82 2.22,3.06 0.18,0.03 0.32,0.03 0.45,0.03 1.28,0 2.43,-0.93 2.64,-2.24 l 3.47,-21.61 c 0.03,0 0.03,0 0.05,0 0.7,0 1.36,-0.27 1.9,-0.78 L 39.6,156.64 c 0.5,-0.51 0.77,-1.17 0.77,-1.89 0,-0.72 -0.29,-1.39 -0.77,-1.9 L 28.36,141.62 32.02,118.7 c 0.85,-0.29 1.71,-0.64 2.48,-1.01 1.23,-0.59 2.48,-1.07 3.76,-1.47 0.4,-0.13 0.83,-0.21 1.26,-0.32 0.88,-0.24 1.76,-0.51 2.66,-0.67 0.48,-0.08 0.94,-0.13 1.42,-0.18 0.85,-0.14 1.71,-0.27 2.59,-0.33 0.48,-0.02 0.93,-0.02 1.41,-0.02 0.88,-0.03 1.73,-0.06 2.61,0 0.49,0.02 0.94,0.08 1.42,0.13 0.85,0.08 1.73,0.16 2.59,0.3 0.48,0.08 0.93,0.18 1.38,0.29 0.83,0.19 1.69,0.37 2.51,0.61 0.48,0.14 0.96,0.32 1.44,0.48 0.78,0.27 1.55,0.54 2.3,0.88 0.5,0.22 1.01,0.48 1.52,0.72 0.45,0.24 0.91,0.48 1.36,0.72 v 78.34 z m 0,-110.54 v 26.12 c -0.08,-0.03 -0.16,-0.05 -0.24,-0.08 -1.15,-0.51 -2.3,-0.96 -3.47,-1.36 -0.16,-0.05 -0.32,-0.11 -0.46,-0.16 -3.84,-1.25 -7.87,-1.92 -11.95,-1.92 -5.42,0 -10.62,1.15 -15.58,3.33 l 4.13,-25.93 z"
   class="st1"
   id="path6" />
				</g>
			</g>
		</g>
		<g
   id="shape1005-9"
   v:mID="1005"
   v:groupContext="shape"
   transform="translate(121.682,-33.5122)">
			<title
   id="title7">Hoja.1005</title>
			<desc
   id="desc7">Gintegrator</desc>
			<v:textBlock
   v:margins="rect(4,4,4,4)"
   v:tabSpace="42.5197" />
			<v:textRect
   cx="242.466"
   cy="144.397"
   width="484.94"
   height="116.22" />
			<path
   id="rect7"
   class="st2"
   style="stroke-width:0.75;stroke-linecap:round;stroke-linejoin:round"
   d="M 0,86.287003 H 484.93201 V 202.507 H 0 Z" />
			<path
   d="m 15.439988,116.88005 q 8.479991,-8.39999 21.919977,-8.39999 14.239985,0 22.399977,8.87999 l -5.279995,5.35999 q -6.799993,-6.71999 -16.719982,-6.71999 -10.07999,0 -16.319983,6.31999 -6.159994,6.24 -6.159994,16.39999 0,10.07998 6.159994,16.39998 6.239993,6.23999 16.239983,6.23999 8.159991,0 13.359986,-2.96 V 142.24002 H 29.439973 v -7.35999 H 59.199942 V 162.56 q -8.559991,6.31999 -21.919977,6.31999 -13.439986,0 -21.919977,-8.39999 -8.479991,-8.39999 -8.479991,-21.75997 0,-13.35999 8.559991,-21.83998 z m 62.79993,7.67999 v 43.83995 h -7.999991 v -43.83995 z m -7.759992,-15.67998 q 1.439999,-1.52 3.679997,-1.52 2.239997,0 3.679996,1.52 1.519998,1.51999 1.519998,3.67999 0,2.24 -1.439998,3.68 -1.519999,1.52 -3.759996,1.52 -2.239998,0 -3.759996,-1.44 -1.439999,-1.52 -1.439999,-3.76 0,-2.16 1.519998,-3.67999 z m 19.120028,59.51993 v -43.83995 h 7.679992 v 7.35999 q 4.959994,-7.75999 15.359984,-7.75999 8.23999,0 13.03999,5.35999 4.79999,5.28 4.79999,14.39999 v 24.47997 h -7.99999 v -22.87997 q 0,-6.79999 -3.04,-10.39999 -2.95999,-3.68 -8.63999,-3.68 -6.23999,0 -9.75999,3.84 -3.439994,3.75999 -3.439994,10.55999 v 22.55997 z m 46.639886,-37.19996 v -6.63999 h 7.43999 v -10.23999 l 8.07999,-0.8 v 11.03999 h 14.23999 v 6.63999 h -14.23999 v 24.79998 q 0,3.19999 1.68,4.63999 1.76,1.44 5.68,1.44 3.27999,0 6.87999,-0.96 v 6.39999 q -4.08,1.36 -8.31999,1.36 -6.72,0 -10.39999,-3.19999 -3.6,-3.28 -3.6,-9.27999 v -25.19998 z m 35.11995,15.27999 q 0,-9.83999 6.16,-16.07999 6.15999,-6.23999 15.75998,-6.23999 9.59999,0 15.67998,6.31999 6.08,6.24 6.08,16.23999 0,1.36 -0.16,2.55999 h -35.43996 q 0.72,5.68 4.71999,9.11999 4.08,3.36 10.15999,3.36 8.23999,0 13.27999,-5.19999 l 4.47999,5.11999 q -6.07999,7.19999 -17.99998,7.19999 -10.39999,0 -16.55998,-5.99999 -6.16,-6.07999 -6.16,-16.39998 z m 8.08,-3.12 h 27.83997 q -0.64,-5.51999 -4.48,-8.95999 -3.75999,-3.44 -9.51999,-3.44 -5.59999,0 -9.43999,3.44 -3.75999,3.36 -4.39999,8.95999 z m 46.71991,-13.11999 q 5.84,-6.07999 15.51999,-6.07999 9.91999,0 15.75998,7.35999 v -6.95999 h 7.75999 V 162.32 q 0,22.55998 -22.95997,22.55998 -5.92,0 -11.11999,-1.76 -5.2,-1.68 -8.39999,-4.72 l 3.91999,-6.31999 q 2.72,2.64 6.8,4.08 4.15999,1.51999 8.55999,1.51999 7.67999,0 11.35998,-3.51999 3.68,-3.52 3.68,-10.87999 v -1.2 q -5.67999,6.79999 -15.35998,6.79999 -9.67999,0 -15.51999,-6.07999 -5.83999,-6.15999 -5.83999,-16.31998 0,-10.07999 5.83999,-16.23999 z m 6.24,27.35998 q 3.91999,4.15999 10.63999,4.15999 6.63999,0 10.63998,-4.15999 4,-4.16 4,-11.11999 0,-6.96 -4,-11.03999 -3.91999,-4.16 -10.63998,-4.16 -6.72,0 -10.71999,4.08 -3.92,4.07999 -3.92,11.11999 0,7.03999 4,11.11999 z m 51.83989,-32.95997 v 8.39999 q 2.08,-4.23999 6.24,-6.55999 4.15999,-2.32 9.67999,-2.32 v 7.75999 h -1.92 q -13.67999,0 -13.67999,14.79999 v 21.67997 h -7.99999 v -43.75995 z m 28.23998,20.23998 q 3.99999,-1.28 16.95998,-2.8 2.56,-0.32 3.44,-1.04 0.95999,-0.72 0.95999,-2.55999 0,-3.44 -2.63999,-5.36 -2.56,-1.92 -7.03999,-1.92 -7.6,0 -12.07999,6.16 l -5.6,-4.32 q 2.88,-4.23999 7.52,-6.55999 4.63999,-2.32 10.23998,-2.32 8.4,0 13.03999,4.48 4.72,4.39999 4.72,12.39998 v 27.35997 h -7.76 V 162.48 q -4.15999,6.39999 -14.31998,6.39999 -7.75999,0 -11.99999,-3.35999 -4.15999,-3.44 -4.15999,-9.27999 0,-8.87999 8.71999,-11.35999 z m -0.72,10.95999 q 0,3.27999 2.32,5.03999 2.39999,1.76 6.79999,1.76 12.95998,0 12.95998,-13.43999 v -2.15999 q -3.83999,0.72 -11.11998,1.59999 -5.52,0.64 -7.36,1.52 -3.59999,1.6 -3.59999,5.68 z m 35.91986,-24.63998 v -6.63999 h 7.43999 v -10.23999 l 8.07999,-0.8 v 11.03999 h 14.23999 v 6.63999 h -14.23999 v 24.79998 q 0,3.19999 1.68,4.63999 1.76,1.44 5.68,1.44 3.27999,0 6.87999,-0.96 v 6.39999 q -4.08,1.36 -8.31999,1.36 -6.72,0 -10.39999,-3.19999 -3.6,-3.28 -3.6,-9.27999 v -25.19998 z m 41.59996,-0.72 q 6.4,-6.31999 16.31999,-6.31999 9.83999,0 16.31998,6.31999 6.47999,6.32 6.47999,15.99999 0,9.67999 -6.47999,16.07998 -6.47999,6.31999 -16.31998,6.31999 -9.91999,0 -16.39999,-6.31999 -6.39999,-6.31999 -6.39999,-16.07998 0,-9.67999 6.47999,-15.99999 z m 1.6,15.99999 q 0,6.63999 4.24,10.95999 4.15999,4.31999 10.47999,4.31999 6.31999,0 10.39999,-4.31999 4.15999,-4.32 4.15999,-10.95999 0,-6.64 -4.15999,-10.87999 -4.08,-4.32 -10.39999,-4.32 -6.4,0 -10.55999,4.32 -4.16,4.31999 -4.16,10.87999 z m 53.68,-21.83998 v 8.39999 q 2.08,-4.23999 6.23999,-6.55999 4.16,-2.32 9.67999,-2.32 v 7.75999 h -1.92 q -13.67998,0 -13.67998,14.79999 v 21.67997 h -7.99999 v -43.75995 z"
   id="text7"
   class="st3"
   style="font-size:533.332px;font-family:Shoika-Retina;fill:#000000"
   aria-label="Gintegrator" />		</g>
	</g>
</svg>
