<?xml version="1.0" encoding="UTF-8" standalone="no"?>
<!-- Created with Inkscape (http://www.inkscape.org/) -->

<svg
   width="40.456081mm"
   height="32.343285mm"
   viewBox="0 0 40.456081 32.343285"
   version="1.1"
   id="svg1"
   inkscape:version="1.4 (86a8ad7, 2024-10-11)"
   sodipodi:docname="services.svg"
   inkscape:export-filename="..\public\web.svg"
   inkscape:export-xdpi="400"
   inkscape:export-ydpi="400"
   xml:space="preserve"
   xmlns:inkscape="http://www.inkscape.org/namespaces/inkscape"
   xmlns:sodipodi="http://sodipodi.sourceforge.net/DTD/sodipodi-0.dtd"
   xmlns="http://www.w3.org/2000/svg"
   xmlns:svg="http://www.w3.org/2000/svg"><sodipodi:namedview
     id="namedview1"
     pagecolor="#ffffff"
     bordercolor="#666666"
     borderopacity="1.0"
     inkscape:showpageshadow="2"
     inkscape:pageopacity="0.0"
     inkscape:pagecheckerboard="0"
     inkscape:deskcolor="#d1d1d1"
     inkscape:document-units="mm"
     inkscape:zoom="5.7344868"
     inkscape:cx="13.427531"
     inkscape:cy="38.015608"
     inkscape:window-width="3840"
     inkscape:window-height="2050"
     inkscape:window-x="3348"
     inkscape:window-y="-12"
     inkscape:window-maximized="1"
     inkscape:current-layer="g69"
     showgrid="false" /><defs
     id="defs1"><inkscape:path-effect
       effect="tiling"
       id="path-effect8"
       is_visible="true"
       lpeversion="1.3.1"
       unit="px"
       seed="1;1"
       lpesatellites=""
       num_rows="1"
       num_cols="7"
       gapx="7"
       gapy="1.8379561"
       offset="0"
       offset_type="false"
       scale="0"
       rotate="0"
       mirrorrowsx="false"
       mirrorrowsy="false"
       mirrorcolsx="false"
       mirrorcolsy="false"
       mirrortrans="false"
       shrink_interp="false"
       split_items="false"
       link_styles="false"
       interpolate_scalex="false"
       interpolate_scaley="true"
       interpolate_rotatex="false"
       interpolate_rotatey="true"
       random_scale="false"
       random_rotate="false"
       random_gap_y="false"
       random_gap_x="false"
       transformorigin="" /><inkscape:path-effect
       effect="tiling"
       id="path-effect6"
       is_visible="true"
       lpeversion="1.3.1"
       unit="px"
       seed="1;1"
       lpesatellites=""
       num_rows="1"
       num_cols="7"
       gapx="7"
       gapy="0"
       offset="0"
       offset_type="false"
       scale="0"
       rotate="0"
       mirrorrowsx="false"
       mirrorrowsy="false"
       mirrorcolsx="false"
       mirrorcolsy="false"
       mirrortrans="false"
       shrink_interp="false"
       split_items="false"
       link_styles="false"
       interpolate_scalex="false"
       interpolate_scaley="true"
       interpolate_rotatex="false"
       interpolate_rotatey="true"
       random_scale="false"
       random_rotate="false"
       random_gap_y="false"
       random_gap_x="false"
       transformorigin="" /><inkscape:path-effect
       effect="tiling"
       id="path-effect61"
       is_visible="true"
       lpeversion="1.3.1"
       unit="px"
       seed="1;1"
       lpesatellites=""
       num_rows="2"
       num_cols="3"
       gapx="2"
       gapy="2"
       offset="0"
       offset_type="false"
       scale="0"
       rotate="0"
       mirrorrowsx="false"
       mirrorrowsy="false"
       mirrorcolsx="false"
       mirrorcolsy="false"
       mirrortrans="false"
       shrink_interp="false"
       split_items="false"
       link_styles="false"
       interpolate_scalex="false"
       interpolate_scaley="true"
       interpolate_rotatex="false"
       interpolate_rotatey="true"
       random_scale="false"
       random_rotate="false"
       random_gap_y="false"
       random_gap_x="false"
       transformorigin="" /><inkscape:path-effect
       effect="tiling"
       id="path-effect59"
       is_visible="true"
       lpeversion="1.3.1"
       unit="px"
       seed="1;1"
       lpesatellites=""
       num_rows="2"
       num_cols="3"
       gapx="2"
       gapy="2"
       offset="0"
       offset_type="false"
       scale="0"
       rotate="0"
       mirrorrowsx="false"
       mirrorrowsy="false"
       mirrorcolsx="false"
       mirrorcolsy="false"
       mirrortrans="false"
       shrink_interp="false"
       split_items="false"
       link_styles="false"
       interpolate_scalex="false"
       interpolate_scaley="true"
       interpolate_rotatex="false"
       interpolate_rotatey="true"
       random_scale="false"
       random_rotate="false"
       random_gap_y="false"
       random_gap_x="false"
       transformorigin="" /><inkscape:path-effect
       effect="fillet_chamfer"
       id="path-effect50"
       is_visible="true"
       lpeversion="1"
       nodesatellites_param="F,0,0,1,0,0.26458333,0,1 @ F,0,0,1,0,0.26458333,0,1 @ F,0,0,1,0,0.26458333,0,1 @ F,0,0,1,0,0.26458333,0,1 @ F,0,0,1,0,0.26458333,0,1 @ F,0,0,1,0,0.26458333,0,1 @ F,0,0,1,0,0.26458333,0,1 @ F,0,0,1,0,0.26458333,0,1 @ F,0,0,1,0,0.26458333,0,1 @ F,0,0,1,0,0.26458333,0,1 @ F,0,0,1,0,0.26458333,0,1 @ F,0,0,1,0,0.26458333,0,1 @ F,0,0,1,0,0.26458333,0,1 @ F,0,0,1,0,0.26458333,0,1"
       radius="2"
       unit="px"
       method="auto"
       mode="F"
       chamfer_steps="1"
       flexible="false"
       use_knot_distance="true"
       apply_no_radius="true"
       apply_with_radius="true"
       only_selected="false"
       hide_knots="false" /><inkscape:path-effect
       effect="fillet_chamfer"
       id="path-effect49"
       is_visible="true"
       lpeversion="1"
       nodesatellites_param="F,0,0,1,0,0.79374998,0,1 @ F,0,0,1,0,0.79374998,0,1 @ F,0,0,1,0,0.79374998,0,1 @ F,0,0,1,0,0.79374998,0,1"
       radius="3"
       unit="px"
       method="auto"
       mode="F"
       chamfer_steps="1"
       flexible="false"
       use_knot_distance="true"
       apply_no_radius="true"
       apply_with_radius="true"
       only_selected="false"
       hide_knots="false" /><inkscape:path-effect
       effect="fillet_chamfer"
       id="path-effect47"
       is_visible="true"
       lpeversion="1"
       nodesatellites_param="F,0,0,1,0,0.79374998,0,1 @ F,0,0,1,0,0.79374998,0,1 @ F,0,0,1,0,0.79374998,0,1 @ F,0,0,1,0,0.79374998,0,1"
       radius="3"
       unit="px"
       method="auto"
       mode="F"
       chamfer_steps="1"
       flexible="false"
       use_knot_distance="true"
       apply_no_radius="true"
       apply_with_radius="true"
       only_selected="false"
       hide_knots="false" /><inkscape:path-effect
       effect="fillet_chamfer"
       id="path-effect45"
       is_visible="true"
       lpeversion="1"
       nodesatellites_param="F,0,0,1,0,0.79374998,0,1 @ F,0,0,1,0,0.79374998,0,1 @ F,0,0,1,0,0.79374998,0,1"
       radius="3"
       unit="px"
       method="auto"
       mode="F"
       chamfer_steps="1"
       flexible="false"
       use_knot_distance="true"
       apply_no_radius="true"
       apply_with_radius="true"
       only_selected="false"
       hide_knots="false" /><inkscape:path-effect
       effect="fillet_chamfer"
       id="path-effect43"
       is_visible="true"
       lpeversion="1"
       nodesatellites_param="F,0,0,1,0,0.79374998,0,1 @ F,0,0,1,0,0.79374998,0,1 @ F,0,0,1,0,0.79374998,0,1 @ F,0,0,1,0,0.79374998,0,1 @ F,0,0,1,0,0.79374998,0,1"
       radius="3"
       unit="px"
       method="auto"
       mode="F"
       chamfer_steps="1"
       flexible="false"
       use_knot_distance="true"
       apply_no_radius="true"
       apply_with_radius="true"
       only_selected="false"
       hide_knots="false" /></defs><g
     id="g63"
     inkscape:label="web"><g
       id="g70"
       inkscape:label="visible-shapes"
       class="visible-shapes"><path
         style="stroke-linecap:round;stroke-linejoin:round;stroke-miterlimit:9"
         d="M 2.6757813,2.2226563 A 0.58255823,0.58255823 0 0 0 2.0917969,2.8066406 V 29.492187 a 0.58255823,0.58255823 0 0 0 0.5839844,0.583985 H 37.322266 A 0.58255823,0.58255823 0 0 0 37.90625,29.492187 V 2.8066406 A 0.58255823,0.58255823 0 0 0 37.322266,2.2226563 Z M 3.2578125,3.3886719 H 36.740234 V 28.910156 H 3.2578125 Z"
         id="rect63" /><path
         style="stroke-linecap:round;stroke-linejoin:round;stroke-miterlimit:9"
         d="M 2.8066406,6.5625 A 0.58249998,0.58249998 0 0 0 2.2226563,7.1445312 0.58249998,0.58249998 0 0 0 2.8066406,7.7265625 H 37.095703 A 0.58249998,0.58249998 0 0 0 37.677734,7.1445312 0.58249998,0.58249998 0 0 0 37.095703,6.5625 Z"
         id="path63" /><path
         d="M 3.9498988,4.0813912 H 4.5941321 V 5.0064 q 0,0.1085206 0.022393,0.1515843 0.022393,0.041341 0.08096,0.041341 0.1085206,0 0.1085206,-0.1929255 V 4.0813912 H 5.4502388 V 5.0064 q 0,0.1085206 0.022393,0.1515843 0.024116,0.041341 0.082682,0.041341 0.1067981,0 0.1067981,-0.1929255 V 4.0813912 h 0.6442332 v 1.057645 q 0,0.2893883 -0.194648,0.492649 -0.194648,0.2015382 -0.4719784,0.2015382 -0.2859431,0 -0.5133195,-0.2411568 -0.2514922,0.2411568 -0.5064294,0.2411568 -0.3221166,0 -0.5167647,-0.2342666 Q 3.9498988,5.4146441 3.9498988,5.0666892 Z m 2.733685,0 H 7.3278171 V 5.0064 q 0,0.1085206 0.022393,0.1515843 0.022393,0.041341 0.08096,0.041341 0.1085206,0 0.1085206,-0.1929255 V 4.0813912 H 8.1839239 V 5.0064 q 0,0.1085206 0.022393,0.1515843 0.024116,0.041341 0.082682,0.041341 0.1067981,0 0.1067981,-0.1929255 V 4.0813912 h 0.6442332 v 1.057645 q 0,0.2893883 -0.194648,0.492649 -0.194648,0.2015382 -0.4719784,0.2015382 -0.2859431,0 -0.5133195,-0.2411568 -0.2514922,0.2411568 -0.5064294,0.2411568 -0.3221166,0 -0.5167646,-0.2342666 Q 6.6835838,5.4146441 6.6835838,5.0666892 Z m 2.733685,0 H 10.061502 V 5.0064 q 0,0.1085206 0.02239,0.1515843 0.02239,0.041341 0.08096,0.041341 0.108521,0 0.108521,-0.1929255 V 4.0813912 h 0.644233 V 5.0064 q 0,0.1085206 0.02239,0.1515843 0.02412,0.041341 0.08268,0.041341 0.106798,0 0.106798,-0.1929255 V 4.0813912 h 0.644234 v 1.057645 q 0,0.2893883 -0.194648,0.492649 -0.194648,0.2015382 -0.471979,0.2015382 -0.285943,0 -0.513319,-0.2411568 -0.251492,0.2411568 -0.50643,0.2411568 -0.3221163,0 -0.5167643,-0.2342666 Q 9.4172688,5.4146441 9.4172688,5.0666892 Z"
         id="text63"
         style="font-size:3.52778px;line-height:1.25;font-family:'Bauhaus 93';-inkscape-font-specification:'Bauhaus 93, ';text-align:center;text-anchor:middle;stroke-width:0.264583"
         aria-label="www" /><path
         id="rect64"
         style="stroke-width:1.25982;stroke-linecap:round;stroke-linejoin:round;stroke-miterlimit:9"
         d="M 12.984821,4.1107726 H 36.148699 V 5.9377828 H 12.984821 Z" /></g><g
       id="g69"
       inkscape:label="hidden-shapes"
       class="hidden-shapes"><path
         id="w1"
         style="font-variation-settings:normal;vector-effect:none;fill:#000000;fill-opacity:1;stroke:none;stroke-width:0.410068px;stroke-linecap:butt;stroke-linejoin:miter;stroke-miterlimit:4;stroke-dasharray:none;stroke-dashoffset:0;stroke-opacity:1;-inkscape-stroke:none;stop-color:#000000"
         d="m -88.010706,-15.201897 -4.985602,16.9849545 -0.193734,-2.978648 -3.32979,0.027244 0.847583,12.0598905 h 3.263194 l 0.911151,-3.051297 0.214923,3.051297 h 3.263194 l 7.791708,-26.093442 h -3.393358 l -4.985603,16.9849556 -0.193734,-2.978648 4.183427,-14.0063076 z m 19.270401,0 -3.229895,11.5906955 2.981675,0.060542 3.163301,-11.6512375 z M -118.8143,-14.878 c -0.0776,-1.35e-4 -0.15452,0.0023 -0.23308,0.0061 -0.62818,0.02988 -1.19735,0.180176 -1.71029,0.448008 -0.45785,0.243066 -0.83623,0.550146 -1.13213,0.923261 -0.28902,0.369999 -0.55802,0.884917 -0.80824,1.543811 l -2.65475,7.5737584 3.27834,-0.054488 2.53669,-6.6807694 c 0.22368,-0.589073 0.57015,-0.791581 1.04435,-0.611471 0.46919,0.178188 0.62312,0.48187 0.46011,0.911152 -0.17819,0.469222 -0.57265,0.58733 -1.18661,0.354169 l -1.02014,2.6789672 0.46315,0.184652 c 1.16804,0.4436181 2.14833,0.4873204 2.94535,0.1331908 0.87088,-0.3832198 1.49881,-1.0762995 1.87981,-2.0796051 0.3924,-1.0332649 0.36776,-2.0348659 -0.0756,-3.0028649 -0.43843,-0.966108 -1.17756,-1.645967 -2.21581,-2.040254 -0.50228,-0.190794 -1.02733,-0.286624 -1.57107,-0.287573 z m 8.43952,2.733455 c -0.60006,0.0063 -1.18997,0.149722 -1.76782,0.432873 -1.02225,0.505086 -1.72012,1.306059 -2.09172,2.4035029 -0.38187,1.1278064 -0.32051,2.1942738 0.18465,3.1996252 0.50517,1.0053515 1.32917,1.7003627 2.46708,2.0856593 0.19218,0.065094 0.41056,0.1160994 0.65688,0.1543811 l 0.99287,-2.933242 c -0.25692,0.059515 -0.50896,0.047522 -0.75676,-0.036324 -0.30344,-0.1027406 -0.51905,-0.2909224 -0.6478,-0.5600101 -0.1288,-0.2690722 -0.13949,-0.5582461 -0.0333,-0.8717995 0.10105,-0.2983801 0.29614,-0.5221305 0.58726,-0.6659581 0.29109,-0.1438275 0.5855,-0.1646199 0.8839,-0.063569 0.32873,0.1112959 0.5482,0.3177855 0.6599,0.6205517 0.11671,0.3044867 0.10803,0.6569272 -0.0273,1.0564516 l -1.1866,3.5053605 3.26621,-0.018163 0.82639,-2.7304276 c 0.41955,-1.2390557 0.39695,-2.334584 -0.0696,-3.2874105 -0.45981,-0.9561735 -1.30071,-1.6409845 -2.52459,-2.0553885 -0.48013,-0.16258 -0.953,-0.241011 -1.41969,-0.236112 z m 14.230307,0.13622 c -0.600052,0.0063 -1.189966,0.149721 -1.767816,0.432872 -1.02224,0.505086 -1.72012,1.306059 -2.091721,2.4035032 -0.38187,1.1278063 -0.32051,2.1942737 0.184661,3.1996252 0.50516,1.0053514 1.32613,1.7003626 2.46404,2.0856593 0.19218,0.065094 0.41358,0.1191265 0.659907,0.1574082 l 0.992882,-2.9362692 c -0.256932,0.059515 -0.508959,0.047524 -0.75677,-0.036324 -0.30344,-0.1027406 -0.519049,-0.2909223 -0.647799,-0.56001 -0.12873,-0.2690722 -0.13945,-0.5582462 -0.0333,-0.8717995 0.10104,-0.2983802 0.296155,-0.5191034 0.587257,-0.6629309 0.291102,-0.1438276 0.585523,-0.1676471 0.883907,-0.066596 0.328729,0.1112959 0.548205,0.3208126 0.659904,0.6235789 0.116751,0.3044866 0.108041,0.6539 -0.02725,1.0534244 l -1.186616,3.5053605 3.266221,-0.018163 0.826393,-2.7304274 c 0.419546,-1.2390557 0.396957,-2.3345842 -0.06962,-3.2874107 -0.45981,-0.956174 -1.300704,-1.640985 -2.524586,-2.055388 -0.480135,-0.16258 -0.952996,-0.241011 -1.4197,-0.236112 z m 19.455052,0.09687 c -1.185351,0 -2.18896,0.40155 -3.005891,1.207805 -0.811592,0.8062559 -1.216887,1.7941859 -1.216887,2.9635131 0,1.1746743 0.40458,2.1588547 1.210833,2.9544318 0.806251,0.7955616 1.802378,1.1956971 2.987729,1.1956971 0.971773,0 1.85615,-0.3136908 2.651724,-0.9383952 l -1.707275,-2.0493343 c -0.277649,0.2989381 -0.566738,0.448008 -0.865745,0.448008 -0.368421,0 -0.666421,-0.1609486 -0.896017,-0.4813058 -0.22425,-0.3203728 -0.336006,-0.7383203 -0.336006,-1.2562389 0,-0.4965615 0.116209,-0.9018612 0.351142,-1.2168869 0.234934,-0.3203727 0.54042,-0.481306 0.914179,-0.481306 0.56064,0 0.895178,0.2972779 1.001964,0.8899621 h -1.522622 c 0.0085,0.029199 2.229646,2.2517322 3.441791,3.783852 0.943318,-1.1981237 1.061216,-1.8359274 1.089749,-2.9271879 0.03015,-1.1529141 -0.393354,-2.124127 -1.183589,-2.9090251 -0.784893,-0.79023 -1.756425,-1.183589 -2.915079,-1.183589 z m -25.033959,0.08476 c -0.7973,-0.0062 -1.48866,0.231538 -2.07355,0.714391 -0.71913,0.589011 -0.94758,1.5056345 -1.31981,2.597236 l -1.57711,4.6284078 3.16329,0.00303 1.29862,-3.6415792 c 0.2494,-0.6996249 0.45055,-1.3049386 0.98987,-1.2289952 0.16918,0.023806 0.37319,0.048354 0.53276,0.3571958 0.10911,-0.8131681 0.28499,-1.6736222 1.235051,-2.6153982 -0.33167,-0.322078 -1.447391,-0.739204 -1.680031,-0.771906 -0.19531,-0.02747 -0.38511,-0.04095 -0.56909,-0.04238 z m 31.872136,11.2698245 -3.372168,11.3818265 3.045244,0.0787 3.347952,-11.4242051 z M -81.93838,2.4248003 c -1.206709,0 -2.222973,0.3978149 -3.045245,1.1987235 -0.822269,0.7955771 -1.232021,1.779046 -1.232021,2.9483772 0,1.147975 0.409752,2.131444 1.232021,2.948378 0.822272,0.811592 1.813941,1.216886 2.972595,1.216886 1.158655,0 2.146582,-0.405294 2.963513,-1.216886 0.822269,-0.811593 1.23505,-1.795061 1.23505,-2.948378 0,-1.1373017 -0.408323,-2.112578 -1.219915,-2.9241605 -0.806253,-0.8169343 -1.774042,-1.2229402 -2.905998,-1.2229402 z m 8.345664,0.5024959 c -0.797291,-0.0062 -1.485635,0.2315376 -2.070524,0.7143905 -0.71912,0.589011 -0.947568,1.5056341 -1.319807,2.5972358 l -1.580136,4.6284065 3.166326,0.0031 1.298618,-3.64158 c 0.249406,-0.699625 0.444492,-1.1989897 0.983802,-1.1230465 0.169195,0.02381 0.348977,0.10587 0.53882,0.2512475 l 1.06856,-2.9695661 c -0.841188,-0.2109057 -1.166378,-0.3684527 -1.516568,-0.4177384 -0.195301,-0.027473 -0.3851,-0.040949 -0.569091,-0.042378 z m 14.411935,0.257301 c -0.560577,-0.00527 -1.060488,0.130914 -1.504459,0.4086562 -0.406465,0.2529179 -0.705521,0.5408008 -0.896016,0.8596919 -0.185321,0.3203154 -0.401403,0.9027953 -0.644769,1.7526802 -0.155129,0.5205785 -0.356507,0.8622045 -0.608443,1.0201255 -0.245445,0.153674 -0.602932,0.165615 -1.06856,0.03633 l -0.130158,-0.03633 -0.784015,3.341898 0.402603,0.112002 c 0.998518,0.27725 1.811718,0.31929 2.436801,0.121091 1.181473,-0.385523 2.029746,-1.373816 2.545775,-2.963513 0.156237,-0.478298 0.329313,-0.77744 0.517631,-0.899043 0.194815,-0.125827 0.496381,-0.134722 0.905098,-0.02119 l 0.77796,-3.3267613 -0.874827,-0.2421665 c -0.378325,-0.1050431 -0.738267,-0.1603035 -1.074615,-0.1634637 z m -7.234725,0.3602229 -2.097767,2.2672846 0.172544,4.9916563 2.893889,0.01816 -0.220977,-4.016937 2.237014,-2.3671781 z m -15.604605,1.8344118 c 0.325706,0 0.602138,0.1162027 0.826393,0.3511407 0.224255,0.2295971 0.336006,0.5142269 0.336006,0.8506094 0,0.331042 -0.115496,0.612645 -0.345087,0.847583 -0.224256,0.234928 -0.496947,0.354169 -0.817312,0.354169 -0.315026,0 -0.58469,-0.119241 -0.814286,-0.354169 -0.224254,-0.234938 -0.339033,-0.516541 -0.339033,-0.847583 0,-0.3363825 0.114783,-0.6210123 0.339033,-0.8506094 0.224257,-0.234938 0.493921,-0.3511407 0.814286,-0.3511407 z"
         transform="matrix(0.35398752,0,0,0.33522502,52.550356,14.543763)"
         inkscape:label="logo" /><path
         style="stroke-linecap:round;stroke-linejoin:round;stroke-miterlimit:9"
         d="m 10.150391,20.134766 a 0.58249998,0.58249998 0 0 0 -0.5820316,0.582031 0.58249998,0.58249998 0 0 0 0.5820316,0.582031 h 8.121093 a 0.58249998,0.58249998 0 0 0 0.582032,-0.582031 0.58249998,0.58249998 0 0 0 -0.582032,-0.582031 z"
         id="path64" /><path
         style="stroke-linecap:round;stroke-linejoin:round;stroke-miterlimit:9"
         d="m 10.103516,22.716797 a 0.58249998,0.58249998 0 0 0 -0.5820316,0.583984 0.58249998,0.58249998 0 0 0 0.5820316,0.582031 h 19.978515 a 0.58249998,0.58249998 0 0 0 0.583985,-0.582031 0.58249998,0.58249998 0 0 0 -0.583985,-0.583984 z"
         id="path66" /><path
         style="stroke-linecap:round;stroke-linejoin:round;stroke-miterlimit:9"
         d="m 10.103516,24.517578 a 0.58249998,0.58249998 0 0 0 -0.5820316,0.582031 0.58249998,0.58249998 0 0 0 0.5820316,0.582032 h 19.978515 a 0.58249998,0.58249998 0 0 0 0.583985,-0.582032 0.58249998,0.58249998 0 0 0 -0.583985,-0.582031 z"
         id="path67" /><path
         style="stroke-linecap:round;stroke-linejoin:round;stroke-miterlimit:9"
         d="m 10.103516,26.316406 a 0.58249998,0.58249998 0 0 0 -0.5820316,0.582031 0.58249998,0.58249998 0 0 0 0.5820316,0.583985 h 19.978515 a 0.58249998,0.58249998 0 0 0 0.583985,-0.583985 0.58249998,0.58249998 0 0 0 -0.583985,-0.582031 z"
         id="path68" /></g></g><g
     id="g55"
     inkscape:label="network"><g
       id="g56"
       inkscape:label="visible-shapes"
       class="visible-shapes"
       transform="translate(-55.91956,-5.0895282)"><path
         id="path3"
         style="stroke-width:0.0533078;stroke-linecap:round;stroke-linejoin:round;stroke-miterlimit:9"
         d="M 8.4978542,8.1866331 A 2.2733116,2.2733116 0 0 1 6.2245426,10.459945 2.2733116,2.2733116 0 0 1 3.951231,8.1866331 2.2733116,2.2733116 0 0 1 6.2245426,5.9133215 2.2733116,2.2733116 0 0 1 8.4978542,8.1866331 Z" /><path
         id="circle3"
         style="stroke-width:0.0533078;stroke-linecap:round;stroke-linejoin:round;stroke-miterlimit:9"
         d="M 8.6331677,16.440924 A 2.2733116,2.2733116 0 0 1 6.3598561,18.714235 2.2733116,2.2733116 0 0 1 4.0865445,16.440924 2.2733116,2.2733116 0 0 1 6.3598561,14.167612 2.2733116,2.2733116 0 0 1 8.6331677,16.440924 Z" /><path
         id="circle4"
         style="stroke-width:0.0533078;stroke-linecap:round;stroke-linejoin:round;stroke-miterlimit:9"
         d="M 8.6331677,24.695215 A 2.2733116,2.2733116 0 0 1 6.3598561,26.968527 2.2733116,2.2733116 0 0 1 4.0865445,24.695215 2.2733116,2.2733116 0 0 1 6.3598561,22.421904 2.2733116,2.2733116 0 0 1 8.6331677,24.695215 Z" /><path
         id="circle5"
         style="stroke-width:0.0533078;stroke-linecap:round;stroke-linejoin:round;stroke-miterlimit:9"
         d="M 18.200948,4.2624545 A 2.2733116,2.2733116 0 0 1 15.927636,6.5357661 2.2733116,2.2733116 0 0 1 13.654325,4.2624545 2.2733116,2.2733116 0 0 1 15.927636,1.9891429 2.2733116,2.2733116 0 0 1 18.200948,4.2624545 Z" /><path
         id="circle6"
         style="stroke-width:0.0533078;stroke-linecap:round;stroke-linejoin:round;stroke-miterlimit:9"
         d="m 18.200948,12.449095 a 2.2733116,2.2733116 0 0 1 -2.273312,2.273311 2.2733116,2.2733116 0 0 1 -2.273311,-2.273311 2.2733116,2.2733116 0 0 1 2.273311,-2.273312 2.2733116,2.2733116 0 0 1 2.273312,2.273312 z" /><path
         id="circle7"
         style="stroke-width:0.0533078;stroke-linecap:round;stroke-linejoin:round;stroke-miterlimit:9"
         d="m 18.200948,20.635729 a 2.2733116,2.2733116 0 0 1 -2.273312,2.273311 2.2733116,2.2733116 0 0 1 -2.273311,-2.273311 2.2733116,2.2733116 0 0 1 2.273311,-2.273312 2.2733116,2.2733116 0 0 1 2.273312,2.273312 z" /><path
         id="circle8"
         style="stroke-width:0.0533078;stroke-linecap:round;stroke-linejoin:round;stroke-miterlimit:9"
         d="m 18.200948,28.822363 a 2.2733116,2.2733116 0 0 1 -2.273312,2.273312 2.2733116,2.2733116 0 0 1 -2.273311,-2.273312 2.2733116,2.2733116 0 0 1 2.273311,-2.273312 2.2733116,2.2733116 0 0 1 2.273312,2.273312 z" /><path
         id="circle9"
         style="stroke-width:0.0533078;stroke-linecap:round;stroke-linejoin:round;stroke-miterlimit:9"
         d="M 27.768728,8.1866331 A 2.2733116,2.2733116 0 0 1 25.495417,10.459945 2.2733116,2.2733116 0 0 1 23.222105,8.1866331 2.2733116,2.2733116 0 0 1 25.495417,5.9133215 2.2733116,2.2733116 0 0 1 27.768728,8.1866331 Z" /><path
         id="circle10"
         style="stroke-width:0.0533078;stroke-linecap:round;stroke-linejoin:round;stroke-miterlimit:9"
         d="m 27.904041,16.440924 a 2.2733116,2.2733116 0 0 1 -2.273311,2.273311 2.2733116,2.2733116 0 0 1 -2.273312,-2.273311 2.2733116,2.2733116 0 0 1 2.273312,-2.273312 2.2733116,2.2733116 0 0 1 2.273311,2.273312 z" /><path
         id="circle11"
         style="stroke-width:0.0533078;stroke-linecap:round;stroke-linejoin:round;stroke-miterlimit:9"
         d="m 27.904041,24.695215 a 2.2733116,2.2733116 0 0 1 -2.273311,2.273312 2.2733116,2.2733116 0 0 1 -2.273312,-2.273312 2.2733116,2.2733116 0 0 1 2.273312,-2.273311 2.2733116,2.2733116 0 0 1 2.273311,2.273311 z" /><path
         id="circle12"
         style="stroke-width:0.0533078;stroke-linecap:round;stroke-linejoin:round;stroke-miterlimit:9"
         d="m 37.387859,12.381438 a 2.2733116,2.2733116 0 0 1 -2.273311,2.273312 2.2733116,2.2733116 0 0 1 -2.273312,-2.273312 2.2733116,2.2733116 0 0 1 2.273312,-2.273311 2.2733116,2.2733116 0 0 1 2.273311,2.273311 z" /><path
         id="circle13"
         style="stroke-width:0.0533078;stroke-linecap:round;stroke-linejoin:round;stroke-miterlimit:9"
         d="m 37.52317,20.635729 a 2.2733116,2.2733116 0 0 1 -2.273311,2.273311 2.2733116,2.2733116 0 0 1 -2.273312,-2.273311 2.2733116,2.2733116 0 0 1 2.273312,-2.273312 2.2733116,2.2733116 0 0 1 2.273311,2.273312 z" /><path
         id="path54"
         d="m 15.926676,3.9294759 a 0.33250049,0.33250049 0 0 0 -0.01137,0.00207 0.33250049,0.33250049 0 0 0 -0.03514,0.00723 0.33250049,0.33250049 0 0 0 -0.05426,0.00879 0.33250049,0.33250049 0 0 0 -0.01137,0.00155 0.33250049,0.33250049 0 0 0 -0.0072,0.00413 0.33250049,0.33250049 0 0 0 -0.0036,0.00103 0.33250049,0.33250049 0 0 0 -0.0047,0.00103 0.33250049,0.33250049 0 0 0 -0.0057,0.00413 L 6.1050537,7.8765218 a 0.33250049,0.33250049 0 0 0 -0.00155,5.168e-4 0.33250049,0.33250049 0 0 0 -0.00155,0.00103 l -0.00258,0.00103 v 5.168e-4 a 0.33250049,0.33250049 0 0 0 -0.00517,0.00362 0.33250049,0.33250049 0 0 0 -0.010335,0.00155 0.33250049,0.33250049 0 0 0 -0.021187,0.018087 0.33250049,0.33250049 0 0 0 -0.042891,0.021187 0.33250049,0.33250049 0 0 0 -0.0093,0.012402 0.33250049,0.33250049 0 0 0 -0.03824,0.042375 0.33250049,0.33250049 0 0 0 -0.029456,0.041341 0.33250049,0.33250049 0 0 0 -0.022738,0.032556 0.33250049,0.33250049 0 0 0 -5.168e-4,0.00413 0.33250049,0.33250049 0 0 0 -0.00982,0.055294 0.33250049,0.33250049 0 0 0 -0.010852,0.076998 0.33250049,0.33250049 0 0 0 -0.0031,0.038241 0.33250049,0.33250049 0 0 0 0.018603,0.049093 0.33250049,0.33250049 0 0 0 0.0093,0.051676 L 8.3152547,13.413652 6.097819,16.236218 a 0.33250049,0.33250049 0 0 0 -0.00982,0.02325 0.33250049,0.33250049 0 0 0 -0.033073,0.04703 0.33250049,0.33250049 0 0 0 -0.00155,0.0072 0.33250049,0.33250049 0 0 0 -5.168e-4,5.17e-4 0.33250049,0.33250049 0 0 0 -5.168e-4,5.16e-4 0.33250049,0.33250049 0 0 0 -5.167e-4,0.0057 0.33250049,0.33250049 0 0 0 -0.00207,0.0093 0.33250049,0.33250049 0 0 0 -0.00878,0.03979 0.33250049,0.33250049 0 0 0 -0.00879,0.03979 0.33250049,0.33250049 0 0 0 -0.00465,0.03101 0.33250049,0.33250049 0 0 0 0.00258,0.01499 0.33250049,0.33250049 0 0 0 0.00258,0.01447 0.33250049,0.33250049 0 0 0 0.00672,0.03617 0.33250049,0.33250049 0 0 0 0.011369,0.0584 0.33250049,0.33250049 0 0 0 0.00207,0.0036 0.33250049,0.33250049 0 0 0 0,5.17e-4 0.33250049,0.33250049 0 0 0 0.00827,0.01292 0.33250049,0.33250049 0 0 0 0.028939,0.04496 0.33250049,0.33250049 0 0 0 0.00775,0.01809 l 2.2820313,2.953308 -2.3213054,4.956804 a 0.33250049,0.33250049 0 0 0 -0.00103,0.0062 0.33250049,0.33250049 0 0 0 -0.00258,0.0036 0.33250049,0.33250049 0 0 0 -5.168e-4,0.0021 0.33250049,0.33250049 0 0 0 -0.010852,0.05116 0.33250049,0.33250049 0 0 0 -0.010335,0.05581 0.33250049,0.33250049 0 0 0 -0.00207,0.03617 0.33250049,0.33250049 0 0 0 0,0.02119 0.33250049,0.33250049 0 0 0 0.011369,0.03359 0.33250049,0.33250049 0 0 0 0.00413,0.01964 0.33250049,0.33250049 0 0 0 0.013953,0.04858 0.33250049,0.33250049 0 0 0 0.017053,0.02532 0.33250049,0.33250049 0 0 0 0.014986,0.03152 0.33250049,0.33250049 0 0 0 0.018087,0.01705 0.33250049,0.33250049 0 0 0 0.032039,0.03566 0.33250049,0.33250049 0 0 0 0.011369,0.01499 0.33250049,0.33250049 0 0 0 0.03359,0.01447 0.33250049,0.33250049 0 0 0 0.00827,0.0052 0.33250049,0.33250049 0 0 0 0.022738,0.01912 0.33250049,0.33250049 0 0 0 0.0062,0.001 0.33250049,0.33250049 0 0 0 0.00362,0.0031 L 15.7856,29.122253 a 0.33250049,0.33250049 0 0 0 0.0015,0.001 0.33250049,0.33250049 0 0 0 0.0026,5.17e-4 l 0.0072,0.0031 a 0.33250049,0.33250049 0 0 0 0.04651,0.0088 0.33250049,0.33250049 0 0 0 0.0098,0.0041 0.33250049,0.33250049 0 0 0 0.02894,0.01189 0.33250049,0.33250049 0 0 0 0.01602,5.17e-4 0.33250049,0.33250049 0 0 0 0.01809,-0.0026 0.33250049,0.33250049 0 0 0 0.0124,-0.0021 0.33250049,0.33250049 0 0 0 0.03256,0.0031 0.33250049,0.33250049 0 0 0 0.04961,-0.01499 0.33250049,0.33250049 0 0 0 0.01964,-0.0026 0.33250049,0.33250049 0 0 0 0.02222,-0.0031 0.33250049,0.33250049 0 0 0 0.0057,-0.001 l 9.703284,-4.12688 a 0.33250049,0.33250049 0 0 0 0.0072,-0.0036 l 0.0047,-0.0026 9.605098,-4.054533 a 0.33250049,0.33250049 0 0 0 0.06046,-0.03411 0.33250049,0.33250049 0 0 0 0.01344,-0.0093 0.33250049,0.33250049 0 0 0 0,-5.17e-4 0.33250049,0.33250049 0 0 0 5.17e-4,0 0.33250049,0.33250049 0 0 0 0.0021,-0.001 0.33250049,0.33250049 0 0 0 0.0031,-0.0031 0.33250049,0.33250049 0 0 0 0.04393,-0.04186 0.33250049,0.33250049 0 0 0 0.03617,-0.05168 0.33250049,0.33250049 0 0 0 0.001,-0.0015 0.33250049,0.33250049 0 0 0 0.0021,-0.0041 0.33250049,0.33250049 0 0 0 0.0098,-0.02067 0.33250049,0.33250049 0 0 0 0.0036,-0.0041 0.33250049,0.33250049 0 0 0 0.0026,-0.0078 0.33250049,0.33250049 0 0 0 5.16e-4,-0.001 0.33250049,0.33250049 0 0 0 0.0062,-0.01912 0.33250049,0.33250049 0 0 0 0.0016,-0.0031 0.33250049,0.33250049 0 0 0 5.17e-4,-0.0031 0.33250049,0.33250049 0 0 0 0.0078,-0.02429 0.33250049,0.33250049 0 0 0 0.001,-0.0067 0.33250049,0.33250049 0 0 0 0.0031,-0.02119 0.33250049,0.33250049 0 0 0 0,-5.17e-4 0.33250049,0.33250049 0 0 0 0.0021,-0.0124 0.33250049,0.33250049 0 0 0 0.0015,-0.01085 0.33250049,0.33250049 0 0 0 -5.16e-4,-0.04754 0.33250049,0.33250049 0 0 0 0,-0.0047 0.33250049,0.33250049 0 0 0 -0.0062,-0.03979 0.33250049,0.33250049 0 0 0 -0.0031,-0.0155 0.33250049,0.33250049 0 0 0 -5.17e-4,-0.0016 0.33250049,0.33250049 0 0 0 -0.001,-0.0047 0.33250049,0.33250049 0 0 0 -5.17e-4,-0.001 0.33250049,0.33250049 0 0 0 -0.0072,-0.02015 0.33250049,0.33250049 0 0 0 -0.0062,-0.0186 0.33250049,0.33250049 0 0 0 -0.0021,-0.0031 0.33250049,0.33250049 0 0 0 -0.0078,-0.01809 0.33250049,0.33250049 0 0 0 -0.0046,-0.0067 0.33250049,0.33250049 0 0 0 -0.03049,-0.04806 l -3.114539,-3.974435 2.973462,-3.860746 a 0.33250049,0.33250049 0 0 0 0.001,-0.0015 l 0.0072,-0.0093 a 0.33250049,0.33250049 0 0 0 0.0041,-0.0067 0.33250049,0.33250049 0 0 0 0.02532,-0.04082 0.33250049,0.33250049 0 0 0 0.01033,-0.02067 0.33250049,0.33250049 0 0 0 0.0016,-0.0021 0.33250049,0.33250049 0 0 0 0.0016,-0.0041 0.33250049,0.33250049 0 0 0 0.0088,-0.02532 0.33250049,0.33250049 0 0 0 0.0078,-0.02532 0.33250049,0.33250049 0 0 0 0,-5.17e-4 0.33250049,0.33250049 0 0 0 0.0036,-0.02015 0.33250049,0.33250049 0 0 0 0.0041,-0.08733 0.33250049,0.33250049 0 0 0 0,-5.16e-4 0.33250049,0.33250049 0 0 0 -0.0093,-0.05064 0.33250049,0.33250049 0 0 0 0,-0.0016 0.33250049,0.33250049 0 0 0 -0.0026,-0.01137 0.33250049,0.33250049 0 0 0 -5.17e-4,-0.0016 0.33250049,0.33250049 0 0 0 -0.01344,-0.03514 0.33250049,0.33250049 0 0 0 -5.17e-4,-5.16e-4 0.33250049,0.33250049 0 0 0 -5.16e-4,-0.001 0.33250049,0.33250049 0 0 0 -0.0083,-0.01912 0.33250049,0.33250049 0 0 0 -0.02222,-0.03566 0.33250049,0.33250049 0 0 0 -0.01292,-0.01809 0.33250049,0.33250049 0 0 0 -0.02274,-0.02532 0.33250049,0.33250049 0 0 0 -0.02067,-0.02015 0.33250049,0.33250049 0 0 0 -0.01395,-0.01292 0.33250049,0.33250049 0 0 0 -0.0052,-0.0021 0.33250049,0.33250049 0 0 0 -0.06511,-0.03876 L 25.637195,7.8863403 a 0.33250049,0.33250049 0 0 0 -0.0026,-0.00155 0.33250049,0.33250049 0 0 0 -0.0015,0 l -0.0041,-0.00207 a 0.33250049,0.33250049 0 0 0 -0.001,0 0.33250049,0.33250049 0 0 0 -0.0067,-0.00362 L 16.054834,3.9553141 a 0.33250049,0.33250049 0 0 0 -0.0088,-0.00155 0.33250049,0.33250049 0 0 0 -0.0072,-0.00465 0.33250049,0.33250049 0 0 0 -0.03256,-0.00465 0.33250049,0.33250049 0 0 0 -0.02635,-0.00827 0.33250049,0.33250049 0 0 0 -0.0062,-0.00207 0.33250049,0.33250049 0 0 0 -0.0088,-0.00258 0.33250049,0.33250049 0 0 0 -0.01137,0.00103 0.33250049,0.33250049 0 0 0 -0.0186,-0.00155 0.33250049,0.33250049 0 0 0 -0.0083,-0.00155 z M 14.894698,5.0384521 11.043254,9.9409953 7.0781209,8.1994995 Z m 1.035079,0.0031 2.760038,5.8125653 -2.764172,1.231449 -2.732133,-1.200443 z m 1.05575,0.014986 7.663614,3.1424438 -3.808036,1.6965373 z m 0.481624,1.6712158 2.746602,3.4473353 -0.915706,0.407727 z m -3.073198,0.026355 -1.809191,3.8638473 -0.912089,-0.400493 z m 11.173995,2.0649902 4.276225,5.4570311 -4.111894,1.759583 -2.218469,-2.78536 z m 1.000456,0.1984375 7.709607,3.3610356 -3.800802,1.626774 z m -19.2732421,0.00258 3.3243451,1.4603757 -1.0970908,1.396814 z m 17.1384891,0.00362 -2.105298,2.7393674 -1.059367,-1.329634 z m -3.7915,1.6887854 1.269173,1.593185 -1.11001,1.443323 -1.218013,-2.565219 z m -12.8524456,0.02222 1.3099976,1.680518 -0.3250448,0.413928 z m 3.4592206,0.02222 1.053682,0.463021 -1.235583,2.639632 -1.1234459,-1.441256 z m 12.684497,0.0083 -0.882634,1.904277 -0.295589,-0.371037 z m -4.958354,0.689881 1.114144,2.345593 -3.316593,-1.364775 z m -6.063712,0.03256 2.170927,0.953947 -3.253549,1.35754 z m 9.426298,1.353406 0.400492,0.502295 -0.602547,1.299145 -0.898653,-0.369486 z m -12.8167891,0.114721 1.0624671,1.363225 -0.9265581,0.386539 -0.5653402,-1.20251 z m 6.4089111,0.03101 2.770374,3.496428 -2.774508,3.610115 -2.77089,-3.554822 z m 18.142045,0.203089 -2.09858,2.724898 -1.071769,-1.367875 z m -17.093013,0.05064 3.201355,1.317233 -1.062468,1.382344 z m -2.094446,0.0041 -2.150773,2.752803 -1.091407,-1.399914 z m 8.316805,0.680061 1.370459,1.720309 -1.820561,-0.749308 z M 8.6320312,14.087512 9.0433757,14.961877 7.4093669,15.64349 Z m 21.6364058,0.730188 1.286226,1.640727 -1.270207,1.648995 -3.815787,-1.663464 z m -9.602515,0.198438 0.656291,1.381311 -0.680062,1.467094 -1.099158,-1.387513 z m 0.763778,0.05581 0.425814,0.175183 -0.169499,0.365353 z m -10.93215,0.0031 -0.332796,0.710551 -0.2247922,-0.478007 z m 0.711585,0.04702 1.102775,1.414901 -1.119828,1.433504 -0.659908,-1.403015 z m 11.261845,0.377755 2.303735,0.947746 -2.232938,0.965832 -0.484725,-1.020609 z m -13.1449343,0.06408 0.4723226,1.00459 -0.3953247,0.843876 -2.1972819,-0.963766 z m 16.4072673,1.285193 4.132564,1.801957 -4.167187,5.411039 -2.119767,-4.46381 z m 6.24458,0.149861 2.198315,2.804997 -3.262849,-1.422652 z m -12.852445,0.02119 1.103808,1.39268 -3.256132,1.407666 z m -6.391858,0.05788 2.125968,2.727482 -3.170866,-1.390612 z m 8.959143,0.100253 0.237195,0.499194 -0.586011,0.253731 z m 2.870626,0.0863 -1.302763,1.662431 -0.433049,-0.912089 z m -17.1441736,0.0041 1.7017049,0.745691 -0.4242635,0.906922 z m 2.7466026,0.08113 0.235128,0.500228 -0.389124,-0.170532 z m 12.04991,0.929659 0.586011,1.233 -0.42478,0.541569 -1.088306,-1.373559 z M 9.7296387,18.281055 10.63811,18.67948 9.5678914,20.049422 9.1529297,19.512504 Z m 20.7646243,0.644405 3.912422,1.705839 -7.742163,3.266984 z m -9.702767,0.196887 1.16427,1.469678 -1.301213,1.660364 -1.100708,-0.460954 z m -9.035624,0.04703 3.333646,1.460892 -2.206583,0.93586 z m -0.704867,0.06201 1.220081,2.594674 -1.00149,0.42478 -1.2820919,-1.658813 z m 8.955526,0.0036 -1.066085,2.299601 -2.161108,-0.904338 z m 3.113505,0.948779 0.958081,2.016931 -1.276408,-1.610754 z m -14.2838828,0.0052 0.3095418,0.400492 -1.2407512,1.5875 z m 7.0900068,0.807702 2.733683,1.1436 -2.7342,5.896797 -2.759522,-5.868892 z m 6.453869,0.131258 2.189014,2.762622 -3.27887,-1.372009 z m -12.8147214,0.0047 1.0717694,1.386996 -3.2240928,1.367358 z m 9.7079344,1.264006 0.954981,0.399459 -2.792595,3.563606 z m -6.719486,0.03152 1.782837,3.7915 -2.646867,-3.424597 z m 8.310604,0.63407 3.909322,1.635559 -7.786088,3.311426 z m -9.807154,0.001 3.820956,4.945434 -7.672917,-3.310392 z"
         inkscape:label="edges" /></g><g
       id="g62"
       inkscape:label="hidden-shapes"
       class="hidden-shapes"
       transform="translate(-55.91956,-5.0895282)"><path
         style="stroke-linecap:round;stroke-linejoin:round;stroke-miterlimit:9"
         d="m 6.2246094,5.078125 c -1.7138446,0 -3.1074219,1.3955304 -3.1074219,3.109375 10e-8,1.7138446 1.3935773,3.107422 3.1074219,3.107422 1.7138446,0 3.1074218,-1.3935774 3.1074219,-3.107422 0,-1.7138446 -1.3935773,-3.109375 -3.1074219,-3.109375 z m 0,0.4453125 c 1.473025,0 2.6621094,1.1910374 2.6621094,2.6640625 -1e-7,1.473025 -1.1890844,2.662109 -2.6621094,2.662109 -1.473025,0 -2.6621093,-1.189084 -2.6621094,-2.662109 0,-1.4730251 1.1890843,-2.6640625 2.6621094,-2.6640625 z"
         id="path18" /><path
         style="stroke-linecap:round;stroke-linejoin:round;stroke-miterlimit:9"
         d="m 6.359375,21.587891 c -1.7138446,0 -3.1074219,1.393577 -3.1074219,3.107421 0,1.713845 1.3935773,3.107422 3.1074219,3.107422 1.7138447,0 3.109375,-1.393577 3.109375,-3.107422 0,-1.713844 -1.3955303,-3.107421 -3.109375,-3.107421 z m 0,0.445312 c 1.4730251,0 2.6621094,1.189084 2.6621094,2.662109 0,1.473026 -1.1890843,2.66211 -2.6621094,2.66211 -1.4730251,0 -2.6621094,-1.189084 -2.6621094,-2.66211 0,-1.473025 1.1890843,-2.662109 2.6621094,-2.662109 z"
         id="path18-2" /><path
         style="stroke-linecap:round;stroke-linejoin:round;stroke-miterlimit:9"
         d="m 15.927734,1.1542969 c -1.713844,0 -3.107421,1.3935772 -3.107421,3.1074218 0,1.7138447 1.393577,3.1093751 3.107421,3.109375 1.713845,0 3.107422,-1.3955303 3.107422,-3.109375 0,-1.7138446 -1.393577,-3.1074218 -3.107422,-3.1074218 z m 0,0.4453125 c 1.473025,0 2.66211,1.1890843 2.66211,2.6621093 0,1.4730251 -1.189085,2.6640625 -2.66211,2.6640625 -1.473025,0 -2.662109,-1.1910374 -2.662109,-2.6640625 0,-1.473025 1.189084,-2.6621093 2.662109,-2.6621093 z"
         id="path18-2-1" /><path
         style="stroke-linecap:round;stroke-linejoin:round;stroke-miterlimit:9"
         d="m 15.927734,17.505859 c -1.713844,0 -3.107421,1.393578 -3.107421,3.107422 0,1.713845 1.393577,3.107422 3.107421,3.107422 1.713845,0 3.107422,-1.393577 3.107422,-3.107422 0,-1.713844 -1.393577,-3.107422 -3.107422,-3.107422 z m 0,0.445313 c 1.473025,0 2.66211,1.189084 2.66211,2.662109 0,1.473025 -1.189085,2.66211 -2.66211,2.66211 -1.473025,0 -2.662109,-1.189085 -2.662109,-2.66211 0,-1.473025 1.189084,-2.662109 2.662109,-2.662109 z"
         id="path18-2-1-5" /><path
         style="stroke-linecap:round;stroke-linejoin:round;stroke-miterlimit:9"
         d="m 25.630859,21.587891 c -1.713844,0 -3.107422,1.393577 -3.107422,3.107421 0,1.713845 1.393578,3.107422 3.107422,3.107422 1.713845,0 3.107422,-1.393577 3.107422,-3.107422 0,-1.713844 -1.393577,-3.107421 -3.107422,-3.107421 z m 0,0.445312 c 1.473025,0 2.66211,1.189084 2.66211,2.662109 0,1.473026 -1.189085,2.66211 -2.66211,2.66211 -1.473025,0 -2.662109,-1.189084 -2.662109,-2.66211 0,-1.473025 1.189084,-2.662109 2.662109,-2.662109 z"
         id="path18-2-1-5-1" /><path
         style="stroke-linecap:round;stroke-linejoin:round;stroke-miterlimit:9"
         d="m 35.115234,9.2734375 c -1.713844,0 -3.109375,1.3935775 -3.109375,3.1074215 0,1.713845 1.395531,3.109375 3.109375,3.109375 1.713845,0 3.107422,-1.39553 3.107422,-3.109375 0,-1.713844 -1.393577,-3.1074215 -3.107422,-3.1074215 z m 0,0.4453125 c 1.473025,0 2.66211,1.189084 2.66211,2.662109 0,1.473025 -1.189085,2.66211 -2.66211,2.66211 -1.473025,0 -2.662109,-1.189085 -2.662109,-2.66211 0,-1.473025 1.189084,-2.662109 2.662109,-2.662109 z"
         id="path18-2-1-5-1-2" /><path
         id="path56"
         style="fill:#473c3a;stroke-linecap:round;stroke-linejoin:round;stroke-miterlimit:9"
         d="m 15.898254,3.6803955 a 0.58249998,0.58249998 0 0 0 -0.0124,0.0031 0.58249998,0.58249998 0 0 0 -0.04186,0.010852 0.58249998,0.58249998 0 0 0 -0.04909,0.011886 0.58249998,0.58249998 0 0 0 -0.08578,0.016536 L 6.005835,7.6465617 A 0.58249998,0.58249998 0 0 0 5.683374,8.4041382 0.58249998,0.58249998 0 0 0 6.4435343,8.7265991 L 14.771708,5.358846 5.8322021,24.447087 a 0.58249998,0.58249998 0 0 0 -0.00258,0.01499 0.58249998,0.58249998 0 0 0 -0.046509,0.260966 0.58249998,0.58249998 0 0 0 0.01602,0.077 0.58249998,0.58249998 0 0 0 0.025321,0.121956 0.58249998,0.58249998 0 0 0 0.040308,0.05891 0.58249998,0.58249998 0 0 0 0.052193,0.077 0.58249998,0.58249998 0 0 0 0.1550293,0.130225 0.58249998,0.58249998 0 0 0 0.041341,0.03462 0.58249998,0.58249998 0 0 0 0.01602,0.0026 0.58249998,0.58249998 0 0 0 0.2604493,0.04599 0.58249998,0.58249998 0 0 0 0.069246,-0.01395 0.58249998,0.58249998 0 0 0 0.1286743,-0.02687 l 9.3399984,-3.962549 9.478491,3.964616 a 0.58255823,0.58255823 0 0 0 0.118856,0.02119 0.58249998,0.58249998 0 0 0 0.08837,0.01602 0.58255823,0.58255823 0 0 0 0.221692,-0.04082 0.58249998,0.58249998 0 0 0 0.04599,-0.0083 0.58249998,0.58249998 0 0 0 0.01137,-0.0067 0.58255823,0.58255823 0 0 0 0.01344,-0.0078 0.58249998,0.58249998 0 0 0 0.176734,-0.147794 0.58255823,0.58255823 0 0 0 0.0093,-0.0078 l 9.484176,-12.314493 a 0.58249998,0.58249998 0 0 0 -0.10542,-0.816488 0.58249998,0.58249998 0 0 0 -0.818555,0.105937 L 25.748816,23.587708 16.455843,4.0168091 a 0.58249998,0.58249998 0 0 0 -0.0026,-0.00517 0.58249998,0.58249998 0 0 0 -0.0015,-0.00207 0.58249998,0.58249998 0 0 0 -0.129191,-0.1731161 0.58249998,0.58249998 0 0 0 -0.01499,-0.012919 0.58249998,0.58249998 0 0 0 -0.133842,-0.0894 0.58249998,0.58249998 0 0 0 -0.01137,-0.00207 0.58249998,0.58249998 0 0 0 -0.02067,-0.00775 0.58249998,0.58249998 0 0 0 -0.0186,-0.011369 0.58249998,0.58249998 0 0 0 -0.114205,-0.016536 0.58249998,0.58249998 0 0 0 -0.09147,-0.013436 0.58249998,0.58249998 0 0 0 -0.01912,-0.00258 z m 0.03359,1.947168 8.52041,17.9425745 -8.299752,-3.472657 a 0.58249998,0.58249998 0 0 0 -0.0067,-0.001 0.58249998,0.58249998 0 0 0 -0.261483,-0.03514 0.58249998,0.58249998 0 0 0 -0.08165,0.01705 0.58249998,0.58249998 0 0 0 -0.103353,0.02119 L 7.53184,23.56497 Z"
         inkscape:label="lit-edges" /><path
         id="path3-1"
         style="stroke-width:0.0533078;stroke-linecap:round;stroke-linejoin:round;stroke-miterlimit:9"
         d="M 8.4978542,8.1866335 A 2.2733116,2.2733116 0 0 1 6.2245426,10.459945 2.2733116,2.2733116 0 0 1 3.951231,8.1866335 2.2733116,2.2733116 0 0 1 6.2245426,5.9133219 2.2733116,2.2733116 0 0 1 8.4978542,8.1866335 Z" /><path
         id="circle4-8"
         style="stroke-width:0.0533078;stroke-linecap:round;stroke-linejoin:round;stroke-miterlimit:9"
         d="M 8.6331677,24.695215 A 2.2733116,2.2733116 0 0 1 6.3598561,26.968527 2.2733116,2.2733116 0 0 1 4.0865445,24.695215 2.2733116,2.2733116 0 0 1 6.3598561,22.421904 2.2733116,2.2733116 0 0 1 8.6331677,24.695215 Z" /><path
         id="circle5-9"
         style="stroke-width:0.0533078;stroke-linecap:round;stroke-linejoin:round;stroke-miterlimit:9"
         d="M 18.200948,4.2624549 A 2.2733116,2.2733116 0 0 1 15.927636,6.5357665 2.2733116,2.2733116 0 0 1 13.654325,4.2624549 2.2733116,2.2733116 0 0 1 15.927636,1.9891433 2.2733116,2.2733116 0 0 1 18.200948,4.2624549 Z" /><path
         id="circle7-2"
         style="stroke-width:0.0533078;stroke-linecap:round;stroke-linejoin:round;stroke-miterlimit:9"
         d="m 18.200948,20.635729 a 2.2733116,2.2733116 0 0 1 -2.273312,2.273311 2.2733116,2.2733116 0 0 1 -2.273311,-2.273311 2.2733116,2.2733116 0 0 1 2.273311,-2.273312 2.2733116,2.2733116 0 0 1 2.273312,2.273312 z" /><path
         id="circle11-7"
         style="stroke-width:0.0533078;stroke-linecap:round;stroke-linejoin:round;stroke-miterlimit:9"
         d="m 27.904041,24.695215 a 2.2733116,2.2733116 0 0 1 -2.273311,2.273312 2.2733116,2.2733116 0 0 1 -2.273312,-2.273312 2.2733116,2.2733116 0 0 1 2.273312,-2.273311 2.2733116,2.2733116 0 0 1 2.273311,2.273311 z" /><path
         id="circle12-9"
         style="stroke-width:0.0533078;stroke-linecap:round;stroke-linejoin:round;stroke-miterlimit:9"
         d="m 37.387859,12.381438 a 2.2733116,2.2733116 0 0 1 -2.273311,2.273312 2.2733116,2.2733116 0 0 1 -2.273312,-2.273312 2.2733116,2.2733116 0 0 1 2.273312,-2.273311 2.2733116,2.2733116 0 0 1 2.273311,2.273311 z" /></g></g><g
     id="g78"
     inkscape:label="bioinformatics"
     transform="matrix(0.79098577,0,0,0.79098577,-132.45442,12.513849)"><g
       id="g13"
       inkscape:label="visible-shapes"
       class="visible-shapes"><path
         id="path11"
         style="stroke-linecap:round"
         d="m 162.71668,55.707711 a 1.3825001,1.3825001 0 0 0 -1.37511,0.68678 c -3.28724,5.760929 -3.2234,10.370005 -2.14405,14.240474 0.38728,1.388747 0.87457,2.670028 1.36271,3.923275 -1.93366,0.657222 -3.85409,1.429147 -5.60535,2.658752 -6.79122,4.768302 -7.87083,11.474235 -7.87083,11.474235 a 1.3825001,1.3825001 0 0 0 1.156,1.578198 1.3825001,1.3825001 0 0 0 1.57613,-1.156001 c 0,0 0.0147,-0.08955 0.0424,-0.223759 l 9.99836,4.501017 a 1.3825001,1.3825001 0 0 0 0.50436,1.30638 1.3825001,1.3825001 0 0 0 1.93942,-0.257865 c 0,0 4.10202,-5.413219 3.03702,-13.63276 -0.20933,-1.615554 -0.63208,-3.096413 -1.12603,-4.503084 1.06427,-0.360386 2.14801,-0.749341 3.2396,-1.219564 4.05867,-1.748347 8.07341,-4.830238 10.24795,-11.460799 a 1.3825001,1.3825001 0 0 0 -0.88263,-1.74408 1.3825001,1.3825001 0 0 0 -1.74615,0.882634 c -0.0955,0.291167 -0.19613,0.566398 -0.29714,0.840259 l -11.29853,-5.344377 c 0.0895,-0.164492 0.17335,-0.325481 0.26923,-0.49351 a 1.3825001,1.3825001 0 0 0 -0.51573,-1.885156 1.3825001,1.3825001 0 0 0 -0.5116,-0.171049 z m -0.45682,5.143872 11.33678,5.361946 c -0.36015,0.657829 -0.74045,1.256354 -1.14308,1.792139 l -10.75335,-5.442562 c 0.1453,-0.549367 0.33062,-1.119018 0.55965,-1.711523 z m -0.99994,4.698938 9.12658,4.620906 c -0.6333,0.523229 -1.29723,0.972815 -1.98851,1.366842 l -7.00061,-3.781165 c -0.10572,-0.712967 -0.15691,-1.444764 -0.13746,-2.206583 z m 1.14205,6.004801 2.7311,1.475879 c -0.62739,0.232831 -1.26915,0.449524 -1.91564,0.659908 -0.28435,-0.716501 -0.5631,-1.433316 -0.81546,-2.135787 z m -0.84284,5.630664 c 0.35003,0.97507 0.65215,1.94588 0.85731,2.935738 l -3.92947,-1.742529 c 0.95334,-0.445481 1.98584,-0.825355 3.07216,-1.193209 z m -5.9955,3.03134 7.18923,3.188436 c 0.0115,0.987899 -0.0575,1.906151 -0.17829,2.754354 l -9.02064,-4.056084 c 0.58003,-0.634658 1.24084,-1.269708 2.0097,-1.886706 z m -3.80338,4.221448 10.16113,4.568713 c -0.22965,0.710937 -0.48052,1.327342 -0.72243,1.844849 l -10.39007,-4.678268 c 0.25246,-0.53784 0.56173,-1.120213 0.95137,-1.735294 z" /></g><g
       id="g14"
       inkscape:label="hidden-shapes"
       class="hidden-shapes"><path
         d="m 136.38943,60.552555 v -1.550288 q 0,-1.353918 0.67179,-2.139398 0.67696,-0.785479 1.83968,-0.785479 1.16271,0 1.83967,0.785479 0.67696,0.78548 0.67696,2.139398 v 1.550288 q 0,1.353918 -0.67696,2.144565 -0.67696,0.785479 -1.83967,0.785479 -1.16272,0 -1.83968,-0.785479 -0.67179,-0.790647 -0.67179,-2.144565 z m 2.01021,-1.963698 v 2.377108 q 0,0.645953 0.50126,0.645953 0.50642,0 0.50642,-0.645953 v -2.377108 q 0,-0.645954 -0.50642,-0.645954 -0.50126,0 -0.50126,0.645954 z m 4.00491,1.963698 v -1.550288 q 0,-1.353918 0.67179,-2.139398 0.67696,-0.785479 1.83967,-0.785479 1.16272,0 1.83968,0.785479 0.67696,0.78548 0.67696,2.139398 v 1.550288 q 0,1.353918 -0.67696,2.144565 -0.67696,0.785479 -1.83968,0.785479 -1.16271,0 -1.83967,-0.785479 -0.67179,-0.790647 -0.67179,-2.144565 z m 2.0102,-1.963698 v 2.377108 q 0,0.645953 0.50126,0.645953 0.50643,0 0.50643,-0.645953 v -2.377108 q 0,-0.645954 -0.50643,-0.645954 -0.50126,0 -0.50126,0.645954 z m 4.00491,1.963698 v -1.550288 q 0,-1.353918 0.6718,-2.139398 0.67696,-0.785479 1.83967,-0.785479 1.16272,0 1.83968,0.785479 0.67696,0.78548 0.67696,2.139398 v 1.550288 q 0,1.353918 -0.67696,2.144565 -0.67696,0.785479 -1.83968,0.785479 -1.16271,0 -1.83967,-0.785479 -0.6718,-0.790647 -0.6718,-2.144565 z m 2.01021,-1.963698 v 2.377108 q 0,0.645953 0.50126,0.645953 0.50643,0 0.50643,-0.645953 v -2.377108 q 0,-0.645954 -0.50643,-0.645954 -0.50126,0 -0.50126,0.645954 z m 7.52407,-2.335768 V 63.3069 h -1.99988 v -7.053811 z m 21.01673,4.299466 v -1.550288 q 0,-1.353918 0.6718,-2.139398 0.67696,-0.785479 1.83967,-0.785479 1.16272,0 1.83968,0.785479 0.67696,0.78548 0.67696,2.139398 v 1.550288 q 0,1.353918 -0.67696,2.144565 -0.67696,0.785479 -1.83968,0.785479 -1.16271,0 -1.83967,-0.785479 -0.6718,-0.790647 -0.6718,-2.144565 z m 2.01021,-1.963698 v 2.377108 q 0,0.645953 0.50126,0.645953 0.50643,0 0.50643,-0.645953 v -2.377108 q 0,-0.645954 -0.50643,-0.645954 -0.50126,0 -0.50126,0.645954 z"
         id="path14"
         style="font-size:10.5833px;line-height:0.95;font-family:'Bauhaus 93';-inkscape-font-specification:'Bauhaus 93, ';text-align:center;text-anchor:middle;stroke-width:0.264583"
         transform="translate(-1.0271992e-6)" /><path
         d="m 136.75116,70.606689 v -1.550288 q 0,-1.353918 0.67179,-2.139397 0.67696,-0.785479 1.83968,-0.785479 1.16272,0 1.83967,0.785479 0.67696,0.785479 0.67696,2.139397 v 1.550288 q 0,1.353919 -0.67696,2.144566 -0.67695,0.785479 -1.83967,0.785479 -1.16272,0 -1.83968,-0.785479 -0.67179,-0.790647 -0.67179,-2.144566 z m 2.01021,-1.963698 V 71.0201 q 0,0.645953 0.50126,0.645953 0.50643,0 0.50643,-0.645953 v -2.377109 q 0,-0.645953 -0.50643,-0.645953 -0.50126,0 -0.50126,0.645953 z m 4.00491,1.963698 v -1.550288 q 0,-1.353918 0.67179,-2.139397 0.67696,-0.785479 1.83968,-0.785479 1.16271,0 1.83967,0.785479 0.67696,0.785479 0.67696,2.139397 v 1.550288 q 0,1.353919 -0.67696,2.144566 -0.67696,0.785479 -1.83967,0.785479 -1.16272,0 -1.83968,-0.785479 -0.67179,-0.790647 -0.67179,-2.144566 z m 2.01021,-1.963698 V 71.0201 q 0,0.645953 0.50126,0.645953 0.50642,0 0.50642,-0.645953 v -2.377109 q 0,-0.645953 -0.50642,-0.645953 -0.50126,0 -0.50126,0.645953 z m 7.52406,-2.335767 v 7.053811 h -1.99987 v -7.053811 z m 26.30839,4.299465 v -1.550288 q 0,-1.353918 0.67179,-2.139397 0.67696,-0.785479 1.83968,-0.785479 1.16271,0 1.83967,0.785479 0.67696,0.785479 0.67696,2.139397 v 1.550288 q 0,1.353919 -0.67696,2.144566 -0.67696,0.785479 -1.83967,0.785479 -1.16272,0 -1.83968,-0.785479 -0.67179,-0.790647 -0.67179,-2.144566 z m 2.01021,-1.963698 V 71.0201 q 0,0.645953 0.50126,0.645953 0.50642,0 0.50642,-0.645953 v -2.377109 q 0,-0.645953 -0.50642,-0.645953 -0.50126,0 -0.50126,0.645953 z"
         id="path15"
         style="font-size:10.5833px;line-height:0.95;font-family:'Bauhaus 93';-inkscape-font-specification:'Bauhaus 93, ';text-align:center;text-anchor:middle;stroke-width:0.264583"
         transform="translate(-1.0271992e-6)" /><path
         d="m 139.90858,76.361359 v 7.05381 h -1.99987 v -7.05381 z m 6.01512,0 v 7.05381 h -1.99987 v -7.05381 z m 24.53589,0 v 7.05381 h -1.99987 v -7.05381 z m 2.49597,4.299465 v -1.550288 q 0,-1.353918 0.67179,-2.139398 0.67696,-0.785479 1.83967,-0.785479 1.16272,0 1.83968,0.785479 0.67696,0.78548 0.67696,2.139398 v 1.550288 q 0,1.353918 -0.67696,2.144565 -0.67696,0.785479 -1.83968,0.785479 -1.16271,0 -1.83967,-0.785479 -0.67179,-0.790647 -0.67179,-2.144565 z m 2.0102,-1.963698 v 2.377108 q 0,0.645953 0.50126,0.645953 0.50643,0 0.50643,-0.645953 v -2.377108 q 0,-0.645954 -0.50643,-0.645954 -0.50126,0 -0.50126,0.645954 z m 4.00491,1.963698 v -1.550288 q 0,-1.353918 0.6718,-2.139398 0.67696,-0.785479 1.83967,-0.785479 1.16272,0 1.83968,0.785479 0.67696,0.78548 0.67696,2.139398 v 1.550288 q 0,1.353918 -0.67696,2.144565 -0.67696,0.785479 -1.83968,0.785479 -1.16271,0 -1.83967,-0.785479 -0.6718,-0.790647 -0.6718,-2.144565 z m 2.01021,-1.963698 v 2.377108 q 0,0.645953 0.50126,0.645953 0.50643,0 0.50643,-0.645953 v -2.377108 q 0,-0.645954 -0.50643,-0.645954 -0.50126,0 -0.50126,0.645954 z"
         id="path16"
         style="font-size:10.5833px;line-height:0.95;font-family:'Bauhaus 93';-inkscape-font-specification:'Bauhaus 93, ';text-align:center;text-anchor:middle;stroke-width:0.264583"
         transform="translate(-1.0271992e-6)" /><path
         d="m 139.90858,86.415493 v 7.053811 h -1.99987 v -7.053811 z m 6.01512,0 v 7.053811 h -1.99987 v -7.053811 z m 21.01674,4.299466 v -1.550288 q 0,-1.353919 0.67179,-2.139398 0.67696,-0.785479 1.83968,-0.785479 1.16271,0 1.83967,0.785479 0.67696,0.785479 0.67696,2.139398 v 1.550288 q 0,1.353918 -0.67696,2.144565 -0.67696,0.785479 -1.83967,0.785479 -1.16272,0 -1.83968,-0.785479 -0.67179,-0.790647 -0.67179,-2.144565 z m 2.01021,-1.963699 v 2.377109 q 0,0.645953 0.50126,0.645953 0.50642,0 0.50642,-0.645953 V 88.75126 q 0,-0.645953 -0.50642,-0.645953 -0.50126,0 -0.50126,0.645953 z m 7.52406,-2.335767 v 7.053811 h -1.99987 v -7.053811 z m 6.01512,0 v 7.053811 h -1.99987 v -7.053811 z"
         id="path17"
         style="font-size:10.5833px;line-height:0.95;font-family:'Bauhaus 93';-inkscape-font-specification:'Bauhaus 93, ';text-align:center;text-anchor:middle;stroke-width:0.264583"
         transform="translate(-1.0271992e-6)" /></g></g><g
     id="analytics"
     inkscape:label="analytics"
     transform="translate(-57.230413,-116.40965)"><g
       id="g10"
       inkscape:label="visible-shapes"
       class="visible-shapes"><path
         id="eye"
         style="fill:#0e1d2c;fill-opacity:1;stroke-width:0.926605;stroke-linejoin:round"
         d="m 82.12957,77.404061 c -5.191191,-0.161809 -10.288399,2.827114 -15.942742,9.086267 -0.278352,0.307859 -0.297759,0.817008 -0.04393,1.152384 9.606567,12.729348 25.326338,10.534762 32.207605,0.163815 0.232216,-0.349735 0.188746,-0.849993 -0.09894,-1.138432 C 92.448369,80.843294 87.320762,77.56587 82.12957,77.404061 Z m -6.419597,4.409295 c -1.351668,1.665775 -1.274103,6.219442 0.02023,8.2628 2.845899,4.492822 9.098309,5.548807 12.80362,0.747241 2.376501,-3.079613 2.377093,-5.474045 1.936789,-7.838664 2.031549,1.533665 2.658452,2.478193 5.167379,4.935695 C 89.243124,96.690262 78.56168,98.478054 69.698844,87.500891 72.3434,84.663917 73.333473,83.13847 75.709976,81.813356 Z M 88.03511,81.388831 c 0.434947,0.5087 0.834753,1.040138 0.92643,1.770951 l -3.353302,1.328084 C 85.420472,83.768368 85.002859,83.209491 84.544439,82.67913 Z m -5.831887,1.245402 c 1.423469,-5.5e-5 2.577427,1.294513 2.577407,2.891296 2e-5,1.59678 -1.153938,2.890835 -2.577407,2.89078 -1.423398,-5.8e-5 -2.576984,-1.29408 -2.576963,-2.89078 -2.1e-5,-1.596703 1.153565,-2.891239 2.576963,-2.891296 z m -3.370518,3.57879 c 0.108842,0.428428 0.222393,0.855485 0.545513,1.221522 l -2.775919,2.176821 c -0.516435,-0.544267 -0.799478,-1.039543 -0.871655,-1.691151 z m 1.01021,2.061611 c 0.253426,0.323345 0.598686,0.557559 1.016365,0.721484 l -1.293362,3.247864 c -0.738478,-0.42958 -1.43715,-0.895218 -1.931836,-1.545642 z"
         inkscape:label="eye"
         sodipodi:nodetypes="sccccscsscccccscccscscsccccccccccc"
         class="visible-shape" /></g><g
       id="g9"
       inkscape:label="hidden-shapes"
       class="hidden-shapes"><g
         id="pie"
         inkscape:label="pie"
         transform="matrix(0.63916677,0,0,0.63916677,27.17933,27.634594)"
         class="hidden-shape"><path
           style="fill:#000000;fill-opacity:1;stroke-width:1.94263;stroke-linecap:round;stroke-linejoin:round;stroke-miterlimit:9"
           inkscape:path-effect="#path-effect49"
           inkscape:original-d="m 63.969307,77.94962 -7.677419,5.947753 a 9.7115328,9.7115328 0 0 0 10.820477,3.240858 9.7115328,9.7115328 0 0 0 6.568476,-9.188611 z"
           d="m 63.341826,78.435734 -6.422457,4.975525 c -0.346548,0.268473 -0.41208,0.769663 -0.116403,1.093149 2.410759,2.637494 6.085011,3.737987 9.548711,2.859984 0.424854,-0.107695 1.09869,-0.338198 1.500461,-0.513264 3.275592,-1.427297 5.505974,-4.547348 5.796448,-8.108568 0.03563,-0.43684 -0.323119,-0.79294 -0.761495,-0.79294 l -8.124034,0 a 2.3206529,2.3206529 161.1174 0 0 -1.421231,0.486114 z"
           id="pie1"
           inkscape:label="pie1" /><path
           style="fill:#000000;fill-opacity:1;stroke-width:1.94263;stroke-linecap:round;stroke-linejoin:round;stroke-miterlimit:9"
           inkscape:path-effect="#path-effect47"
           inkscape:original-d="m 61.100725,68.054314 a 8.8353038,9.1443299 5.1296678e-6 0 0 -6.294001,5.596771 8.8353038,9.1443299 5.1296678e-6 0 0 0.965397,8.53003 l 7.264917,-5.204778 z"
           d="m 60.336969,68.269417 c -2.274968,0.755425 -4.159422,2.434789 -5.218919,4.651774 -0.188968,0.395413 -0.440269,1.061875 -0.559736,1.483522 -0.674274,2.379792 -0.384707,4.943759 0.801531,7.098389 0.211363,0.383911 0.701163,0.471047 1.057523,0.215741 l 5.974423,-4.280234 a 1.2077718,1.2077718 111.0682 0 0 0.476901,-1.237964 l -1.599621,-7.370639 c -0.09297,-0.428403 -0.516211,-0.69869 -0.932102,-0.560589 z"
           id="pie2"
           inkscape:label="pie2" /><path
           style="fill:#000000;fill-opacity:1;stroke-width:1.94263;stroke-linecap:round;stroke-linejoin:round;stroke-miterlimit:9"
           inkscape:path-effect="#path-effect45"
           inkscape:original-d="m 67.75044,67.903671 -3.197478,9.169682 9.709955,-0.19718 A 9.7115328,9.7115328 0 0 0 67.75044,67.903671 Z"
           d="m 67.489092,68.653162 -2.674782,7.6707 a 0.55180351,0.55180351 54.030187 0 0 0.532238,0.733376 l 8.122783,-0.16495 c 0.438285,-0.0089 0.78972,-0.372181 0.745205,-0.80817 -0.353693,-3.464103 -2.542052,-6.479108 -5.725981,-7.888961 -0.400754,-0.177455 -0.855125,0.04407 -0.999463,0.458005 z"
           id="pie4"
           inkscape:label="pie4" /><path
           style="fill:#000000;fill-opacity:1;stroke-width:1.94263;stroke-linecap:round;stroke-linejoin:round;stroke-miterlimit:9"
           inkscape:path-effect="#path-effect43"
           inkscape:original-d="m 63.732692,67.036077 a 9.7115328,9.7115328 0 0 0 -1.590064,0.123822 l 1.54826,9.587704 3.176183,-9.177569 A 9.7115328,9.7115328 0 0 0 63.732692,67.03607 Z"
           d="m 62.939688,67.064937 c -0.003,2.36e-4 -0.0061,4.73e-4 -0.0091,7.12e-4 -0.436914,0.03423 -0.731258,0.445079 -0.661372,0.877849 l 1.295182,8.020506 a 0.19983966,0.19983966 4.9583056 0 0 0.386134,0.0335 l 2.656993,-7.677369 c 0.14337,-0.414269 -0.0758,-0.869729 -0.500273,-0.978768 -0.518926,-0.133301 -1.048,-0.223433 -1.581792,-0.269469 -0.436633,-0.03766 -0.792719,-0.03582 -0.792719,-0.03582 z"
           id="pie3"
           inkscape:label="pie3" /></g><path
         id="bars"
         style="fill:#000000;fill-opacity:1;stroke:none;stroke-width:1.465;stroke-linecap:round;stroke-linejoin:round;stroke-miterlimit:9;stroke-dasharray:none;stroke-opacity:1"
         d="m 89.142789,89.668787 c -0.46688,0 -0.842326,0.375963 -0.842326,0.842842 v 11.470621 c 0,0.46688 0.375446,0.84285 0.842326,0.84285 h 0.946195 c 0.46688,0 0.842323,-0.37597 0.842323,-0.84285 V 90.511629 c 0,-0.466879 -0.375443,-0.842842 -0.842323,-0.842842 z m 3.827317,1.531172 c -0.466879,0 -0.842319,0.375447 -0.842319,0.842326 v 9.939965 c 0,0.46688 0.37544,0.84285 0.842319,0.84285 h 0.9462 c 0.46688,0 0.84232,-0.37597 0.84232,-0.84285 v -9.939965 c 0,-0.466879 -0.37544,-0.842326 -0.84232,-0.842326 z m -15.643949,1.291394 c -0.466879,0 -0.842843,0.375964 -0.842843,0.842843 v 8.648054 c 0,0.46688 0.375964,0.84285 0.842843,0.84285 h 0.945679 c 0.466879,0 0.842842,-0.37597 0.842842,-0.84285 v -8.648054 c 0,-0.466879 -0.375963,-0.842843 -0.842842,-0.842843 z m 7.869926,0 c -0.466879,0 -0.842842,0.375964 -0.842842,0.842843 v 8.648054 c 0,0.46688 0.375963,0.84285 0.842842,0.84285 h 0.945679 c 0.466879,0 0.842843,-0.37597 0.842843,-0.84285 v -8.648054 c 0,-0.466879 -0.375964,-0.842843 -0.842843,-0.842843 z m -3.92322,2.296501 c -0.46688,0 -0.842326,0.375963 -0.842326,0.84284 v 6.351556 c 0,0.46688 0.375446,0.84285 0.842326,0.84285 h 0.946195 c 0.466879,0 0.842326,-0.37597 0.842326,-0.84285 v -6.351556 c 0,-0.466877 -0.375447,-0.84284 -0.842326,-0.84284 z m -11.641579,0.901578 c -0.466879,0 -0.842843,0.375964 -0.842843,0.842843 v 5.332805 c 0,0.46688 0.375964,0.84285 0.842843,0.84285 h 0.945679 c 0.466879,0 0.842842,-0.37597 0.842842,-0.84285 v -5.332805 c 0,-0.466879 -0.375963,-0.842843 -0.842842,-0.842843 z m 3.946706,-1.018745 c -0.46688,0 -0.842326,0.375963 -0.842326,0.84284 v 6.351553 c 0,0.46688 0.375446,0.84285 0.842326,0.84285 h 0.946195 c 0.466879,0 0.842326,-0.37597 0.842326,-0.84285 v -6.351553 c 0,-0.466877 -0.375447,-0.84284 -0.842326,-0.84284 z"
         inkscape:label="bars"
         sodipodi:nodetypes="sssssssssssssssssssssssssssssssssssssssssssssssssssssssssssssss"
         class="hidden-shape" /><g
         id="g8"
         inkscape:label="lines"
         transform="translate(0,2.5710075)"
         class="hidden-shape"><path
           style="stroke-linecap:round;stroke-linejoin:round"
           d="m 87.978516,68.292969 a 0.73250002,0.73250002 0 0 0 -0.732422,0.732422 v 11.003906 a 0.73257327,0.73257327 0 0 0 0.732422,0.732422 h 13.568364 a 0.73250002,0.73250002 0 0 0 0.73242,-0.732422 0.73250002,0.73250002 0 0 0 -0.73242,-0.732422 H 88.710937 V 69.025391 a 0.73250002,0.73250002 0 0 0 -0.732421,-0.732422 z"
           id="path1" /><path
           style="stroke-linecap:round"
           d="m 91.263672,74.734375 -3.34375,1.347656 a 0.2825,0.2825 0 0 0 -0.15625,0.369141 0.2825,0.2825 0 0 0 0.367187,0.15625 l 3.066407,-1.236328 3.1875,2.140625 3.925781,-1.052735 3.291013,2.132813 a 0.2825,0.2825 0 0 0 0.39063,-0.08398 0.2825,0.2825 0 0 0 -0.082,-0.390625 l -3.501957,-2.269531 -3.921875,1.052735 z"
           id="path2" /><path
           style="stroke-linecap:round"
           d="m 87.935547,74.355469 a 0.2825,0.2825 0 0 0 -0.164063,0.142578 0.2825,0.2825 0 0 0 0.128907,0.376953 l 3.296875,1.625 3.521484,-0.832031 3.798828,-0.277344 3.074222,2.189453 a 0.2825,0.2825 0 0 0 0.39453,-0.06641 0.2825,0.2825 0 0 0 -0.0664,-0.394531 l -3.240233,-2.306641 -4.046875,0.294922 -3.367187,0.794922 -3.115234,-1.533203 a 0.2825,0.2825 0 0 0 -0.214844,-0.01367 z"
           id="path4" /><path
           style="stroke-linecap:round"
           d="m 98.609375,70.636719 -4.009766,1.322265 -3.333984,0.78711 -3.115234,-1.535157 a 0.2825,0.2825 0 0 0 -0.378907,0.128907 0.2825,0.2825 0 0 0 0.128907,0.378906 l 3.296875,1.623047 3.554687,-0.839844 3.835938,-1.261719 3.060549,1.251953 a 0.2825,0.2825 0 0 0 0.36914,-0.154296 0.2825,0.2825 0 0 0 -0.1543,-0.369141 z"
           id="path5" /><path
           style="stroke-linecap:round"
           d="m 90.896484,68.65625 a 0.0825,0.0825 0 0 0 -0.08203,0.08203 v 11.195313 a 0.0825,0.0825 0 0 0 0.08203,0.08203 0.0825,0.0825 0 0 0 0.08203,-0.08203 V 68.738281 a 0.0825,0.0825 0 0 0 -0.08203,-0.08203 z m 1.851563,0 a 0.0825,0.0825 0 0 0 -0.08203,0.08203 v 11.195313 a 0.0825,0.0825 0 0 0 0.08203,0.08203 0.0825,0.0825 0 0 0 0.08203,-0.08203 V 68.738281 a 0.0825,0.0825 0 0 0 -0.08203,-0.08203 z m 1.851562,0 a 0.0825,0.0825 0 0 0 -0.08203,0.08203 v 11.195313 a 0.0825,0.0825 0 0 0 0.08203,0.08203 0.0825,0.0825 0 0 0 0.08398,-0.08203 V 68.738281 a 0.0825,0.0825 0 0 0 -0.08398,-0.08203 z m 1.853516,0 a 0.0825,0.0825 0 0 0 -0.08398,0.08203 v 11.195313 a 0.0825,0.0825 0 0 0 0.08398,0.08203 0.0825,0.0825 0 0 0 0.08203,-0.08203 V 68.738281 a 0.0825,0.0825 0 0 0 -0.08203,-0.08203 z m 1.851562,0 a 0.0825,0.0825 0 0 0 -0.08203,0.08203 v 11.195313 a 0.0825,0.0825 0 0 0 0.08203,0.08203 0.0825,0.0825 0 0 0 0.08203,-0.08203 V 68.738281 a 0.0825,0.0825 0 0 0 -0.08203,-0.08203 z m 1.851563,0 a 0.0825,0.0825 0 0 0 -0.082,0.08203 v 11.195313 a 0.0825,0.0825 0 0 0 0.082,0.08203 0.0825,0.0825 0 0 0 0.082,-0.08203 V 68.738281 a 0.0825,0.0825 0 0 0 -0.082,-0.08203 z m 1.85156,0 a 0.0825,0.0825 0 0 0 -0.082,0.08203 v 11.195313 a 0.0825,0.0825 0 0 0 0.082,0.08203 0.0825,0.0825 0 0 0 0.084,-0.08203 V 68.738281 a 0.0825,0.0825 0 0 0 -0.084,-0.08203 z"
           id="path6"
           transform="translate(-0.60212284)" /><path
           style="stroke-linecap:round"
           d="m 90.896484,68.65625 a 0.0825,0.0825 0 0 0 -0.08203,0.08203 v 13.240235 a 0.0825,0.0825 0 0 0 0.08203,0.08203 0.0825,0.0825 0 0 0 0.08203,-0.08203 V 68.738281 a 0.0825,0.0825 0 0 0 -0.08203,-0.08203 z m 1.851563,0 a 0.0825,0.0825 0 0 0 -0.08203,0.08203 v 13.240235 a 0.0825,0.0825 0 0 0 0.08203,0.08203 0.0825,0.0825 0 0 0 0.08203,-0.08203 V 68.738281 a 0.0825,0.0825 0 0 0 -0.08203,-0.08203 z m 1.851562,0 a 0.0825,0.0825 0 0 0 -0.08203,0.08203 v 13.240235 a 0.0825,0.0825 0 0 0 0.08203,0.08203 0.0825,0.0825 0 0 0 0.08398,-0.08203 V 68.738281 a 0.0825,0.0825 0 0 0 -0.08398,-0.08203 z m 1.853516,0 a 0.0825,0.0825 0 0 0 -0.08398,0.08203 v 13.240235 a 0.0825,0.0825 0 0 0 0.08398,0.08203 0.0825,0.0825 0 0 0 0.08203,-0.08203 V 68.738281 a 0.0825,0.0825 0 0 0 -0.08203,-0.08203 z m 1.851562,0 a 0.0825,0.0825 0 0 0 -0.08203,0.08203 v 13.240235 a 0.0825,0.0825 0 0 0 0.08203,0.08203 0.0825,0.0825 0 0 0 0.08203,-0.08203 V 68.738281 a 0.0825,0.0825 0 0 0 -0.08203,-0.08203 z m 1.851563,0 a 0.0825,0.0825 0 0 0 -0.082,0.08203 v 13.240235 a 0.0825,0.0825 0 0 0 0.082,0.08203 0.0825,0.0825 0 0 0 0.082,-0.08203 V 68.738281 a 0.0825,0.0825 0 0 0 -0.082,-0.08203 z m 1.85156,0 a 0.0825,0.0825 0 0 0 -0.082,0.08203 v 13.240235 a 0.0825,0.0825 0 0 0 0.082,0.08203 0.0825,0.0825 0 0 0 0.084,-0.08203 V 68.738281 a 0.0825,0.0825 0 0 0 -0.084,-0.08203 z"
           id="path7"
           transform="rotate(90,96.189158,73.928636)" /></g></g></g><g
     id="g80"
     inkscape:label="astro"
     transform="matrix(0.79783138,0,0,0.79783138,-83.642806,-85.588357)"><g
       id="g17"
       inkscape:label="visible-shapes"
       style="display:inline"
       class="visible-shapes"
       transform="translate(80.47225,51.689329)"><path
         id="rect55"
         style="stroke:none;stroke-width:1.44712;stroke-linecap:round;stroke-linejoin:round;stroke-miterlimit:9"
         d="m 136.36906,115.12949 a 1.0053734,1.0053734 0 0 0 -0.90882,0.86401 1.0053734,1.0053734 0 0 0 0.34954,0.90679 l -2.50857,3.12689 c 0.11085,0.87008 1.57257,1.36376 2.06334,1.13755 l 0.96243,-4.03775 a 1.0053734,1.0053734 0 0 0 1.12532,-0.85859 1.0053734,1.0053734 0 0 0 -0.85858,-1.13348 1.0053734,1.0053734 0 0 0 -0.22466,-0.005 z m -5.5805,1.00179 c -1.70661,-0.0218 -2.98152,0.49868 -3.37599,1.62623 -0.73981,2.1147 0.53543,6.51039 5.15494,8.13591 4.61951,1.62554 8.45462,-0.97899 8.97684,-2.63822 0.40472,-1.28595 -1.30641,-3.79026 -4.91806,-5.55537 l -0.23415,1.17758 a 5.7504292,1.8900961 24.701109 0 1 3.49747,3.65427 5.7504292,1.8900961 24.701109 0 1 -6.0142,-0.68619 5.7504292,1.8900961 24.701109 0 1 -4.43412,-4.11988 5.7504292,1.8900961 24.701109 0 1 2.3511,-0.47578 5.7504292,1.8900961 24.701109 0 1 2.48822,0.67805 l 0.84027,-0.87557 c -1.07482,-0.40513 -2.12406,-0.68312 -3.08686,-0.82057 h -6.7e-4 c -0.43433,-0.062 -0.85096,-0.0954 -1.24479,-0.10046 z m -15.61411,2.52963 -1.47556,3.32507 3.51105,1.55769 1.47556,-3.3244 z m 4.02892,1.78776 -1.47556,3.32508 3.51107,1.55768 1.47554,-3.32441 z m 4.02892,1.78777 -1.47555,3.32508 3.51106,1.55836 1.47554,-3.32509 z m -9.7567,0.25316 -1.47555,3.3244 3.51105,1.55837 1.47556,-3.32508 z m 14.51051,1.22714 -3.85245,9.36712 c -1.35542,3.29524 7.33521,6.25431 8.4739,3.48594 l 3.85314,-9.36712 c -0.70615,0.14671 -2.24261,0.72219 -5.11421,-0.52465 -2.71199,-1.17753 -3.36038,-2.96129 -3.36038,-2.96129 z m -10.48158,0.56063 -1.47556,3.3244 3.51105,1.55836 1.47556,-3.3244 z m 4.02892,1.78777 -1.47555,3.32509 3.51105,1.55767 1.47555,-3.3244 z m 16.32475,2.77532 -1.47556,3.3244 3.51105,1.55836 1.47556,-3.32509 z m 4.02892,1.78775 -1.47556,3.32509 3.51107,1.55769 1.47554,-3.32442 z m 4.02892,1.78778 -1.47555,3.32508 3.51106,1.55767 1.47555,-3.3244 z m -9.7567,0.25316 -1.47555,3.32441 3.51105,1.55836 1.47556,-3.32509 z m 4.02893,1.78777 -1.47556,3.3244 3.51106,1.55836 1.47555,-3.32508 z m 4.02892,1.78777 -1.47555,3.3244 3.51105,1.55836 1.47555,-3.32441 z" /></g><g
       id="g18"
       inkscape:label="hidden-shapes"
       class="hidden-shapes"
       transform="translate(80.47225,51.689329)"><path
         id="path61"
         style="stroke-width:1.92416;stroke-linecap:round;stroke-linejoin:round;stroke-miterlimit:9"
         d="m 126.09138,139.35797 a 2.0107468,2.0107468 0 0 1 -2.01075,2.01075 2.0107468,2.0107468 0 0 1 -2.01075,-2.01075 2.0107468,2.0107468 0 0 1 2.01075,-2.01073 2.0107468,2.0107468 0 0 1 2.01075,2.01073 z" /><path
         id="circle61"
         style="stroke-width:1.8039;stroke-linecap:round;stroke-linejoin:round;stroke-miterlimit:9"
         d="m 120.24764,140.8032 a 1.8850751,1.8850751 0 0 1 -1.88508,1.88509 1.8850751,1.8850751 0 0 1 -1.88507,-1.88509 1.8850751,1.8850751 0 0 1 1.88507,-1.88506 1.8850751,1.8850751 0 0 1 1.88508,1.88506 z" /><path
         id="circle62"
         style="stroke-width:1.56337;stroke-linecap:round;stroke-linejoin:round;stroke-miterlimit:9"
         d="m 114.15255,139.16947 a 1.6337317,1.6337317 0 0 1 -1.63373,1.63373 1.6337317,1.6337317 0 0 1 -1.63373,-1.63373 1.6337317,1.6337317 0 0 1 1.63373,-1.63373 1.6337317,1.6337317 0 0 1 1.63373,1.63373 z" /><path
         id="circle63"
         style="stroke-width:1.32286;stroke-linecap:round;stroke-linejoin:round;stroke-miterlimit:9"
         d="m 109.56554,135.08514 a 1.3823885,1.3823885 0 0 1 -1.38239,1.3824 1.3823885,1.3823885 0 0 1 -1.38239,-1.3824 1.3823885,1.3823885 0 0 1 1.38239,-1.38239 1.3823885,1.3823885 0 0 1 1.38239,1.38239 z" /><path
         id="circle64"
         style="stroke-width:0.962078;stroke-linecap:round;stroke-linejoin:round;stroke-miterlimit:9"
         d="m 107.93182,128.86439 a 1.0053733,1.0053733 0 0 1 -1.00538,1.00538 1.0053733,1.0053733 0 0 1 -1.00537,-1.00538 1.0053733,1.0053733 0 0 1 1.00537,-1.00537 1.0053733,1.0053733 0 0 1 1.00538,1.00537 z" /><path
         id="circle65"
         style="stroke-width:0.781688;stroke-linecap:round;stroke-linejoin:round;stroke-miterlimit:9"
         d="m 109.37704,123.02067 a 0.8168658,0.8168658 0 0 1 -0.81686,0.81686 0.8168658,0.8168658 0 0 1 -0.81687,-0.81686 0.8168658,0.8168658 0 0 1 0.81687,-0.81687 0.8168658,0.8168658 0 0 1 0.81686,0.81687 z" /><path
         id="circle65-1"
         style="stroke-width:0.721559;stroke-linecap:round;stroke-linejoin:round;stroke-miterlimit:9"
         d="m 113.29154,119.0576 a 0.75402997,0.75402997 0 0 1 -0.75403,0.75403 0.75402997,0.75402997 0 0 1 -0.75403,-0.75403 0.75402997,0.75402997 0 0 1 0.75403,-0.75403 0.75402997,0.75402997 0 0 1 0.75403,0.75403 z" /><path
         id="path65"
         style="stroke-width:1.92416;stroke-linecap:round;stroke-linejoin:round;stroke-miterlimit:9"
         d="m 122.93526,113.5658 -0.44246,-2.10692 -2.1479,-0.36738 2.10693,-0.44247 0.36739,-2.14788 0.44246,2.10691 2.14788,0.36739 -2.10691,0.44246 z" /><path
         id="path65-5"
         style="stroke-width:3.54467;stroke-linecap:round;stroke-linejoin:round;stroke-miterlimit:9"
         d="m 148.61521,119.72792 -0.8151,-3.88137 -3.95685,-0.67679 3.88137,-0.81512 0.67682,-3.95682 0.81509,3.88134 3.95682,0.67682 -3.88134,0.81509 z" /><path
         id="path65-5-1"
         style="stroke-width:2.59937;stroke-linecap:round;stroke-linejoin:round;stroke-miterlimit:9"
         d="m 133.27555,146.99452 -0.59772,-2.84628 -2.90163,-0.4963 2.84627,-0.59774 0.49632,-2.90161 0.59773,2.84626 2.9016,0.49632 -2.84625,0.59772 z" /></g></g><text
     xml:space="preserve"
     style="font-size:10.5833px;line-height:0.95;font-family:'Bauhaus 93';-inkscape-font-specification:'Bauhaus 93, ';text-align:center;text-anchor:middle;stroke-width:0.264583"
     x="248.386"
     y="50.077858"
     id="text10-2"
     transform="matrix(0.79098577,0,0,0.79098577,-106.60903,-42.965785)"><tspan
       sodipodi:role="line"
       id="tspan10-4"
       style="line-height:0.95;stroke-width:0.264583"
       x="248.386"
       y="50.077858">0001       0</tspan><tspan
       sodipodi:role="line"
       style="line-height:0.95;stroke-width:0.264583"
       x="248.386"
       y="60.131996"
       id="tspan11-5">001         0</tspan><tspan
       sodipodi:role="line"
       style="line-height:0.95;stroke-width:0.264583"
       x="248.386"
       y="70.186127"
       id="tspan12-5">11       100</tspan><tspan
       sodipodi:role="line"
       style="line-height:0.95;stroke-width:0.264583"
       x="248.386"
       y="80.240265"
       id="tspan13-1">11       011</tspan></text></svg>
