<?xml version="1.0" encoding="UTF-8" standalone="no"?>
<!-- Created with Inkscape (http://www.inkscape.org/) -->

<svg
   width="40.456081mm"
   height="32.343285mm"
   viewBox="0 0 40.456081 32.343285"
   version="1.1"
   id="svg1"
   inkscape:version="1.4 (86a8ad7, 2024-10-11)"
   sodipodi:docname="services.svg"
   inkscape:export-filename="..\public\astro.svg"
   inkscape:export-xdpi="400"
   inkscape:export-ydpi="400"
   xmlns:inkscape="http://www.inkscape.org/namespaces/inkscape"
   xmlns:sodipodi="http://sodipodi.sourceforge.net/DTD/sodipodi-0.dtd"
   xmlns="http://www.w3.org/2000/svg"
   xmlns:svg="http://www.w3.org/2000/svg">
  <sodipodi:namedview
     id="namedview1"
     pagecolor="#ffffff"
     bordercolor="#666666"
     borderopacity="1.0"
     inkscape:showpageshadow="2"
     inkscape:pageopacity="0.0"
     inkscape:pagecheckerboard="0"
     inkscape:deskcolor="#d1d1d1"
     inkscape:document-units="mm"
     inkscape:zoom="3.9105941"
     inkscape:cx="167.74945"
     inkscape:cy="136.80786"
     inkscape:window-width="3840"
     inkscape:window-height="2050"
     inkscape:window-x="3348"
     inkscape:window-y="-12"
     inkscape:window-maximized="1"
     inkscape:current-layer="g80"
     showgrid="false" />
  <defs
     id="defs1">
    <inkscape:path-effect
       effect="tiling"
       id="path-effect8"
       is_visible="true"
       lpeversion="1.3.1"
       unit="px"
       seed="1;1"
       lpesatellites=""
       num_rows="1"
       num_cols="7"
       gapx="7"
       gapy="1.8379561"
       offset="0"
       offset_type="false"
       scale="0"
       rotate="0"
       mirrorrowsx="false"
       mirrorrowsy="false"
       mirrorcolsx="false"
       mirrorcolsy="false"
       mirrortrans="false"
       shrink_interp="false"
       split_items="false"
       link_styles="false"
       interpolate_scalex="false"
       interpolate_scaley="true"
       interpolate_rotatex="false"
       interpolate_rotatey="true"
       random_scale="false"
       random_rotate="false"
       random_gap_y="false"
       random_gap_x="false"
       transformorigin="" />
    <inkscape:path-effect
       effect="tiling"
       id="path-effect6"
       is_visible="true"
       lpeversion="1.3.1"
       unit="px"
       seed="1;1"
       lpesatellites=""
       num_rows="1"
       num_cols="7"
       gapx="7"
       gapy="0"
       offset="0"
       offset_type="false"
       scale="0"
       rotate="0"
       mirrorrowsx="false"
       mirrorrowsy="false"
       mirrorcolsx="false"
       mirrorcolsy="false"
       mirrortrans="false"
       shrink_interp="false"
       split_items="false"
       link_styles="false"
       interpolate_scalex="false"
       interpolate_scaley="true"
       interpolate_rotatex="false"
       interpolate_rotatey="true"
       random_scale="false"
       random_rotate="false"
       random_gap_y="false"
       random_gap_x="false"
       transformorigin="" />
    <inkscape:path-effect
       effect="tiling"
       id="path-effect61"
       is_visible="true"
       lpeversion="1.3.1"
       unit="px"
       seed="1;1"
       lpesatellites=""
       num_rows="2"
       num_cols="3"
       gapx="2"
       gapy="2"
       offset="0"
       offset_type="false"
       scale="0"
       rotate="0"
       mirrorrowsx="false"
       mirrorrowsy="false"
       mirrorcolsx="false"
       mirrorcolsy="false"
       mirrortrans="false"
       shrink_interp="false"
       split_items="false"
       link_styles="false"
       interpolate_scalex="false"
       interpolate_scaley="true"
       interpolate_rotatex="false"
       interpolate_rotatey="true"
       random_scale="false"
       random_rotate="false"
       random_gap_y="false"
       random_gap_x="false"
       transformorigin="" />
    <inkscape:path-effect
       effect="tiling"
       id="path-effect59"
       is_visible="true"
       lpeversion="1.3.1"
       unit="px"
       seed="1;1"
       lpesatellites=""
       num_rows="2"
       num_cols="3"
       gapx="2"
       gapy="2"
       offset="0"
       offset_type="false"
       scale="0"
       rotate="0"
       mirrorrowsx="false"
       mirrorrowsy="false"
       mirrorcolsx="false"
       mirrorcolsy="false"
       mirrortrans="false"
       shrink_interp="false"
       split_items="false"
       link_styles="false"
       interpolate_scalex="false"
       interpolate_scaley="true"
       interpolate_rotatex="false"
       interpolate_rotatey="true"
       random_scale="false"
       random_rotate="false"
       random_gap_y="false"
       random_gap_x="false"
       transformorigin="" />
    <inkscape:path-effect
       effect="fillet_chamfer"
       id="path-effect50"
       is_visible="true"
       lpeversion="1"
       nodesatellites_param="F,0,0,1,0,0.26458333,0,1 @ F,0,0,1,0,0.26458333,0,1 @ F,0,0,1,0,0.26458333,0,1 @ F,0,0,1,0,0.26458333,0,1 @ F,0,0,1,0,0.26458333,0,1 @ F,0,0,1,0,0.26458333,0,1 @ F,0,0,1,0,0.26458333,0,1 @ F,0,0,1,0,0.26458333,0,1 @ F,0,0,1,0,0.26458333,0,1 @ F,0,0,1,0,0.26458333,0,1 @ F,0,0,1,0,0.26458333,0,1 @ F,0,0,1,0,0.26458333,0,1 @ F,0,0,1,0,0.26458333,0,1 @ F,0,0,1,0,0.26458333,0,1"
       radius="2"
       unit="px"
       method="auto"
       mode="F"
       chamfer_steps="1"
       flexible="false"
       use_knot_distance="true"
       apply_no_radius="true"
       apply_with_radius="true"
       only_selected="false"
       hide_knots="false" />
    <inkscape:path-effect
       effect="fillet_chamfer"
       id="path-effect49"
       is_visible="true"
       lpeversion="1"
       nodesatellites_param="F,0,0,1,0,0.79374998,0,1 @ F,0,0,1,0,0.79374998,0,1 @ F,0,0,1,0,0.79374998,0,1 @ F,0,0,1,0,0.79374998,0,1"
       radius="3"
       unit="px"
       method="auto"
       mode="F"
       chamfer_steps="1"
       flexible="false"
       use_knot_distance="true"
       apply_no_radius="true"
       apply_with_radius="true"
       only_selected="false"
       hide_knots="false" />
    <inkscape:path-effect
       effect="fillet_chamfer"
       id="path-effect47"
       is_visible="true"
       lpeversion="1"
       nodesatellites_param="F,0,0,1,0,0.79374998,0,1 @ F,0,0,1,0,0.79374998,0,1 @ F,0,0,1,0,0.79374998,0,1 @ F,0,0,1,0,0.79374998,0,1"
       radius="3"
       unit="px"
       method="auto"
       mode="F"
       chamfer_steps="1"
       flexible="false"
       use_knot_distance="true"
       apply_no_radius="true"
       apply_with_radius="true"
       only_selected="false"
       hide_knots="false" />
    <inkscape:path-effect
       effect="fillet_chamfer"
       id="path-effect45"
       is_visible="true"
       lpeversion="1"
       nodesatellites_param="F,0,0,1,0,0.79374998,0,1 @ F,0,0,1,0,0.79374998,0,1 @ F,0,0,1,0,0.79374998,0,1"
       radius="3"
       unit="px"
       method="auto"
       mode="F"
       chamfer_steps="1"
       flexible="false"
       use_knot_distance="true"
       apply_no_radius="true"
       apply_with_radius="true"
       only_selected="false"
       hide_knots="false" />
    <inkscape:path-effect
       effect="fillet_chamfer"
       id="path-effect43"
       is_visible="true"
       lpeversion="1"
       nodesatellites_param="F,0,0,1,0,0.79374998,0,1 @ F,0,0,1,0,0.79374998,0,1 @ F,0,0,1,0,0.79374998,0,1 @ F,0,0,1,0,0.79374998,0,1 @ F,0,0,1,0,0.79374998,0,1"
       radius="3"
       unit="px"
       method="auto"
       mode="F"
       chamfer_steps="1"
       flexible="false"
       use_knot_distance="true"
       apply_no_radius="true"
       apply_with_radius="true"
       only_selected="false"
       hide_knots="false" />
  </defs>
  <g
     id="g78"
     inkscape:label="bioinformatics"
     transform="matrix(0.79098577,0,0,0.79098577,-132.45442,12.513849)">
    <g
       id="g13"
       inkscape:label="visible-shapes"
       class="visible-shapes">
      <path
         id="path11"
         style="stroke-linecap:round"
         d="m 162.71668,55.707711 a 1.3825001,1.3825001 0 0 0 -1.37511,0.68678 c -3.28724,5.760929 -3.2234,10.370005 -2.14405,14.240474 0.38728,1.388747 0.87457,2.670028 1.36271,3.923275 -1.93366,0.657222 -3.85409,1.429147 -5.60535,2.658752 -6.79122,4.768302 -7.87083,11.474235 -7.87083,11.474235 a 1.3825001,1.3825001 0 0 0 1.156,1.578198 1.3825001,1.3825001 0 0 0 1.57613,-1.156001 c 0,0 0.0147,-0.08955 0.0424,-0.223759 l 9.99836,4.501017 a 1.3825001,1.3825001 0 0 0 0.50436,1.30638 1.3825001,1.3825001 0 0 0 1.93942,-0.257865 c 0,0 4.10202,-5.413219 3.03702,-13.63276 -0.20933,-1.615554 -0.63208,-3.096413 -1.12603,-4.503084 1.06427,-0.360386 2.14801,-0.749341 3.2396,-1.219564 4.05867,-1.748347 8.07341,-4.830238 10.24795,-11.460799 a 1.3825001,1.3825001 0 0 0 -0.88263,-1.74408 1.3825001,1.3825001 0 0 0 -1.74615,0.882634 c -0.0955,0.291167 -0.19613,0.566398 -0.29714,0.840259 l -11.29853,-5.344377 c 0.0895,-0.164492 0.17335,-0.325481 0.26923,-0.49351 a 1.3825001,1.3825001 0 0 0 -0.51573,-1.885156 1.3825001,1.3825001 0 0 0 -0.5116,-0.171049 z m -0.45682,5.143872 11.33678,5.361946 c -0.36015,0.657829 -0.74045,1.256354 -1.14308,1.792139 l -10.75335,-5.442562 c 0.1453,-0.549367 0.33062,-1.119018 0.55965,-1.711523 z m -0.99994,4.698938 9.12658,4.620906 c -0.6333,0.523229 -1.29723,0.972815 -1.98851,1.366842 l -7.00061,-3.781165 c -0.10572,-0.712967 -0.15691,-1.444764 -0.13746,-2.206583 z m 1.14205,6.004801 2.7311,1.475879 c -0.62739,0.232831 -1.26915,0.449524 -1.91564,0.659908 -0.28435,-0.716501 -0.5631,-1.433316 -0.81546,-2.135787 z m -0.84284,5.630664 c 0.35003,0.97507 0.65215,1.94588 0.85731,2.935738 l -3.92947,-1.742529 c 0.95334,-0.445481 1.98584,-0.825355 3.07216,-1.193209 z m -5.9955,3.03134 7.18923,3.188436 c 0.0115,0.987899 -0.0575,1.906151 -0.17829,2.754354 l -9.02064,-4.056084 c 0.58003,-0.634658 1.24084,-1.269708 2.0097,-1.886706 z m -3.80338,4.221448 10.16113,4.568713 c -0.22965,0.710937 -0.48052,1.327342 -0.72243,1.844849 l -10.39007,-4.678268 c 0.25246,-0.53784 0.56173,-1.120213 0.95137,-1.735294 z" />
    </g>
    <g
       id="g14"
       inkscape:label="hidden-shapes"
       class="hidden-shapes">
      <path
         d="m 136.38943,60.552555 v -1.550288 q 0,-1.353918 0.67179,-2.139398 0.67696,-0.785479 1.83968,-0.785479 1.16271,0 1.83967,0.785479 0.67696,0.78548 0.67696,2.139398 v 1.550288 q 0,1.353918 -0.67696,2.144565 -0.67696,0.785479 -1.83967,0.785479 -1.16272,0 -1.83968,-0.785479 -0.67179,-0.790647 -0.67179,-2.144565 z m 2.01021,-1.963698 v 2.377108 q 0,0.645953 0.50126,0.645953 0.50642,0 0.50642,-0.645953 v -2.377108 q 0,-0.645954 -0.50642,-0.645954 -0.50126,0 -0.50126,0.645954 z m 4.00491,1.963698 v -1.550288 q 0,-1.353918 0.67179,-2.139398 0.67696,-0.785479 1.83967,-0.785479 1.16272,0 1.83968,0.785479 0.67696,0.78548 0.67696,2.139398 v 1.550288 q 0,1.353918 -0.67696,2.144565 -0.67696,0.785479 -1.83968,0.785479 -1.16271,0 -1.83967,-0.785479 -0.67179,-0.790647 -0.67179,-2.144565 z m 2.0102,-1.963698 v 2.377108 q 0,0.645953 0.50126,0.645953 0.50643,0 0.50643,-0.645953 v -2.377108 q 0,-0.645954 -0.50643,-0.645954 -0.50126,0 -0.50126,0.645954 z m 4.00491,1.963698 v -1.550288 q 0,-1.353918 0.6718,-2.139398 0.67696,-0.785479 1.83967,-0.785479 1.16272,0 1.83968,0.785479 0.67696,0.78548 0.67696,2.139398 v 1.550288 q 0,1.353918 -0.67696,2.144565 -0.67696,0.785479 -1.83968,0.785479 -1.16271,0 -1.83967,-0.785479 -0.6718,-0.790647 -0.6718,-2.144565 z m 2.01021,-1.963698 v 2.377108 q 0,0.645953 0.50126,0.645953 0.50643,0 0.50643,-0.645953 v -2.377108 q 0,-0.645954 -0.50643,-0.645954 -0.50126,0 -0.50126,0.645954 z m 7.52407,-2.335768 V 63.3069 h -1.99988 v -7.053811 z m 21.01673,4.299466 v -1.550288 q 0,-1.353918 0.6718,-2.139398 0.67696,-0.785479 1.83967,-0.785479 1.16272,0 1.83968,0.785479 0.67696,0.78548 0.67696,2.139398 v 1.550288 q 0,1.353918 -0.67696,2.144565 -0.67696,0.785479 -1.83968,0.785479 -1.16271,0 -1.83967,-0.785479 -0.6718,-0.790647 -0.6718,-2.144565 z m 2.01021,-1.963698 v 2.377108 q 0,0.645953 0.50126,0.645953 0.50643,0 0.50643,-0.645953 v -2.377108 q 0,-0.645954 -0.50643,-0.645954 -0.50126,0 -0.50126,0.645954 z"
         id="path14"
         style="font-size:10.5833px;line-height:0.95;font-family:'Bauhaus 93';-inkscape-font-specification:'Bauhaus 93, ';text-align:center;text-anchor:middle;stroke-width:0.264583"
         transform="translate(-1.0271992e-6)" />
      <path
         d="m 136.75116,70.606689 v -1.550288 q 0,-1.353918 0.67179,-2.139397 0.67696,-0.785479 1.83968,-0.785479 1.16272,0 1.83967,0.785479 0.67696,0.785479 0.67696,2.139397 v 1.550288 q 0,1.353919 -0.67696,2.144566 -0.67695,0.785479 -1.83967,0.785479 -1.16272,0 -1.83968,-0.785479 -0.67179,-0.790647 -0.67179,-2.144566 z m 2.01021,-1.963698 V 71.0201 q 0,0.645953 0.50126,0.645953 0.50643,0 0.50643,-0.645953 v -2.377109 q 0,-0.645953 -0.50643,-0.645953 -0.50126,0 -0.50126,0.645953 z m 4.00491,1.963698 v -1.550288 q 0,-1.353918 0.67179,-2.139397 0.67696,-0.785479 1.83968,-0.785479 1.16271,0 1.83967,0.785479 0.67696,0.785479 0.67696,2.139397 v 1.550288 q 0,1.353919 -0.67696,2.144566 -0.67696,0.785479 -1.83967,0.785479 -1.16272,0 -1.83968,-0.785479 -0.67179,-0.790647 -0.67179,-2.144566 z m 2.01021,-1.963698 V 71.0201 q 0,0.645953 0.50126,0.645953 0.50642,0 0.50642,-0.645953 v -2.377109 q 0,-0.645953 -0.50642,-0.645953 -0.50126,0 -0.50126,0.645953 z m 7.52406,-2.335767 v 7.053811 h -1.99987 v -7.053811 z m 26.30839,4.299465 v -1.550288 q 0,-1.353918 0.67179,-2.139397 0.67696,-0.785479 1.83968,-0.785479 1.16271,0 1.83967,0.785479 0.67696,0.785479 0.67696,2.139397 v 1.550288 q 0,1.353919 -0.67696,2.144566 -0.67696,0.785479 -1.83967,0.785479 -1.16272,0 -1.83968,-0.785479 -0.67179,-0.790647 -0.67179,-2.144566 z m 2.01021,-1.963698 V 71.0201 q 0,0.645953 0.50126,0.645953 0.50642,0 0.50642,-0.645953 v -2.377109 q 0,-0.645953 -0.50642,-0.645953 -0.50126,0 -0.50126,0.645953 z"
         id="path15"
         style="font-size:10.5833px;line-height:0.95;font-family:'Bauhaus 93';-inkscape-font-specification:'Bauhaus 93, ';text-align:center;text-anchor:middle;stroke-width:0.264583"
         transform="translate(-1.0271992e-6)" />
      <path
         d="m 139.90858,76.361359 v 7.05381 h -1.99987 v -7.05381 z m 6.01512,0 v 7.05381 h -1.99987 v -7.05381 z m 24.53589,0 v 7.05381 h -1.99987 v -7.05381 z m 2.49597,4.299465 v -1.550288 q 0,-1.353918 0.67179,-2.139398 0.67696,-0.785479 1.83967,-0.785479 1.16272,0 1.83968,0.785479 0.67696,0.78548 0.67696,2.139398 v 1.550288 q 0,1.353918 -0.67696,2.144565 -0.67696,0.785479 -1.83968,0.785479 -1.16271,0 -1.83967,-0.785479 -0.67179,-0.790647 -0.67179,-2.144565 z m 2.0102,-1.963698 v 2.377108 q 0,0.645953 0.50126,0.645953 0.50643,0 0.50643,-0.645953 v -2.377108 q 0,-0.645954 -0.50643,-0.645954 -0.50126,0 -0.50126,0.645954 z m 4.00491,1.963698 v -1.550288 q 0,-1.353918 0.6718,-2.139398 0.67696,-0.785479 1.83967,-0.785479 1.16272,0 1.83968,0.785479 0.67696,0.78548 0.67696,2.139398 v 1.550288 q 0,1.353918 -0.67696,2.144565 -0.67696,0.785479 -1.83968,0.785479 -1.16271,0 -1.83967,-0.785479 -0.6718,-0.790647 -0.6718,-2.144565 z m 2.01021,-1.963698 v 2.377108 q 0,0.645953 0.50126,0.645953 0.50643,0 0.50643,-0.645953 v -2.377108 q 0,-0.645954 -0.50643,-0.645954 -0.50126,0 -0.50126,0.645954 z"
         id="path16"
         style="font-size:10.5833px;line-height:0.95;font-family:'Bauhaus 93';-inkscape-font-specification:'Bauhaus 93, ';text-align:center;text-anchor:middle;stroke-width:0.264583"
         transform="translate(-1.0271992e-6)" />
      <path
         d="m 139.90858,86.415493 v 7.053811 h -1.99987 v -7.053811 z m 6.01512,0 v 7.053811 h -1.99987 v -7.053811 z m 21.01674,4.299466 v -1.550288 q 0,-1.353919 0.67179,-2.139398 0.67696,-0.785479 1.83968,-0.785479 1.16271,0 1.83967,0.785479 0.67696,0.785479 0.67696,2.139398 v 1.550288 q 0,1.353918 -0.67696,2.144565 -0.67696,0.785479 -1.83967,0.785479 -1.16272,0 -1.83968,-0.785479 -0.67179,-0.790647 -0.67179,-2.144565 z m 2.01021,-1.963699 v 2.377109 q 0,0.645953 0.50126,0.645953 0.50642,0 0.50642,-0.645953 V 88.75126 q 0,-0.645953 -0.50642,-0.645953 -0.50126,0 -0.50126,0.645953 z m 7.52406,-2.335767 v 7.053811 h -1.99987 v -7.053811 z m 6.01512,0 v 7.053811 h -1.99987 v -7.053811 z"
         id="path17"
         style="font-size:10.5833px;line-height:0.95;font-family:'Bauhaus 93';-inkscape-font-specification:'Bauhaus 93, ';text-align:center;text-anchor:middle;stroke-width:0.264583"
         transform="translate(-1.0271992e-6)" />
    </g>
  </g>
  <g
     id="analytics"
     inkscape:label="analytics"
     transform="translate(-57.230413,-116.40965)">
    <g
       id="g10"
       inkscape:label="visible-shapes"
       class="visible-shapes">
      <path
         id="eye"
         style="fill:#0e1d2c;fill-opacity:1;stroke-width:0.926605;stroke-linejoin:round"
         d="m 82.12957,77.404061 c -5.191191,-0.161809 -10.288399,2.827114 -15.942742,9.086267 -0.278352,0.307859 -0.297759,0.817008 -0.04393,1.152384 9.606567,12.729348 25.326338,10.534762 32.207605,0.163815 0.232216,-0.349735 0.188746,-0.849993 -0.09894,-1.138432 C 92.448369,80.843294 87.320762,77.56587 82.12957,77.404061 Z m -6.419597,4.409295 c -1.351668,1.665775 -1.274103,6.219442 0.02023,8.2628 2.845899,4.492822 9.098309,5.548807 12.80362,0.747241 2.376501,-3.079613 2.377093,-5.474045 1.936789,-7.838664 2.031549,1.533665 2.658452,2.478193 5.167379,4.935695 C 89.243124,96.690262 78.56168,98.478054 69.698844,87.500891 72.3434,84.663917 73.333473,83.13847 75.709976,81.813356 Z M 88.03511,81.388831 c 0.434947,0.5087 0.834753,1.040138 0.92643,1.770951 l -3.353302,1.328084 C 85.420472,83.768368 85.002859,83.209491 84.544439,82.67913 Z m -5.831887,1.245402 c 1.423469,-5.5e-5 2.577427,1.294513 2.577407,2.891296 2e-5,1.59678 -1.153938,2.890835 -2.577407,2.89078 -1.423398,-5.8e-5 -2.576984,-1.29408 -2.576963,-2.89078 -2.1e-5,-1.596703 1.153565,-2.891239 2.576963,-2.891296 z m -3.370518,3.57879 c 0.108842,0.428428 0.222393,0.855485 0.545513,1.221522 l -2.775919,2.176821 c -0.516435,-0.544267 -0.799478,-1.039543 -0.871655,-1.691151 z m 1.01021,2.061611 c 0.253426,0.323345 0.598686,0.557559 1.016365,0.721484 l -1.293362,3.247864 c -0.738478,-0.42958 -1.43715,-0.895218 -1.931836,-1.545642 z"
         inkscape:label="eye"
         sodipodi:nodetypes="sccccscsscccccscccscscsccccccccccc"
         class="visible-shape" />
    </g>
    <g
       id="g9"
       inkscape:label="hidden-shapes"
       class="hidden-shapes">
      <g
         id="pie"
         inkscape:label="pie"
         transform="matrix(0.63916677,0,0,0.63916677,27.17933,27.634594)"
         class="hidden-shape">
        <path
           style="fill:#000000;fill-opacity:1;stroke-width:1.94263;stroke-linecap:round;stroke-linejoin:round;stroke-miterlimit:9"
           inkscape:path-effect="#path-effect49"
           inkscape:original-d="m 63.969307,77.94962 -7.677419,5.947753 a 9.7115328,9.7115328 0 0 0 10.820477,3.240858 9.7115328,9.7115328 0 0 0 6.568476,-9.188611 z"
           d="m 63.341826,78.435734 -6.422457,4.975525 c -0.346548,0.268473 -0.41208,0.769663 -0.116403,1.093149 2.410759,2.637494 6.085011,3.737987 9.548711,2.859984 0.424854,-0.107695 1.09869,-0.338198 1.500461,-0.513264 3.275592,-1.427297 5.505974,-4.547348 5.796448,-8.108568 0.03563,-0.43684 -0.323119,-0.79294 -0.761495,-0.79294 l -8.124034,0 a 2.3206529,2.3206529 161.1174 0 0 -1.421231,0.486114 z"
           id="pie1"
           inkscape:label="pie1" />
        <path
           style="fill:#000000;fill-opacity:1;stroke-width:1.94263;stroke-linecap:round;stroke-linejoin:round;stroke-miterlimit:9"
           inkscape:path-effect="#path-effect47"
           inkscape:original-d="m 61.100725,68.054314 a 8.8353038,9.1443299 5.1296678e-6 0 0 -6.294001,5.596771 8.8353038,9.1443299 5.1296678e-6 0 0 0.965397,8.53003 l 7.264917,-5.204778 z"
           d="m 60.336969,68.269417 c -2.274968,0.755425 -4.159422,2.434789 -5.218919,4.651774 -0.188968,0.395413 -0.440269,1.061875 -0.559736,1.483522 -0.674274,2.379792 -0.384707,4.943759 0.801531,7.098389 0.211363,0.383911 0.701163,0.471047 1.057523,0.215741 l 5.974423,-4.280234 a 1.2077718,1.2077718 111.0682 0 0 0.476901,-1.237964 l -1.599621,-7.370639 c -0.09297,-0.428403 -0.516211,-0.69869 -0.932102,-0.560589 z"
           id="pie2"
           inkscape:label="pie2" />
        <path
           style="fill:#000000;fill-opacity:1;stroke-width:1.94263;stroke-linecap:round;stroke-linejoin:round;stroke-miterlimit:9"
           inkscape:path-effect="#path-effect45"
           inkscape:original-d="m 67.75044,67.903671 -3.197478,9.169682 9.709955,-0.19718 A 9.7115328,9.7115328 0 0 0 67.75044,67.903671 Z"
           d="m 67.489092,68.653162 -2.674782,7.6707 a 0.55180351,0.55180351 54.030187 0 0 0.532238,0.733376 l 8.122783,-0.16495 c 0.438285,-0.0089 0.78972,-0.372181 0.745205,-0.80817 -0.353693,-3.464103 -2.542052,-6.479108 -5.725981,-7.888961 -0.400754,-0.177455 -0.855125,0.04407 -0.999463,0.458005 z"
           id="pie4"
           inkscape:label="pie4" />
        <path
           style="fill:#000000;fill-opacity:1;stroke-width:1.94263;stroke-linecap:round;stroke-linejoin:round;stroke-miterlimit:9"
           inkscape:path-effect="#path-effect43"
           inkscape:original-d="m 63.732692,67.036077 a 9.7115328,9.7115328 0 0 0 -1.590064,0.123822 l 1.54826,9.587704 3.176183,-9.177569 A 9.7115328,9.7115328 0 0 0 63.732692,67.03607 Z"
           d="m 62.939688,67.064937 c -0.003,2.36e-4 -0.0061,4.73e-4 -0.0091,7.12e-4 -0.436914,0.03423 -0.731258,0.445079 -0.661372,0.877849 l 1.295182,8.020506 a 0.19983966,0.19983966 4.9583056 0 0 0.386134,0.0335 l 2.656993,-7.677369 c 0.14337,-0.414269 -0.0758,-0.869729 -0.500273,-0.978768 -0.518926,-0.133301 -1.048,-0.223433 -1.581792,-0.269469 -0.436633,-0.03766 -0.792719,-0.03582 -0.792719,-0.03582 z"
           id="pie3"
           inkscape:label="pie3" />
      </g>
      <path
         id="bars"
         style="fill:#000000;fill-opacity:1;stroke:none;stroke-width:1.465;stroke-linecap:round;stroke-linejoin:round;stroke-miterlimit:9;stroke-dasharray:none;stroke-opacity:1"
         d="m 89.142789,89.668787 c -0.46688,0 -0.842326,0.375963 -0.842326,0.842842 v 11.470621 c 0,0.46688 0.375446,0.84285 0.842326,0.84285 h 0.946195 c 0.46688,0 0.842323,-0.37597 0.842323,-0.84285 V 90.511629 c 0,-0.466879 -0.375443,-0.842842 -0.842323,-0.842842 z m 3.827317,1.531172 c -0.466879,0 -0.842319,0.375447 -0.842319,0.842326 v 9.939965 c 0,0.46688 0.37544,0.84285 0.842319,0.84285 h 0.9462 c 0.46688,0 0.84232,-0.37597 0.84232,-0.84285 v -9.939965 c 0,-0.466879 -0.37544,-0.842326 -0.84232,-0.842326 z m -15.643949,1.291394 c -0.466879,0 -0.842843,0.375964 -0.842843,0.842843 v 8.648054 c 0,0.46688 0.375964,0.84285 0.842843,0.84285 h 0.945679 c 0.466879,0 0.842842,-0.37597 0.842842,-0.84285 v -8.648054 c 0,-0.466879 -0.375963,-0.842843 -0.842842,-0.842843 z m 7.869926,0 c -0.466879,0 -0.842842,0.375964 -0.842842,0.842843 v 8.648054 c 0,0.46688 0.375963,0.84285 0.842842,0.84285 h 0.945679 c 0.466879,0 0.842843,-0.37597 0.842843,-0.84285 v -8.648054 c 0,-0.466879 -0.375964,-0.842843 -0.842843,-0.842843 z m -3.92322,2.296501 c -0.46688,0 -0.842326,0.375963 -0.842326,0.84284 v 6.351556 c 0,0.46688 0.375446,0.84285 0.842326,0.84285 h 0.946195 c 0.466879,0 0.842326,-0.37597 0.842326,-0.84285 v -6.351556 c 0,-0.466877 -0.375447,-0.84284 -0.842326,-0.84284 z m -11.641579,0.901578 c -0.466879,0 -0.842843,0.375964 -0.842843,0.842843 v 5.332805 c 0,0.46688 0.375964,0.84285 0.842843,0.84285 h 0.945679 c 0.466879,0 0.842842,-0.37597 0.842842,-0.84285 v -5.332805 c 0,-0.466879 -0.375963,-0.842843 -0.842842,-0.842843 z m 3.946706,-1.018745 c -0.46688,0 -0.842326,0.375963 -0.842326,0.84284 v 6.351553 c 0,0.46688 0.375446,0.84285 0.842326,0.84285 h 0.946195 c 0.466879,0 0.842326,-0.37597 0.842326,-0.84285 v -6.351553 c 0,-0.466877 -0.375447,-0.84284 -0.842326,-0.84284 z"
         inkscape:label="bars"
         sodipodi:nodetypes="sssssssssssssssssssssssssssssssssssssssssssssssssssssssssssssss"
         class="hidden-shape" />
      <g
         id="g8"
         inkscape:label="lines"
         transform="translate(0,2.5710075)"
         class="hidden-shape">
        <path
           style="stroke-linecap:round;stroke-linejoin:round"
           d="m 87.978516,68.292969 a 0.73250002,0.73250002 0 0 0 -0.732422,0.732422 v 11.003906 a 0.73257327,0.73257327 0 0 0 0.732422,0.732422 h 13.568364 a 0.73250002,0.73250002 0 0 0 0.73242,-0.732422 0.73250002,0.73250002 0 0 0 -0.73242,-0.732422 H 88.710937 V 69.025391 a 0.73250002,0.73250002 0 0 0 -0.732421,-0.732422 z"
           id="path1" />
        <path
           style="stroke-linecap:round"
           d="m 91.263672,74.734375 -3.34375,1.347656 a 0.2825,0.2825 0 0 0 -0.15625,0.369141 0.2825,0.2825 0 0 0 0.367187,0.15625 l 3.066407,-1.236328 3.1875,2.140625 3.925781,-1.052735 3.291013,2.132813 a 0.2825,0.2825 0 0 0 0.39063,-0.08398 0.2825,0.2825 0 0 0 -0.082,-0.390625 l -3.501957,-2.269531 -3.921875,1.052735 z"
           id="path2" />
        <path
           style="stroke-linecap:round"
           d="m 87.935547,74.355469 a 0.2825,0.2825 0 0 0 -0.164063,0.142578 0.2825,0.2825 0 0 0 0.128907,0.376953 l 3.296875,1.625 3.521484,-0.832031 3.798828,-0.277344 3.074222,2.189453 a 0.2825,0.2825 0 0 0 0.39453,-0.06641 0.2825,0.2825 0 0 0 -0.0664,-0.394531 l -3.240233,-2.306641 -4.046875,0.294922 -3.367187,0.794922 -3.115234,-1.533203 a 0.2825,0.2825 0 0 0 -0.214844,-0.01367 z"
           id="path4" />
        <path
           style="stroke-linecap:round"
           d="m 98.609375,70.636719 -4.009766,1.322265 -3.333984,0.78711 -3.115234,-1.535157 a 0.2825,0.2825 0 0 0 -0.378907,0.128907 0.2825,0.2825 0 0 0 0.128907,0.378906 l 3.296875,1.623047 3.554687,-0.839844 3.835938,-1.261719 3.060549,1.251953 a 0.2825,0.2825 0 0 0 0.36914,-0.154296 0.2825,0.2825 0 0 0 -0.1543,-0.369141 z"
           id="path5" />
        <path
           style="stroke-linecap:round"
           d="m 90.896484,68.65625 a 0.0825,0.0825 0 0 0 -0.08203,0.08203 v 11.195313 a 0.0825,0.0825 0 0 0 0.08203,0.08203 0.0825,0.0825 0 0 0 0.08203,-0.08203 V 68.738281 a 0.0825,0.0825 0 0 0 -0.08203,-0.08203 z m 1.851563,0 a 0.0825,0.0825 0 0 0 -0.08203,0.08203 v 11.195313 a 0.0825,0.0825 0 0 0 0.08203,0.08203 0.0825,0.0825 0 0 0 0.08203,-0.08203 V 68.738281 a 0.0825,0.0825 0 0 0 -0.08203,-0.08203 z m 1.851562,0 a 0.0825,0.0825 0 0 0 -0.08203,0.08203 v 11.195313 a 0.0825,0.0825 0 0 0 0.08203,0.08203 0.0825,0.0825 0 0 0 0.08398,-0.08203 V 68.738281 a 0.0825,0.0825 0 0 0 -0.08398,-0.08203 z m 1.853516,0 a 0.0825,0.0825 0 0 0 -0.08398,0.08203 v 11.195313 a 0.0825,0.0825 0 0 0 0.08398,0.08203 0.0825,0.0825 0 0 0 0.08203,-0.08203 V 68.738281 a 0.0825,0.0825 0 0 0 -0.08203,-0.08203 z m 1.851562,0 a 0.0825,0.0825 0 0 0 -0.08203,0.08203 v 11.195313 a 0.0825,0.0825 0 0 0 0.08203,0.08203 0.0825,0.0825 0 0 0 0.08203,-0.08203 V 68.738281 a 0.0825,0.0825 0 0 0 -0.08203,-0.08203 z m 1.851563,0 a 0.0825,0.0825 0 0 0 -0.082,0.08203 v 11.195313 a 0.0825,0.0825 0 0 0 0.082,0.08203 0.0825,0.0825 0 0 0 0.082,-0.08203 V 68.738281 a 0.0825,0.0825 0 0 0 -0.082,-0.08203 z m 1.85156,0 a 0.0825,0.0825 0 0 0 -0.082,0.08203 v 11.195313 a 0.0825,0.0825 0 0 0 0.082,0.08203 0.0825,0.0825 0 0 0 0.084,-0.08203 V 68.738281 a 0.0825,0.0825 0 0 0 -0.084,-0.08203 z"
           id="path6"
           transform="translate(-0.60212284)" />
        <path
           style="stroke-linecap:round"
           d="m 90.896484,68.65625 a 0.0825,0.0825 0 0 0 -0.08203,0.08203 v 13.240235 a 0.0825,0.0825 0 0 0 0.08203,0.08203 0.0825,0.0825 0 0 0 0.08203,-0.08203 V 68.738281 a 0.0825,0.0825 0 0 0 -0.08203,-0.08203 z m 1.851563,0 a 0.0825,0.0825 0 0 0 -0.08203,0.08203 v 13.240235 a 0.0825,0.0825 0 0 0 0.08203,0.08203 0.0825,0.0825 0 0 0 0.08203,-0.08203 V 68.738281 a 0.0825,0.0825 0 0 0 -0.08203,-0.08203 z m 1.851562,0 a 0.0825,0.0825 0 0 0 -0.08203,0.08203 v 13.240235 a 0.0825,0.0825 0 0 0 0.08203,0.08203 0.0825,0.0825 0 0 0 0.08398,-0.08203 V 68.738281 a 0.0825,0.0825 0 0 0 -0.08398,-0.08203 z m 1.853516,0 a 0.0825,0.0825 0 0 0 -0.08398,0.08203 v 13.240235 a 0.0825,0.0825 0 0 0 0.08398,0.08203 0.0825,0.0825 0 0 0 0.08203,-0.08203 V 68.738281 a 0.0825,0.0825 0 0 0 -0.08203,-0.08203 z m 1.851562,0 a 0.0825,0.0825 0 0 0 -0.08203,0.08203 v 13.240235 a 0.0825,0.0825 0 0 0 0.08203,0.08203 0.0825,0.0825 0 0 0 0.08203,-0.08203 V 68.738281 a 0.0825,0.0825 0 0 0 -0.08203,-0.08203 z m 1.851563,0 a 0.0825,0.0825 0 0 0 -0.082,0.08203 v 13.240235 a 0.0825,0.0825 0 0 0 0.082,0.08203 0.0825,0.0825 0 0 0 0.082,-0.08203 V 68.738281 a 0.0825,0.0825 0 0 0 -0.082,-0.08203 z m 1.85156,0 a 0.0825,0.0825 0 0 0 -0.082,0.08203 v 13.240235 a 0.0825,0.0825 0 0 0 0.082,0.08203 0.0825,0.0825 0 0 0 0.084,-0.08203 V 68.738281 a 0.0825,0.0825 0 0 0 -0.084,-0.08203 z"
           id="path7"
           transform="rotate(90,96.189158,73.928636)" />
      </g>
    </g>
  </g>
  <g
     id="g80"
     inkscape:label="astro"
     transform="matrix(0.79783138,0,0,0.79783138,-83.642806,-85.588357)">
    <g
       id="g17"
       inkscape:label="visible-shapes"
       style="display:inline"
       class="visible-shapes">
      <path
         id="rect55"
         style="stroke:none;stroke-width:1.44712;stroke-linecap:round;stroke-linejoin:round;stroke-miterlimit:9"
         d="m 136.36906,115.12949 a 1.0053734,1.0053734 0 0 0 -0.90882,0.86401 1.0053734,1.0053734 0 0 0 0.34954,0.90679 l -2.50857,3.12689 c 0.11085,0.87008 1.57257,1.36376 2.06334,1.13755 l 0.96243,-4.03775 a 1.0053734,1.0053734 0 0 0 1.12532,-0.85859 1.0053734,1.0053734 0 0 0 -0.85858,-1.13348 1.0053734,1.0053734 0 0 0 -0.22466,-0.005 z m -5.5805,1.00179 c -1.70661,-0.0218 -2.98152,0.49868 -3.37599,1.62623 -0.73981,2.1147 0.53543,6.51039 5.15494,8.13591 4.61951,1.62554 8.45462,-0.97899 8.97684,-2.63822 0.40472,-1.28595 -1.30641,-3.79026 -4.91806,-5.55537 l -0.23415,1.17758 a 5.7504292,1.8900961 24.701109 0 1 3.49747,3.65427 5.7504292,1.8900961 24.701109 0 1 -6.0142,-0.68619 5.7504292,1.8900961 24.701109 0 1 -4.43412,-4.11988 5.7504292,1.8900961 24.701109 0 1 2.3511,-0.47578 5.7504292,1.8900961 24.701109 0 1 2.48822,0.67805 l 0.84027,-0.87557 c -1.07482,-0.40513 -2.12406,-0.68312 -3.08686,-0.82057 h -6.7e-4 c -0.43433,-0.062 -0.85096,-0.0954 -1.24479,-0.10046 z m -15.61411,2.52963 -1.47556,3.32507 3.51105,1.55769 1.47556,-3.3244 z m 4.02892,1.78776 -1.47556,3.32508 3.51107,1.55768 1.47554,-3.32441 z m 4.02892,1.78777 -1.47555,3.32508 3.51106,1.55836 1.47554,-3.32509 z m -9.7567,0.25316 -1.47555,3.3244 3.51105,1.55837 1.47556,-3.32508 z m 14.51051,1.22714 -3.85245,9.36712 c -1.35542,3.29524 7.33521,6.25431 8.4739,3.48594 l 3.85314,-9.36712 c -0.70615,0.14671 -2.24261,0.72219 -5.11421,-0.52465 -2.71199,-1.17753 -3.36038,-2.96129 -3.36038,-2.96129 z m -10.48158,0.56063 -1.47556,3.3244 3.51105,1.55836 1.47556,-3.3244 z m 4.02892,1.78777 -1.47555,3.32509 3.51105,1.55767 1.47555,-3.3244 z m 16.32475,2.77532 -1.47556,3.3244 3.51105,1.55836 1.47556,-3.32509 z m 4.02892,1.78775 -1.47556,3.32509 3.51107,1.55769 1.47554,-3.32442 z m 4.02892,1.78778 -1.47555,3.32508 3.51106,1.55767 1.47555,-3.3244 z m -9.7567,0.25316 -1.47555,3.32441 3.51105,1.55836 1.47556,-3.32509 z m 4.02893,1.78777 -1.47556,3.3244 3.51106,1.55836 1.47555,-3.32508 z m 4.02892,1.78777 -1.47555,3.3244 3.51105,1.55836 1.47555,-3.32441 z" />
    </g>
    <g
       id="g18"
       inkscape:label="hidden-shapes"
       class="hidden-shapes">
      <path
         id="path61"
         style="stroke-width:1.92416;stroke-linecap:round;stroke-linejoin:round;stroke-miterlimit:9"
         d="m 126.09138,139.35797 a 2.0107468,2.0107468 0 0 1 -2.01075,2.01075 2.0107468,2.0107468 0 0 1 -2.01075,-2.01075 2.0107468,2.0107468 0 0 1 2.01075,-2.01073 2.0107468,2.0107468 0 0 1 2.01075,2.01073 z" />
      <path
         id="circle61"
         style="stroke-width:1.8039;stroke-linecap:round;stroke-linejoin:round;stroke-miterlimit:9"
         d="m 120.24764,140.8032 a 1.8850751,1.8850751 0 0 1 -1.88508,1.88509 1.8850751,1.8850751 0 0 1 -1.88507,-1.88509 1.8850751,1.8850751 0 0 1 1.88507,-1.88506 1.8850751,1.8850751 0 0 1 1.88508,1.88506 z" />
      <path
         id="circle62"
         style="stroke-width:1.56337;stroke-linecap:round;stroke-linejoin:round;stroke-miterlimit:9"
         d="m 114.15255,139.16947 a 1.6337317,1.6337317 0 0 1 -1.63373,1.63373 1.6337317,1.6337317 0 0 1 -1.63373,-1.63373 1.6337317,1.6337317 0 0 1 1.63373,-1.63373 1.6337317,1.6337317 0 0 1 1.63373,1.63373 z" />
      <path
         id="circle63"
         style="stroke-width:1.32286;stroke-linecap:round;stroke-linejoin:round;stroke-miterlimit:9"
         d="m 109.56554,135.08514 a 1.3823885,1.3823885 0 0 1 -1.38239,1.3824 1.3823885,1.3823885 0 0 1 -1.38239,-1.3824 1.3823885,1.3823885 0 0 1 1.38239,-1.38239 1.3823885,1.3823885 0 0 1 1.38239,1.38239 z" />
      <path
         id="circle64"
         style="stroke-width:0.962078;stroke-linecap:round;stroke-linejoin:round;stroke-miterlimit:9"
         d="m 107.93182,128.86439 a 1.0053733,1.0053733 0 0 1 -1.00538,1.00538 1.0053733,1.0053733 0 0 1 -1.00537,-1.00538 1.0053733,1.0053733 0 0 1 1.00537,-1.00537 1.0053733,1.0053733 0 0 1 1.00538,1.00537 z" />
      <path
         id="circle65"
         style="stroke-width:0.781688;stroke-linecap:round;stroke-linejoin:round;stroke-miterlimit:9"
         d="m 109.37704,123.02067 a 0.8168658,0.8168658 0 0 1 -0.81686,0.81686 0.8168658,0.8168658 0 0 1 -0.81687,-0.81686 0.8168658,0.8168658 0 0 1 0.81687,-0.81687 0.8168658,0.8168658 0 0 1 0.81686,0.81687 z" />
      <path
         id="circle65-1"
         style="stroke-width:0.721559;stroke-linecap:round;stroke-linejoin:round;stroke-miterlimit:9"
         d="m 113.29154,119.0576 a 0.75402997,0.75402997 0 0 1 -0.75403,0.75403 0.75402997,0.75402997 0 0 1 -0.75403,-0.75403 0.75402997,0.75402997 0 0 1 0.75403,-0.75403 0.75402997,0.75402997 0 0 1 0.75403,0.75403 z" />
      <path
         id="path65"
         style="stroke-width:1.92416;stroke-linecap:round;stroke-linejoin:round;stroke-miterlimit:9"
         d="m 122.93526,113.5658 -0.44246,-2.10692 -2.1479,-0.36738 2.10693,-0.44247 0.36739,-2.14788 0.44246,2.10691 2.14788,0.36739 -2.10691,0.44246 z" />
      <path
         id="path65-5"
         style="stroke-width:3.54467;stroke-linecap:round;stroke-linejoin:round;stroke-miterlimit:9"
         d="m 148.61521,119.72792 -0.8151,-3.88137 -3.95685,-0.67679 3.88137,-0.81512 0.67682,-3.95682 0.81509,3.88134 3.95682,0.67682 -3.88134,0.81509 z" />
      <path
         id="path65-5-1"
         style="stroke-width:2.59937;stroke-linecap:round;stroke-linejoin:round;stroke-miterlimit:9"
         d="m 133.27555,146.99452 -0.59772,-2.84628 -2.90163,-0.4963 2.84627,-0.59774 0.49632,-2.90161 0.59773,2.84626 2.9016,0.49632 -2.84625,0.59772 z" />
    </g>
  </g>
  <text
     xml:space="preserve"
     style="font-size:10.5833px;line-height:0.95;font-family:'Bauhaus 93';-inkscape-font-specification:'Bauhaus 93, ';text-align:center;text-anchor:middle;stroke-width:0.264583"
     x="248.386"
     y="50.077858"
     id="text10-2"
     transform="matrix(0.79098577,0,0,0.79098577,-106.60903,-42.965785)"><tspan
       sodipodi:role="line"
       id="tspan10-4"
       style="line-height:0.95;stroke-width:0.264583"
       x="248.386"
       y="50.077858">0001       0</tspan><tspan
       sodipodi:role="line"
       style="line-height:0.95;stroke-width:0.264583"
       x="248.386"
       y="60.131996"
       id="tspan11-5">001         0</tspan><tspan
       sodipodi:role="line"
       style="line-height:0.95;stroke-width:0.264583"
       x="248.386"
       y="70.186127"
       id="tspan12-5">11       100</tspan><tspan
       sodipodi:role="line"
       style="line-height:0.95;stroke-width:0.264583"
       x="248.386"
       y="80.240265"
       id="tspan13-1">11       011</tspan></text>
</svg>
